<svg width="920" height="876" viewBox="0 0 920 876" fill="none" xmlns="http://www.w3.org/2000/svg">
<mask id="mask0_12_2" style="mask-type:luminance" maskUnits="userSpaceOnUse" x="177" y="0" width="566" height="570">
<path d="M742.989 0H177.011V569.416H742.989V0Z" fill="white"/>
</mask>
<g mask="url(#mask0_12_2)">
<path d="M459.112 1.03357C456.574 2.39542 455.068 4.22468 453.014 8.71997C452.171 10.4915 446.855 21.2478 441.12 32.6562C431.815 51.1221 421.384 72.0808 397.357 120.138C393.314 128.217 380.492 153.775 368.986 176.886C357.48 199.997 345.325 224.17 342.124 230.673C338.927 237.177 322.263 270.398 305.18 304.537C288.097 338.675 269.805 375.318 264.495 385.953C259.184 396.59 254.717 405.343 254.473 405.343C253.089 405.343 241.497 383.119 237.21 372.243C226.584 345.346 222 318.04 222.785 286.838C223.507 257.108 227.916 235.711 238.49 209.997C260.22 157.272 294.751 116.191 339.42 89.8888C352.095 82.439 369.545 74.6948 382.095 71.0882C385.296 70.1417 387.592 69.1377 387.912 68.549C388.232 67.9607 390.688 59.98 393.461 50.695C399.277 31.1328 401.795 22.6212 402.517 20.5496C403.68 17.3585 403.849 15.2291 403 15.2291C402.582 15.2291 398.533 16.1755 394.065 17.3585C323.688 35.5069 262.168 79.4267 221.122 140.779C199.782 172.569 183.787 218.203 178.145 263.479C176.633 275.718 176.633 309.643 178.145 322.293C184.874 377.8 208.053 428.868 247.29 474.797C252.844 481.3 269.625 498.145 270.59 498.145C270.957 498.145 276.505 487.181 282.967 473.735C289.429 460.29 296.671 445.304 299.084 440.334C301.498 435.365 303.493 431.173 303.493 431.055C303.493 430.941 305.302 427.212 307.477 422.661C309.653 418.106 312.363 412.615 313.451 410.368C314.539 408.125 316.65 403.685 318.104 400.616C319.558 397.547 322.932 390.628 325.532 385.244C332.111 371.531 334.221 367.1 338.45 358.409C340.504 354.272 342.131 350.723 342.131 350.668C342.131 350.609 343.94 346.822 346.115 342.277C348.29 337.729 351.001 332.224 352.088 329.977C353.176 327.734 355.23 323.418 356.621 320.521C358.009 317.624 360.057 313.308 361.145 311.063C362.232 308.818 364.949 303.261 367.118 298.708C369.287 294.155 371.102 290.491 371.102 290.376C371.102 290.26 373.277 285.759 375.936 280.387C378.594 275.014 380.763 270.398 380.763 270.277C380.763 270.155 382.572 266.433 384.747 261.886C386.922 257.339 390.482 250.004 392.657 245.452C394.832 240.899 398.51 233.333 400.744 228.665C402.977 223.997 404.908 220.096 404.908 220.009C404.908 219.923 406.838 215.872 409.192 211.025C411.55 206.177 414.323 200.563 415.29 198.439C418.128 192.466 420.483 187.504 424.042 180.112C425.858 176.389 429.114 169.592 431.289 165.039C433.464 160.486 437.142 152.921 439.376 148.252C441.61 143.584 443.546 139.683 443.546 139.625C443.546 139.567 445.476 135.488 447.825 130.641C450.176 125.793 452.962 120.179 453.929 118.049C458.994 107.287 459.961 105.515 460.385 105.988C460.686 106.283 462.616 109.711 464.67 113.617C466.724 117.524 469.742 123.069 471.313 126.03C472.884 128.99 476.012 134.801 478.269 139.071C480.526 143.341 483.766 149.418 485.516 152.667C487.267 155.916 490.647 162.304 493.077 166.851C495.51 171.398 498.511 176.961 499.713 179.269C500.918 181.577 504.063 187.348 506.66 192.27C509.253 197.192 512.515 203.234 513.9 205.866C515.285 208.497 518.309 214.025 520.543 218.278C531.65 239.202 533.159 242.041 534.122 243.668C534.704 244.615 538.107 250.997 541.686 257.853C545.262 264.708 548.384 270.502 548.629 270.859C548.874 271.217 551.706 276.474 554.969 282.678C558.231 288.881 561.605 295.211 562.529 296.867C563.457 298.524 565.85 303.013 567.963 306.972L571.768 314.127L586.615 314.479C609.009 315.056 627.122 315.01 627.122 314.3C627.122 313.948 619.333 298.05 609.858 278.956C593.258 245.677 589.816 238.7 573.574 206.131C569.593 198.15 562.774 184.439 558.424 175.691C554.074 166.943 532.878 124.645 511.509 81.7178C468.165 -5.29097 471.424 0.381489 464.788 0.0294861C462.188 -0.0916959 460.82 0.144898 459.112 1.03357Z" fill="#010101"/>
<path d="M524.609 17.2315C524.789 17.6412 527.986 27.1627 531.67 38.3344C535.35 49.5062 539.456 61.561 540.661 65.11L542.829 71.4921L549.472 73.7368C558.466 76.755 562.451 78.411 572.738 83.4316C625.9 109.561 665.499 154.363 685.059 210.695C687.965 218.971 690.49 229.254 692.783 241.73C697.25 266.024 697.913 273.531 697.913 296.879C697.913 320.815 696.888 329.622 692.097 348.66L690.222 356.101L693.423 361.658C695.167 364.733 697.283 368.4 698.132 369.876C698.981 371.355 700.304 373.542 701.088 374.724C701.607 375.521 702.071 376.347 702.479 377.206C702.479 377.326 704.35 380.575 706.584 384.418C708.818 388.261 712.437 394.464 714.612 398.193L718.485 404.925L720.056 401.465C724.099 392.6 730.984 370.881 734.485 355.657C744.622 311.911 745.709 265.81 737.44 226.265C732.973 204.746 724.703 181.462 714.866 162.482C701.826 137.484 691.747 122.585 675.509 104.5C639.48 64.3424 590.704 34.624 535.416 19.0031C525.383 16.1582 524.126 15.9908 524.609 17.2315Z" fill="#010101"/>
<path d="M453.374 206.264C449.997 213.188 437.439 238.948 425.427 263.479C413.415 288.009 402.129 311.034 400.378 314.612C398.624 318.19 384.382 347.295 368.683 379.334C352.983 411.374 337.235 443.528 333.676 450.854C330.116 458.184 325.299 467.992 322.973 472.727C302.086 515.227 299.794 520.138 300.457 520.905C302.569 523.442 322.187 534.752 335.165 540.998C365.345 555.422 395.107 564.114 429.033 568.309C441.349 569.785 476.96 569.785 488.488 568.309C535.818 562.165 574.691 547.534 616.165 520.412C624.493 514.972 639.702 503.92 639.702 503.333C639.702 503.094 636.795 502.859 633.245 502.859C616.377 502.859 595.44 499.49 578.251 494.112L572.64 492.333L565.276 496.061C537.748 510.065 504.063 519.41 472.492 521.711C462.658 522.479 444.062 522.07 434.222 520.885C413.993 518.541 394.248 513.141 375.668 504.867C371.08 502.797 367.161 501.024 367.037 500.828C366.798 500.655 370.054 493.972 384.963 464.12C389.036 455.967 395.048 443.926 398.34 437.229C410.839 412.226 431.179 371.446 449.654 334.375C453.334 327.049 458.831 315.997 461.907 309.845C464.984 303.694 471.215 291.166 475.791 282.066C488.407 256.768 488.89 255.821 488.652 254.581C488.348 252.567 460.699 193.753 460.098 193.696C459.775 193.73 456.747 199.408 453.374 206.264Z" fill="#010101"/>
<path d="M463.455 341.15C463.455 341.264 467.143 348.774 471.669 357.821C476.192 366.869 481.993 378.551 484.586 383.742C492.375 399.466 499.71 414.247 508.126 431.062C512.532 439.809 517.303 449.529 518.75 452.461L521.467 457.959H655.96L656.868 456.304C658.373 453.417 680.166 402.395 680.166 401.742C680.166 401.089 675.16 392.349 653.487 355.105L645.398 341.215L554.43 341.042C504.383 340.971 463.455 341.042 463.455 341.15Z" fill="#010101"/>
</g>
<path d="M38.157 748.991H4.22241L48.2992 618.391H90.3348L134.411 748.991H100.477L69.7953 651.296H68.7747L38.157 748.991ZM33.6282 697.594H104.559V721.572H33.6282V697.594ZM206.994 618.391V748.991H175.42V618.391H206.994ZM253.76 748.991V618.391H307.723C317.504 618.391 325.945 620.154 333.045 623.684C340.191 627.171 345.697 632.186 349.567 638.732C353.437 645.239 355.371 652.955 355.371 661.881C355.371 670.938 353.395 678.634 349.44 684.968C345.485 691.26 339.871 696.062 332.601 699.38C325.329 702.651 316.717 704.29 306.767 704.29H272.64V679.417H300.898C305.661 679.417 309.637 678.804 312.826 677.57C316.058 676.293 318.503 674.38 320.162 671.83C321.82 669.237 322.649 665.92 322.649 661.881C322.649 657.842 321.82 654.506 320.162 651.871C318.503 649.193 316.058 647.195 312.826 645.876C309.595 644.515 305.618 643.836 300.898 643.836H285.334V748.991H253.76ZM327.307 689.304L359.839 748.991H325.392L293.499 689.304H327.307ZM522.934 683.691C522.934 698.061 520.171 710.242 514.642 720.23C509.112 730.221 501.63 737.812 492.189 742.997C482.789 748.185 472.244 750.777 460.549 750.777C448.814 750.777 438.246 748.162 428.847 742.935C419.451 737.704 411.988 730.116 406.459 720.168C400.972 710.177 398.229 698.018 398.229 683.691C398.229 669.322 400.972 657.14 406.459 647.153C411.988 637.162 419.451 629.571 428.847 624.386C438.246 619.198 448.814 616.605 460.549 616.605C472.244 616.605 482.789 619.198 492.189 624.386C501.63 629.571 509.112 637.162 514.642 647.153C520.171 657.14 522.934 669.322 522.934 683.691ZM490.657 683.691C490.657 675.189 489.445 668.003 487.022 662.136C484.641 656.272 481.196 651.828 476.689 648.808C472.224 645.791 466.845 644.283 460.549 644.283C454.298 644.283 448.919 645.791 444.412 648.808C439.905 651.828 436.44 656.272 434.013 662.136C431.633 668.003 430.444 675.189 430.444 683.691C430.444 692.193 431.633 699.38 434.013 705.247C436.44 711.111 439.905 715.555 444.412 718.575C448.919 721.592 454.298 723.1 460.549 723.1C466.845 723.1 472.224 721.592 476.689 718.575C481.196 715.555 484.641 711.111 487.022 705.247C489.445 699.38 490.657 692.193 490.657 683.691ZM592.902 618.391L616.759 659.651H617.778L641.89 618.391H677.227L637.808 683.691L678.504 748.991H642.272L617.778 707.288H616.759L592.265 748.991H556.288L596.792 683.691L557.307 618.391H592.902ZM752.075 618.391V748.991H720.5V618.391H752.075ZM910.019 618.391V748.991H883.229L831.243 673.616H830.414V748.991H798.839V618.391H826.014L877.426 693.64H878.51V618.391H910.019Z" fill="#010101"/>
<path d="M46.566 793.693V855.431H33.5093V793.693H46.566ZM123.397 793.693V855.431H112.119L85.2523 816.574H84.8V855.431H71.7433V793.693H83.2017L109.858 832.52H110.4V793.693H123.397ZM146.268 804.454V793.693H196.986V804.454H178.08V855.431H165.174V804.454H146.268ZM219.774 855.431V793.693H261.386V804.454H232.831V819.166H259.245V829.928H232.831V844.669H261.507V855.431H219.774ZM286.202 855.431V793.693H310.566C315.23 793.693 319.21 794.525 322.507 796.194C325.824 797.842 328.346 800.183 330.077 803.22C331.824 806.233 332.699 809.779 332.699 813.86C332.699 817.958 331.814 821.488 330.044 824.442C328.277 827.374 325.713 829.627 322.356 831.194C319.019 832.762 314.979 833.545 310.234 833.545H293.921V823.055H308.124C310.616 823.055 312.687 822.712 314.335 822.03C315.984 821.347 317.21 820.322 318.014 818.954C318.838 817.589 319.25 815.888 319.25 813.86C319.25 811.81 318.838 810.083 318.014 808.676C317.21 807.268 315.973 806.204 314.305 805.479C312.657 804.735 310.576 804.363 308.063 804.363H299.258V855.431H286.202ZM319.552 827.335L334.9 855.431H320.487L305.47 827.335H319.552ZM408.014 793.693V855.431H396.737L369.871 816.574H369.417V855.431H356.36V793.693H367.82L394.477 832.52H395.019V793.693H408.014ZM443.883 855.431H429.892L451.208 793.693H468.034L489.324 855.431H475.333L459.863 807.801H459.379L443.883 855.431ZM443.008 831.162H476.055V841.352H443.008V831.162ZM501.294 804.454V793.693H552.013V804.454H533.107V855.431H520.2V804.454H501.294ZM587.856 793.693V855.431H574.799V793.693H587.856ZM669.784 824.56C669.784 831.292 668.507 837.022 665.953 841.744C663.422 846.468 659.964 850.076 655.581 852.567C651.218 855.039 646.312 856.276 640.865 856.276C635.378 856.276 630.453 855.029 626.09 852.538C621.73 850.043 618.281 846.439 615.747 841.714C613.216 836.993 611.949 831.273 611.949 824.56C611.949 817.827 613.216 812.101 615.747 807.38C618.281 802.655 621.73 799.057 626.09 796.585C630.453 794.094 635.378 792.847 640.865 792.847C646.312 792.847 651.218 794.094 655.581 796.585C659.964 799.057 663.422 802.655 665.953 807.38C668.507 812.101 669.784 817.827 669.784 824.56ZM656.548 824.56C656.548 820.201 655.891 816.521 654.585 813.527C653.298 810.533 651.479 808.264 649.127 806.717C646.776 805.169 644.023 804.395 640.865 804.395C637.71 804.395 634.957 805.169 632.605 806.717C630.251 808.264 628.422 810.533 627.115 813.527C625.829 816.521 625.185 820.201 625.185 824.56C625.185 828.922 625.829 832.602 627.115 835.596C628.422 838.59 630.251 840.859 632.605 842.406C634.957 843.954 637.71 844.728 640.865 844.728C644.023 844.728 646.776 843.954 649.127 842.406C651.479 840.859 653.298 838.59 654.585 835.596C655.891 832.602 656.548 828.922 656.548 824.56ZM745.543 793.693V855.431H734.266L707.401 816.574H706.947V855.431H693.89V793.693H705.35L732.006 832.52H732.548V793.693H745.543ZM781.412 855.431H767.421L788.738 793.693H805.563L826.854 855.431H812.863L797.392 807.801H796.909L781.412 855.431ZM780.537 831.162H813.584V841.352H780.537V831.162ZM848.722 855.431V793.693H861.776V844.669H888.252V855.431H848.722Z" fill="#010101"/>
</svg>
