<svg xmlns="http://www.w3.org/2000/svg" viewBox="0 0 973.08 986.76"><defs><style>.cls-1{fill:#010101;}</style></defs><g id="Layer_2" data-name="Layer 2"><g id="icon"><g id="icon-2" data-name="icon"><path className="cls-1" d="M485.06,1.79c-4.36,2.36-6.95,5.53-10.48,13.32-1.45,3.07-10.59,21.71-20.45,41.48-16,32-33.93,68.32-75.24,151.6-6.95,14-29,58.29-48.78,98.34s-40.68,81.94-46.18,93.21-34.15,68.84-63.52,128S159.59,650.4,150.46,668.83s-16.81,33.6-17.23,33.6c-2.38,0-22.31-38.51-29.68-57.36-18.27-46.61-26.15-93.93-24.8-148,1.24-51.52,8.82-88.6,27-133.16,37.36-91.37,96.73-162.56,173.53-208.14,21.79-12.91,51.79-26.33,73.37-32.58,5.5-1.64,9.45-3.38,10-4.4s4.77-14.85,9.54-30.94c10-33.9,14.33-48.65,15.57-52.24,2-5.53,2.29-9.22.83-9.22-.72,0-7.68,1.64-15.36,3.69-121,31.45-226.77,107.56-297.34,213.88C39.2,299.05,11.7,378.13,2,456.59c-2.6,21.21-2.6,80,0,101.92C13.57,654.7,53.42,743.2,120.88,822.79c9.55,11.27,38.4,40.46,40.06,40.46.63,0,10.17-19,21.28-42.3s23.56-49.27,27.71-57.88,7.58-15.88,7.58-16.08,3.11-6.66,6.85-14.55,8.4-17.41,10.27-21.3,5.5-11.58,8-16.9,8.3-17.31,12.77-26.64c11.31-23.76,14.94-31.44,22.21-46.5,3.53-7.17,6.33-13.32,6.33-13.42s3.11-6.66,6.85-14.54,8.4-17.42,10.27-21.31,5.4-11.37,7.79-16.39,5.91-12.5,7.78-16.39,6.54-13.52,10.27-21.41,6.85-14.24,6.85-14.44,3.74-8,8.31-17.31,8.3-17.31,8.3-17.52,3.11-6.66,6.85-14.54,9.86-20.59,13.6-28.48,10.06-21,13.9-29.09,7.16-14.85,7.16-15,3.32-7.17,7.37-15.57,8.82-18.13,10.48-21.81c4.88-10.35,8.93-18.95,15.05-31.76,3.12-6.45,8.72-18.23,12.46-26.12s10.06-21,13.9-29.09,7.17-14.85,7.17-14.95,3.32-7.17,7.36-15.57,8.83-18.13,10.49-21.82c8.71-18.65,10.37-21.72,11.1-20.9.52.51,3.84,6.45,7.37,13.22s8.72,16.38,11.42,21.51S514.12,233.6,518,241s9.45,17.93,12.46,23.56,8.82,16.7,13,24.58,9.34,17.52,11.41,21.52,7.48,14,11.94,22.53,10.07,19,12.45,23.56,7.58,14.14,11.42,21.51c19.1,36.26,21.69,41.18,23.35,44,1,1.64,6.85,12.7,13,24.58s11.52,21.92,11.94,22.54,5.29,9.73,10.9,20.48,11.41,21.72,13,24.59,5.71,10.65,9.34,17.51l6.54,12.4,25.53.61c38.5,1,69.64.92,69.64-.31,0-.61-13.39-28.16-29.68-61.25-28.54-57.67-34.46-69.76-62.38-126.2-6.85-13.83-18.57-37.59-26.05-52.75S611.89,216,575.15,141.61C500.63-9.17,506.23.66,494.82.05,490.35-.16,488,.25,485.06,1.79Z"/><path className="cls-1" d="M597.67,29.86c.31.71,5.81,17.21,12.14,36.57s13.39,40.25,15.46,46.4L629,123.89l11.42,3.89c15.46,5.23,22.31,8.1,40,16.8C771.82,189.86,839.9,267.5,873.53,365.12c5,14.34,9.34,32.16,13.28,53.78,7.68,42.1,8.82,55.11,8.82,95.57,0,41.48-1.76,56.74-10,89.73l-3.22,12.9,5.5,9.63c3,5.33,6.64,11.68,8.1,14.24s3.73,6.35,5.08,8.4a36.88,36.88,0,0,1,2.39,4.3c0,.21,3.22,5.84,7.06,12.5s10.06,17.41,13.8,23.87L931,701.71l2.7-6c6.95-15.36,18.79-53,24.81-79.38,17.43-75.81,19.3-155.7,5.08-224.23-7.68-37.29-21.9-77.64-38.81-110.53-22.42-43.32-39.75-69.14-67.67-100.48C795.17,111.5,711.31,60,616.25,32.93,599,28,596.84,27.71,597.67,29.86Z"/><path className="cls-1" d="M475.2,357.44c-5.81,12-27.4,56.64-48.05,99.15S387.09,539,384.08,545.2s-27.5,56.64-54.49,112.16S275.52,768.6,269.4,781.3,255,811,251,819.2c-35.91,73.65-39.85,82.16-38.71,83.49,3.63,4.4,37.36,24,59.67,34.82,51.89,25,103.06,40.06,161.39,47.33,21.17,2.56,82.4,2.56,102.22,0,81.37-10.65,148.21-36,219.51-83,14.32-9.43,40.47-28.58,40.47-29.6,0-.41-5-.82-11.1-.82-29,0-65-5.84-94.55-15.16l-9.65-3.08-12.66,6.46c-47.33,24.27-105.24,40.46-159.52,44.45-16.91,1.33-48.88.62-65.8-1.43a343.06,343.06,0,0,1-100.67-27.76c-7.89-3.59-14.63-6.66-14.84-7-.41-.3,5.19-11.88,30.82-63.61,7-14.13,17.34-35,23-46.6,21.49-43.33,56.46-114,88.22-178.24,6.33-12.7,15.78-31.85,21.07-42.51s16-32.37,23.87-48.14c21.69-43.84,22.52-45.48,22.11-47.63-.52-3.49-48.06-105.41-49.09-105.51C486.2,335.72,481,345.56,475.2,357.44Z"/><path className="cls-1" d="M492.53,591.19c0,.2,6.34,13.21,14.12,28.89S524.4,656,528.86,665c13.39,27.25,26,52.86,40.47,82,7.58,15.16,15.78,32,18.27,37.08l4.67,9.53H823.5l1.56-2.87c2.59-5,40.06-93.42,40.06-94.55s-8.61-16.28-45.87-80.82l-13.91-24.07L648.94,591C562.9,590.88,492.53,591,492.53,591.19Z"/></g></g></g></svg>