<svg width="457" height="420" viewBox="0 0 457 420" fill="none" xmlns="http://www.w3.org/2000/svg">
<path fill-rule="evenodd" clip-rule="evenodd" d="M238.593 65.592C360.77 65.592 429.494 110.139 452.702 197.452C475.91 284.765 388.231 296.595 376.698 348.922C365.165 401.249 263.589 435.734 174.188 411.978C84.7866 388.221 6.56263 305.457 0.409626 236.486C-5.74237 167.516 56.6486 65.592 238.593 65.592Z" fill="#E0EBFF"/>
<path d="M233.093 383.155C344.598 383.155 407.319 336.526 428.499 245.132C449.679 153.738 369.659 141.356 359.134 86.584C348.609 31.812 255.905 -4.28499 174.313 20.582C92.7216 45.449 21.3296 132.081 15.7146 204.275C10.0996 276.469 67.0406 383.155 233.093 383.155Z" fill="#F7F7F7"/>
<mask id="mask0_2_826" style="mask-type:luminance" maskUnits="userSpaceOnUse" x="15" y="12" width="418" height="372">
<path d="M233.093 383.155C344.598 383.155 407.319 336.526 428.499 245.132C449.679 153.738 369.659 141.356 359.134 86.584C348.609 31.812 255.905 -4.28499 174.313 20.582C92.7216 45.449 21.3296 132.081 15.7146 204.275C10.0996 276.469 67.0406 383.155 233.093 383.155Z" fill="white"/>
</mask>
<g mask="url(#mask0_2_826)">
<path opacity="0.64" d="M7.82062 205.993H24.5166V229.702H40.5446V181.616H57.2416V209.969H83.9556V171.599L99.6506 155.904H121.356V185.623H142.059V155.904H342.416V177.212H363.119V159.577H385.158V189.631H404.526V223.024L414.544 233.042V247.735H442.594C442.594 247.735 526.744 362.606 379.148 375.295C231.552 387.984 138.72 391.324 121.356 390.656C103.992 389.988 50.5626 369.285 50.5626 369.285L15.3406 342.571C15.3406 342.571 1.14162 319.864 -2.86538 313.853C-6.87238 307.842 5.81662 202.989 5.81662 202.989" fill="#E2E2E2"/>
</g>
<mask id="mask1_2_826" style="mask-type:luminance" maskUnits="userSpaceOnUse" x="15" y="12" width="418" height="372">
<path d="M233.093 383.155C344.598 383.155 407.319 336.526 428.499 245.132C449.679 153.738 369.659 141.356 359.134 86.584C348.609 31.812 255.905 -4.28499 174.313 20.582C92.7216 45.449 21.3296 132.081 15.7146 204.275C10.0996 276.469 67.0406 383.155 233.093 383.155Z" fill="white"/>
</mask>
<g mask="url(#mask1_2_826)">
<path d="M327.392 333.134H139.763C133.17 333.134 127.825 327.789 127.825 321.196V212.433C127.825 205.84 133.17 200.495 139.763 200.495H327.392C333.985 200.495 339.33 205.84 339.33 212.433V321.196C339.33 327.789 333.985 333.134 327.392 333.134Z" fill="#262F38"/>
<path d="M339.33 333.134H127.824L103.802 345.225H363.353L339.33 333.134Z" fill="#262F38"/>
<path d="M116.447 342.222L128.537 336.137H338.617L350.708 342.222H116.447Z" fill="#999999"/>
<path d="M353.072 356.45H114.082C108.404 356.45 103.801 351.847 103.801 346.169V345.225H363.352V346.169C363.353 351.847 358.75 356.45 353.072 356.45Z" fill="#1E262D"/>
<path d="M328.85 211.704H138.304V321.923H328.85V211.704Z" fill="#0F4FDF"/>
<path d="M150.961 329.105V144.044C150.961 138.502 155.454 134.009 160.996 134.009H305.189C310.731 134.009 315.224 138.502 315.224 144.044V329.105C315.224 334.647 310.731 339.14 305.189 339.14H160.996C155.454 339.14 150.961 334.647 150.961 329.105Z" fill="#BABABA"/>
<path d="M309.219 140.014H156.967V333.134H309.219V140.014Z" fill="#DADADA"/>
<path d="M271.521 179.256H195.633V185.327H271.521V179.256Z" fill="#999999"/>
<path d="M271.521 216.219H195.633V222.29H271.521V216.219Z" fill="#999999"/>
<path d="M271.521 253.181H195.633V259.252H271.521V253.181Z" fill="#999999"/>
<path d="M271.521 290.144H195.633V296.215H271.521V290.144Z" fill="#999999"/>
<path d="M177.985 192.994C183.895 192.994 188.687 188.203 188.687 182.292C188.687 176.381 183.895 171.59 177.985 171.59C172.074 171.59 167.283 176.381 167.283 182.292C167.283 188.203 172.074 192.994 177.985 192.994Z" fill="#39AB68"/>
<path d="M177.193 187.076C177.187 187.076 177.18 187.076 177.174 187.076C176.615 187.07 176.083 186.828 175.712 186.411L172.105 182.356C171.738 181.943 171.775 181.312 172.187 180.944C172.599 180.576 173.232 180.614 173.599 181.027L177.207 185.083L183.603 178.127C183.978 177.721 184.61 177.698 185.016 178.071C185.421 178.446 185.447 179.079 185.072 179.485L178.648 186.441C178.274 186.845 177.744 187.076 177.193 187.076Z" fill="white"/>
<path d="M185.549 226.747C189.729 222.568 189.729 215.791 185.549 211.612C181.37 207.433 174.594 207.433 170.414 211.612C166.235 215.791 166.235 222.568 170.414 226.747C174.594 230.926 181.37 230.926 185.549 226.747Z" fill="#39AB68"/>
<path d="M177.194 223.964C177.187 223.964 177.181 223.964 177.174 223.964C176.615 223.959 176.083 223.716 175.712 223.299L172.105 219.244C171.738 218.831 171.775 218.199 172.187 217.832C172.599 217.464 173.232 217.502 173.599 217.914L177.207 221.97L183.603 215.015C183.978 214.609 184.61 214.584 185.016 214.959C185.421 215.333 185.447 215.966 185.072 216.372L178.648 223.327C178.275 223.732 177.745 223.964 177.194 223.964Z" fill="white"/>
<path d="M177.985 266.77C183.895 266.77 188.687 261.979 188.687 256.068C188.687 250.157 183.895 245.366 177.985 245.366C172.074 245.366 167.283 250.157 167.283 256.068C167.283 261.979 172.074 266.77 177.985 266.77Z" fill="#39AB68"/>
<path d="M177.194 260.852C177.187 260.852 177.181 260.852 177.174 260.852C176.616 260.846 176.083 260.604 175.713 260.188L172.105 256.132C171.738 255.719 171.775 255.087 172.187 254.72C172.599 254.351 173.232 254.39 173.599 254.802L177.207 258.858L183.603 251.902C183.978 251.497 184.61 251.471 185.016 251.846C185.421 252.22 185.447 252.853 185.072 253.259L178.648 260.215C178.275 260.621 177.744 260.852 177.194 260.852Z" fill="white"/>
<path d="M188.393 295.44C189.751 289.688 186.189 283.924 180.437 282.566C174.685 281.208 168.921 284.77 167.562 290.522C166.204 296.274 169.766 302.038 175.518 303.396C181.27 304.754 187.035 301.193 188.393 295.44Z" fill="#39AB68"/>
<path d="M177.193 297.74C177.186 297.74 177.18 297.74 177.173 297.74C176.614 297.734 176.082 297.492 175.712 297.075L172.105 293.02C171.738 292.607 171.775 291.975 172.187 291.608C172.599 291.24 173.232 291.278 173.599 291.69L177.207 295.746L183.603 288.791C183.978 288.386 184.61 288.361 185.016 288.735C185.421 289.109 185.447 289.742 185.072 290.148L178.648 297.103C178.274 297.509 177.744 297.74 177.193 297.74Z" fill="white"/>
<path d="M323.342 256.604L313.339 248.063L301.615 256.604V191.151H323.342V256.604Z" fill="#F74D57"/>
<path d="M317.26 160.899C318.817 151.07 306.14 151.07 307.697 160.899C306.14 151.07 294.084 154.987 298.602 163.854C294.084 154.987 283.828 162.438 290.865 169.475C283.828 162.438 276.377 172.694 285.244 177.212C276.377 172.694 272.46 184.75 282.289 186.307C272.46 184.75 272.46 197.427 282.289 195.87C272.46 197.427 276.377 209.483 285.244 204.965C276.377 209.483 283.828 219.739 290.865 212.702C283.828 219.739 294.084 227.19 298.602 218.323C294.084 227.19 306.14 231.108 307.697 221.278C306.14 231.107 318.817 231.107 317.26 221.278C318.817 231.107 330.873 227.19 326.355 218.323C330.873 227.19 341.129 219.739 334.092 212.702C341.129 219.739 348.58 209.483 339.713 204.965C348.58 209.483 352.498 197.427 342.668 195.87C352.497 197.427 352.497 184.75 342.668 186.307C352.497 184.75 348.58 172.694 339.713 177.212C348.58 172.694 341.129 162.438 334.092 169.475C341.129 162.438 330.873 154.987 326.355 163.854C330.873 154.987 318.817 151.07 317.26 160.899Z" fill="#CC3644"/>
<path d="M312.478 219.646C328.249 219.646 341.035 206.861 341.035 191.089C341.035 175.317 328.249 162.532 312.478 162.532C296.706 162.532 283.921 175.317 283.921 191.089C283.921 206.861 296.706 219.646 312.478 219.646Z" fill="#F74D57"/>
<path d="M304.596 187.681V180.46H305.706V187.681H304.596ZM305.161 179.256C304.944 179.256 304.758 179.182 304.601 179.035C304.448 178.888 304.371 178.711 304.371 178.504C304.371 178.297 304.448 178.12 304.601 177.973C304.758 177.825 304.944 177.752 305.161 177.752C305.377 177.752 305.562 177.825 305.715 177.973C305.872 178.12 305.95 178.297 305.95 178.504C305.95 178.711 305.872 178.888 305.715 179.035C305.562 179.182 305.377 179.256 305.161 179.256ZM312.853 182.077L311.856 182.359C311.794 182.193 311.701 182.031 311.579 181.875C311.46 181.715 311.297 181.583 311.09 181.48C310.883 181.376 310.618 181.325 310.296 181.325C309.854 181.325 309.485 181.426 309.191 181.63C308.899 181.831 308.754 182.086 308.754 182.397C308.754 182.672 308.854 182.89 309.054 183.05C309.255 183.21 309.568 183.343 309.995 183.45L311.067 183.713C311.712 183.87 312.193 184.109 312.51 184.432C312.826 184.752 312.985 185.164 312.985 185.669C312.985 186.082 312.866 186.452 312.627 186.778C312.392 187.104 312.063 187.361 311.64 187.549C311.217 187.737 310.725 187.831 310.164 187.831C309.427 187.831 308.818 187.671 308.335 187.352C307.852 187.032 307.547 186.565 307.418 185.951L308.471 185.687C308.572 186.076 308.761 186.368 309.04 186.562C309.322 186.756 309.691 186.853 310.145 186.853C310.662 186.853 311.073 186.744 311.377 186.524C311.684 186.302 311.838 186.035 311.838 185.725C311.838 185.474 311.75 185.264 311.574 185.095C311.399 184.923 311.129 184.794 310.766 184.71L309.562 184.427C308.901 184.271 308.415 184.028 308.105 183.699C307.798 183.367 307.644 182.951 307.644 182.453C307.644 182.045 307.758 181.685 307.987 181.372C308.219 181.058 308.534 180.812 308.932 180.634C309.333 180.455 309.788 180.366 310.296 180.366C311.01 180.366 311.571 180.522 311.979 180.836C312.389 181.149 312.681 181.563 312.853 182.077ZM317.588 187.831C316.937 187.831 316.365 187.676 315.872 187.366C315.384 187.056 315.001 186.621 314.725 186.064C314.453 185.506 314.316 184.854 314.316 184.108C314.316 183.356 314.453 182.699 314.725 182.138C315.001 181.577 315.384 181.141 315.872 180.831C316.365 180.521 316.937 180.366 317.588 180.366C318.24 180.366 318.811 180.521 319.3 180.831C319.792 181.141 320.174 181.577 320.447 182.138C320.723 182.699 320.861 183.356 320.861 184.108C320.861 184.854 320.723 185.506 320.447 186.064C320.174 186.621 319.792 187.056 319.3 187.366C318.811 187.676 318.24 187.831 317.588 187.831ZM317.588 186.835C318.084 186.835 318.491 186.708 318.811 186.454C319.13 186.2 319.367 185.866 319.521 185.452C319.674 185.039 319.751 184.59 319.751 184.108C319.751 183.625 319.674 183.175 319.521 182.759C319.367 182.342 319.13 182.005 318.811 181.748C318.491 181.491 318.084 181.362 317.588 181.362C317.093 181.362 316.686 181.491 316.366 181.748C316.046 182.005 315.81 182.342 315.656 182.759C315.503 183.175 315.426 183.625 315.426 184.108C315.426 184.59 315.503 185.039 315.656 185.452C315.81 185.866 316.046 186.2 316.366 186.454C316.686 186.708 317.093 186.835 317.588 186.835Z" fill="white"/>
<path d="M301.203 193.808C301.598 193.811 301.993 193.886 302.388 194.034C302.782 194.181 303.143 194.425 303.469 194.767C303.795 195.105 304.057 195.568 304.254 196.154C304.451 196.74 304.55 197.475 304.55 198.359C304.55 199.214 304.469 199.974 304.306 200.639C304.146 201.3 303.914 201.858 303.61 202.313C303.309 202.767 302.942 203.112 302.51 203.347C302.08 203.582 301.595 203.699 301.052 203.699C300.513 203.699 300.032 203.593 299.609 203.38C299.189 203.163 298.844 202.864 298.575 202.482C298.308 202.096 298.138 201.65 298.062 201.142H299.209C299.313 201.584 299.518 201.949 299.825 202.237C300.136 202.523 300.545 202.665 301.052 202.665C301.795 202.665 302.381 202.341 302.811 201.692C303.243 201.043 303.459 200.126 303.459 198.942H303.384C303.209 199.205 303 199.432 302.759 199.623C302.518 199.815 302.25 199.962 301.955 200.065C301.66 200.169 301.347 200.22 301.015 200.22C300.463 200.22 299.957 200.084 299.496 199.811C299.039 199.536 298.672 199.158 298.396 198.678C298.123 198.196 297.987 197.644 297.987 197.024C297.987 196.434 298.119 195.895 298.382 195.406C298.648 194.914 299.021 194.522 299.501 194.231C299.984 193.94 300.551 193.798 301.203 193.808ZM301.203 194.842C300.808 194.842 300.452 194.941 300.136 195.138C299.822 195.333 299.573 195.596 299.388 195.928C299.206 196.257 299.115 196.622 299.115 197.024C299.115 197.425 299.203 197.79 299.379 198.119C299.557 198.445 299.8 198.705 300.107 198.899C300.418 199.091 300.77 199.186 301.165 199.186C301.463 199.186 301.74 199.128 301.997 199.012C302.254 198.893 302.478 198.732 302.67 198.528C302.864 198.321 303.016 198.088 303.126 197.827C303.235 197.564 303.29 197.29 303.29 197.005C303.29 196.629 303.199 196.276 303.018 195.947C302.839 195.618 302.591 195.351 302.275 195.148C301.961 194.944 301.604 194.842 301.203 194.842ZM309.784 193.94V203.568H308.618V195.162H308.562L306.211 196.723V195.538L308.618 193.94H309.784ZM315.693 203.699C314.985 203.699 314.382 203.507 313.883 203.121C313.385 202.733 313.004 202.17 312.741 201.433C312.478 200.694 312.346 199.8 312.346 198.754C312.346 197.713 312.478 196.825 312.741 196.088C313.007 195.348 313.39 194.784 313.888 194.396C314.39 194.004 314.991 193.808 315.693 193.808C316.396 193.808 316.996 194.004 317.494 194.396C317.996 194.784 318.378 195.348 318.641 196.088C318.908 196.825 319.041 197.713 319.041 198.754C319.041 199.8 318.909 200.694 318.646 201.433C318.383 202.17 318.002 202.733 317.503 203.121C317.005 203.507 316.402 203.699 315.693 203.699ZM315.693 202.665C316.396 202.665 316.941 202.327 317.33 201.65C317.718 200.973 317.912 200.007 317.912 198.754C317.912 197.92 317.823 197.21 317.645 196.624C317.469 196.038 317.215 195.591 316.883 195.284C316.554 194.977 316.157 194.823 315.693 194.823C314.998 194.823 314.454 195.167 314.062 195.853C313.67 196.536 313.474 197.503 313.474 198.754C313.474 199.587 313.562 200.296 313.738 200.879C313.913 201.462 314.166 201.905 314.495 202.209C314.827 202.513 315.226 202.665 315.693 202.665ZM323.968 203.699C323.259 203.699 322.656 203.507 322.158 203.121C321.659 202.733 321.279 202.17 321.015 201.433C320.752 200.694 320.62 199.8 320.62 198.754C320.62 197.713 320.752 196.825 321.015 196.088C321.282 195.348 321.664 194.784 322.162 194.396C322.664 194.004 323.266 193.808 323.968 193.808C324.67 193.808 325.27 194.004 325.768 194.396C326.27 194.784 326.652 195.348 326.915 196.088C327.182 196.825 327.315 197.713 327.315 198.754C327.315 199.8 327.183 200.694 326.92 201.433C326.657 202.17 326.276 202.733 325.778 203.121C325.279 203.507 324.676 203.699 323.968 203.699ZM323.968 202.665C324.67 202.665 325.215 202.327 325.604 201.65C325.992 200.973 326.187 200.007 326.187 198.754C326.187 197.92 326.097 197.21 325.919 196.624C325.743 196.038 325.489 195.591 325.157 195.284C324.828 194.977 324.432 194.823 323.968 194.823C323.272 194.823 322.728 195.167 322.336 195.853C321.945 196.536 321.749 197.503 321.749 198.754C321.749 199.587 321.837 200.296 322.012 200.879C322.188 201.462 322.44 201.905 322.769 202.209C323.101 202.513 323.501 202.665 323.968 202.665Z" fill="white"/>
<path d="M245.131 130.138C245.131 121.424 238.062 114.361 229.348 114.361C220.634 114.361 213.571 121.424 213.571 130.138H195.512V146.335H263.189V130.138H245.131ZM229.348 138.239C224.88 138.239 221.252 134.612 221.252 130.137C221.252 125.669 224.879 122.041 229.348 122.041C233.822 122.041 237.449 125.668 237.449 130.137C237.45 134.612 233.823 138.239 229.348 138.239Z" fill="#0F4FDF"/>
<path d="M103.235 99.429C108.882 99.177 114.475 98.001 118.303 94.403C120.38 92.451 122.531 90.697 122.531 87.95C122.531 82.94 123.041 77.713 123.407 74.608C123.611 72.881 125.544 71.922 127.021 72.84C128.542 73.785 130.144 75.588 130.713 79.032C131.041 81.018 130.027 92.884 130.027 92.884C130.027 92.884 149.484 92.048 150.8 95.808C152.117 99.568 144.886 101.014 144.886 101.014C144.886 101.014 146.333 112.916 143.072 117.225C136.594 125.784 117.408 123.252 103.235 122.98V99.429Z" fill="#E2E2E2"/>
<path d="M111.299 96.416H101.567V125.785H111.299V96.416Z" fill="#0F4FDF"/>
<path d="M108.668 120.746C108.668 121.98 107.667 122.981 106.433 122.981C105.199 122.981 104.198 121.98 104.198 120.746C104.198 119.512 105.199 118.511 106.433 118.511C107.667 118.511 108.668 119.512 108.668 120.746Z" fill="#E2E2E2"/>
<path d="M161.555 249.318C164.102 245.464 166.974 238.136 166.81 232.322C166.647 226.508 177.096 225.085 179.964 221.969C182.832 218.854 185.445 216.918 186.876 218.52C188.307 220.122 181.489 227.981 178.659 229.059C178.659 229.059 183.922 238.763 184.755 242.122C185.588 245.481 181.286 252.05 179.685 252.217C178.084 252.384 178.929 249.014 178.929 249.014C178.929 249.014 172.565 258.627 167.739 258.237C162.912 257.849 161.555 249.318 161.555 249.318Z" fill="#F3B8A5"/>
<path d="M163.301 246.209C169.195 250.41 176.205 252.581 176.205 252.581C176.205 252.581 173.592 255.995 171.633 257.033C169.674 258.071 162.523 248.133 162.523 248.133L163.301 246.209Z" fill="#DD938A"/>
<path d="M91.4186 253.191L88.8066 261.202L77.1386 256.152L82.7116 238.04L91.4186 253.191Z" fill="#F3B8A5"/>
<path d="M90.6456 255.561C84.1356 253.353 79.2556 248.914 79.2556 248.914L83.0976 239.231L92.0936 251.672L90.6456 255.561Z" fill="#DD938A"/>
<path d="M107.665 224.518C107.586 231.296 114.749 241.65 114.749 241.65L108.93 243.667L106.927 256.965C106.927 256.965 91.4406 255.552 84.5756 247.948C77.7116 240.343 83.5536 224.609 83.5536 224.609C83.5536 224.609 88.0666 218.943 89.3206 218.801C90.5756 218.659 104.708 219.975 104.708 219.975L107.665 224.518Z" fill="#F3B8A5"/>
<path d="M113.712 222.293C107.262 224.983 89.8516 225.503 89.8516 225.503L87.4116 240.483L79.2516 248.913C68.6316 240.123 64.1816 232.303 64.0816 225.093C64.0516 223.053 64.2416 221.113 64.6716 219.273C66.1516 212.653 70.5216 207.393 78.0116 204.253C87.5916 200.253 98.5616 203.213 102.392 204.253C106.222 205.303 101.522 197.293 97.1616 198.333C92.8116 199.383 102.742 190.313 112.662 198.243C116.822 201.573 118.812 205.853 119.242 209.923C119.842 215.543 117.452 220.733 113.712 222.293Z" fill="#262F38"/>
<path opacity="0.72" d="M113.712 222.293C107.262 224.983 89.8516 225.503 89.8516 225.503L87.4116 240.483L79.2516 248.913C68.6316 240.123 64.1816 232.303 64.0816 225.093C64.0516 223.053 64.2416 221.113 64.6716 219.273C62.9316 230.323 74.1616 235.153 73.8716 229.883C73.5916 224.603 77.5616 217.293 90.4716 219.183C103.382 221.073 108.062 218.793 108.062 218.793C108.062 218.793 100.972 217.853 104.662 214.873C108.152 212.063 114.172 217.623 119.242 209.923C119.842 215.543 117.452 220.733 113.712 222.293Z" fill="#191E23"/>
<path d="M89.1546 236.125C88.1096 228.114 83.5816 226.895 81.3176 230.03C79.0536 233.165 80.6206 245.877 87.7606 243.091C94.9016 240.304 89.1546 236.125 89.1546 236.125Z" fill="#F3B8A5"/>
<path d="M105.709 245.74C103.038 245.727 101.074 243.838 101.074 243.838C101.074 243.838 101.183 248.769 104.46 248.914L105.709 245.74Z" fill="white"/>
<path d="M104.704 230.483C104.993 231.763 105.677 232.699 106.231 232.574C106.786 232.449 107.001 231.31 106.712 230.03C106.423 228.75 105.739 227.814 105.185 227.939C104.631 228.064 104.415 229.203 104.704 230.483Z" fill="#262F38"/>
<path d="M86.5976 236.574C85.2126 231.646 83.5516 232.661 83.1356 235.962C82.7206 239.262 85.8486 240.231 85.8486 240.231L86.5976 236.574Z" fill="#DD938A"/>
<path d="M171.632 257.033C171.632 257.033 165.752 271.213 159.072 286.443C159.062 286.453 159.052 286.473 159.052 286.483C152.372 301.713 144.902 317.973 141.702 322.233C136.072 329.723 119.162 319.143 104.092 308.493C101.992 307.003 99.9216 305.523 97.9316 304.083C96.7616 303.243 95.6216 302.383 94.5016 301.503C94.4916 301.503 94.4916 301.503 94.4916 301.503C79.9816 290.163 69.8216 276.673 69.8216 276.673L68.7716 265.123L68.5716 262.983C69.3016 262.913 70.0116 262.843 70.7016 262.783C81.1016 261.813 86.9716 261.613 87.8016 263.003C88.6916 264.473 90.8716 269.153 90.8716 269.153C90.8716 269.153 92.1416 270.083 94.1916 271.613C101.592 277.123 119.162 290.423 123.662 295.703L162.073 247.695L171.632 257.033Z" fill="#0F4FDF"/>
<path d="M94.1916 271.613C94.2416 273.283 94.6016 286.233 94.5016 301.503C94.5016 301.503 94.5016 301.513 94.5016 301.523C94.4116 314.103 94.0116 328.273 92.8616 339.003C92.4316 343.113 91.8816 346.713 91.2016 349.533C86.4416 369.323 29.2316 328.193 29.2316 328.193C29.2316 328.193 30.7016 324.013 33.2816 317.643C39.5516 302.183 52.3216 273.843 66.3416 261.203C66.3416 261.203 72.1316 253.013 74.1116 253.283C76.9516 253.573 80.6316 254.463 84.1616 255.563C90.2316 257.453 95.8716 259.983 96.1216 261.203C96.5016 263.133 94.1916 271.433 94.1916 271.433C94.1916 271.433 94.1916 271.493 94.1916 271.613Z" fill="#0F4FDF"/>
<path d="M94.5016 301.523C94.4116 314.103 94.0116 328.273 92.8616 339.003C92.3816 339.093 92.0016 352.543 92.0016 352.543C92.0016 352.543 68.7416 335.593 59.8916 331.463C51.0516 327.333 37.7916 321.143 33.2816 317.643C39.5516 302.183 52.3216 273.843 66.3416 261.203C66.3416 261.203 72.1316 253.013 74.1116 253.283C76.9516 253.573 80.6316 254.463 84.1616 255.563C85.5516 259.533 74.1116 253.283 72.5416 259.253C72.2516 260.373 71.6016 261.543 70.7016 262.783C70.1416 263.543 69.4916 264.323 68.7716 265.123C64.4316 269.983 57.5216 275.663 53.4116 282.253C47.5116 291.703 50.7616 300.513 64.0816 311.123C77.4016 321.733 88.4816 318.203 86.6016 309.063C84.7116 299.923 72.2716 290.493 73.1616 286.443C74.0416 282.403 78.7616 289.603 94.4916 301.503C94.4916 301.503 94.4916 301.513 94.5016 301.523Z" fill="#0E3F96"/>
<path d="M159.052 286.483C152.372 301.713 144.902 317.973 141.702 322.233C136.072 329.723 119.162 319.143 104.092 308.493C97.7416 301.893 94.6116 297.673 101.092 301.303C109.872 306.213 114.532 315.553 132.112 316.133C149.682 316.723 148.322 305.253 159.052 286.483Z" fill="#0E3F96"/>
<path d="M382.002 270.269C379.412 275.439 356.162 288.909 358.752 280.419C359.172 279.049 359.312 277.849 359.222 276.749C358.742 271.019 351.772 267.999 342.322 258.089C341.112 256.829 340.042 255.349 339.112 253.719C339.102 253.699 339.092 253.679 339.082 253.669C331.292 240.079 332.812 215.639 344.172 209.429C344.172 209.429 371.482 214.169 375.022 216.519C378.552 218.859 382.732 234.839 382.732 234.839C382.732 234.839 384.582 265.099 382.002 270.269Z" fill="#F7B313"/>
<path d="M372.202 262.509C372.202 262.509 363.092 273.409 362.322 275.589C362.092 276.259 360.842 276.599 359.222 276.749C358.742 271.019 351.772 267.999 342.322 258.089C341.112 256.829 340.042 255.349 339.112 253.719C342.602 259.569 355.092 268.159 355.912 265.399C356.742 262.639 349.982 261.679 350.602 259.749C351.222 257.809 359.782 259.879 350.562 253.939C341.342 247.999 335.222 223.819 342.002 214.949L357.572 220.019L371.542 242.569L372.202 262.509Z" fill="#F47E14"/>
<path d="M359.574 247.347L363.35 258.928L375.018 253.878L369.445 235.767L359.574 247.347Z" fill="#F3B8A5"/>
<path d="M370.529 238.906C369.89 244.7 361.579 253.498 361.579 253.498L360.154 249.127L366.769 238.905L369.249 235.009L370.529 238.906Z" fill="#DD938A"/>
<path d="M344.492 222.244C344.571 229.022 337.408 239.376 337.408 239.376L343.227 241.394L345.394 255.777C345.394 255.777 359.445 251.707 366.309 244.103C373.173 236.498 368.603 222.336 368.603 222.336C368.603 222.336 364.09 216.67 362.836 216.528C361.581 216.386 347.449 217.702 347.449 217.702L344.492 222.244Z" fill="#F3B8A5"/>
<path d="M347.453 228.21C347.164 229.49 346.48 230.426 345.926 230.301C345.371 230.176 345.156 229.037 345.445 227.757C345.734 226.477 346.418 225.541 346.972 225.666C347.526 225.79 347.742 226.93 347.453 228.21Z" fill="#262F38"/>
<path d="M347.307 243.883C351.551 242.038 353.751 237.793 353.751 237.793C353.751 237.793 355.242 245.46 348.784 247.347L347.307 243.883Z" fill="white"/>
<path d="M288.709 281.718C284.709 279.406 278.868 274.131 276.419 268.855C273.97 263.58 263.984 266.971 260.027 265.464C256.07 263.957 252.867 263.391 252.302 265.464C251.737 267.537 261.346 271.525 264.36 271.226C264.36 271.226 263.983 282.259 264.737 285.637C265.491 289.015 272.273 292.972 273.781 292.406C275.288 291.841 273.027 289.203 273.027 289.203C273.027 289.203 283.013 294.964 287.158 292.46C291.303 289.958 288.709 281.718 288.709 281.718Z" fill="#F3B8A5"/>
<path d="M285.487 279.507C283.295 287.318 278.432 291.73 278.432 291.73C278.432 291.73 280.516 293.406 284.752 292.877C288.988 292.348 287.317 281.091 287.317 281.091" fill="#DD938A"/>
<path d="M383.012 265.239C383.012 265.239 379.432 284.519 370.092 302.319C365.582 310.919 360.412 320.669 355.182 327.919C355.022 328.169 354.842 328.409 354.662 328.639C349.252 335.979 343.802 340.499 339.022 338.109C333.222 335.209 313.832 319.219 299.512 307.119L298.852 306.559L298.842 306.549C289.922 299.009 283.132 293.119 283.132 293.119L287.312 281.089L343.322 306.309C345.462 297.709 360.812 267.909 360.812 267.909C360.812 267.909 360.682 262.749 360.812 261.029C360.952 259.309 367.002 256.659 378.012 252.429L383.012 265.239Z" fill="#F74D57"/>
<path d="M354.662 328.639C349.252 335.979 343.802 340.499 339.022 338.109C333.222 335.209 313.832 319.219 299.512 307.119L298.852 306.559C299.292 306.809 313.442 315.059 325.172 324.739C336.712 334.259 349.062 335.919 354.662 328.639Z" fill="#CC3644"/>
<path d="M426.382 332.109L388.692 354.179C388.692 354.179 364.732 364.189 364.042 359.419C363.582 356.179 361.802 336.549 360.632 318.429C360.072 309.839 359.652 301.589 359.572 295.589L378.012 252.429C378.012 252.429 381.282 251.549 386.732 258.929C387.662 260.189 389.442 263.169 391.742 267.229C402.892 286.909 426.382 332.109 426.382 332.109Z" fill="#F74D57"/>
<path d="M426.382 332.109L388.692 354.179C388.692 354.179 364.732 364.189 364.042 359.419C363.582 356.179 361.802 336.549 360.632 318.429C369.372 308.059 375.352 293.259 378.012 295.589C380.772 298.009 370.122 319.489 365.762 324.589C361.412 329.679 363.632 338.659 375.022 326.779C386.402 314.899 398.282 305.679 398.912 295.589C399.532 285.509 377.332 291.149 372.962 283.949C369.792 278.739 382.872 271.209 391.742 267.229C402.892 286.909 426.382 332.109 426.382 332.109Z" fill="#CC3644"/>
<path d="M409.912 272.529C401.242 290.239 380.762 286.369 371.932 281.749C366.642 278.989 363.582 273.639 363.382 267.939C363.232 264.119 364.382 260.139 367.002 256.659C373.552 247.979 371.162 229.709 364.212 229.819C363.302 229.839 362.302 229.869 361.232 229.889C354.062 229.999 343.962 229.199 341.842 213.949C341.032 208.139 347.582 197.469 365.442 195.209C378.922 193.499 391.132 203.149 393.482 213.219C393.482 213.229 393.482 213.229 393.482 213.229C393.682 214.049 393.802 214.869 393.862 215.689C394.602 226.579 384.082 234.509 394.602 237.229C405.112 239.959 418.582 254.809 409.912 272.529Z" fill="#F7B313"/>
<path d="M360.45 232.053C361.495 224.042 366.023 222.823 368.287 225.958C370.551 229.093 368.984 241.805 361.844 239.019C354.703 236.232 360.45 232.053 360.45 232.053Z" fill="#F3B8A5"/>
<path d="M362.326 231.217C362.967 228.121 365.422 228.121 365.743 230.043C366.063 231.965 362.967 235.767 362.967 235.767L362.326 231.217Z" fill="#DD938A"/>
<path d="M409.912 272.529C401.242 290.239 380.762 286.369 371.932 281.749C366.642 278.989 363.582 273.639 363.382 267.939C368.012 275.659 386.172 279.259 387.522 276.749C389.082 273.859 374.612 272.519 376.392 267.229C378.172 261.939 399.092 274.299 403.992 264.539C408.892 254.779 406.402 244.989 396.872 242.569C387.342 240.159 383.072 243.579 383.372 237.789C383.682 232.009 393.082 226.439 393.862 215.689C394.602 226.579 384.082 234.509 394.602 237.229C405.112 239.959 418.582 254.809 409.912 272.529Z" fill="#F47E14"/>
</g>
<path d="M273.386 106.483L264.243 111.289L265.989 101.108L258.592 93.898L268.814 92.413L273.386 83.15L277.957 92.413L288.179 93.898L280.783 101.108L282.529 111.289L273.386 106.483Z" fill="#F7B313"/>
<path d="M194.692 106.483L185.548 111.289L187.295 101.108L179.898 93.898L190.12 92.413L194.692 83.15L199.263 92.413L209.485 93.898L202.088 101.108L203.834 111.289L194.692 106.483Z" fill="#F7B313"/>
<path d="M231.901 90.882L224.962 94.53L226.287 86.804L220.674 81.332L228.431 80.205L231.901 73.175L235.37 80.205L243.128 81.332L237.514 86.804L238.839 94.53L231.901 90.882Z" fill="#F7B313"/>
<path fill-rule="evenodd" clip-rule="evenodd" d="M36.2676 33.434C39.3336 33.434 42.2026 34.399 44.6306 36.079C47.2436 31.703 52.0226 28.777 57.4906 28.777C65.0866 28.777 71.3606 34.431 72.3376 41.759C74.8936 41.855 77.2506 42.711 79.1986 44.11C80.1506 43.88 81.1406 43.759 82.1626 43.759C86.7686 43.759 90.8126 46.225 93.0296 49.905H83.6836H71.2956H71.1486H59.9946H52.0406H43.8316H20.5006C20.9346 40.723 27.8346 33.434 36.2676 33.434Z" fill="#E0EBFF"/>
<path fill-rule="evenodd" clip-rule="evenodd" d="M389.214 52.931C392.28 52.931 395.149 53.896 397.576 55.576C400.189 51.2 404.968 48.274 410.436 48.274C418.032 48.274 424.306 53.928 425.283 61.256C427.838 61.352 430.196 62.208 432.144 63.607C433.096 63.377 434.086 63.256 435.108 63.256C439.714 63.256 443.758 65.722 445.975 69.402H436.629H424.241H424.094H412.94H404.986H396.777H373.446C373.882 60.22 380.781 52.931 389.214 52.931Z" fill="#E0EBFF"/>
<path d="M58.9386 381.962C63.9583 381.962 68.0276 377.893 68.0276 372.873C68.0276 367.853 63.9583 363.784 58.9386 363.784C53.9189 363.784 49.8496 367.853 49.8496 372.873C49.8496 377.893 53.9189 381.962 58.9386 381.962Z" fill="#E0EBFF"/>
<path d="M36.6156 96.784C41.6353 96.784 45.7046 92.7147 45.7046 87.695C45.7046 82.6753 41.6353 78.606 36.6156 78.606C31.5959 78.606 27.5266 82.6753 27.5266 87.695C27.5266 92.7147 31.5959 96.784 36.6156 96.784Z" stroke="#E0EBFF" stroke-width="2" stroke-miterlimit="10"/>
<path d="M370.807 1L351.527 34.112" stroke="#E0EBFF" stroke-width="2" stroke-miterlimit="10"/>
<path d="M96.3056 6.483L115.35 26.371" stroke="#E0EBFF" stroke-width="2" stroke-miterlimit="10"/>
<path d="M128.198 1L136.54 16.427" stroke="#E0EBFF" stroke-width="2" stroke-miterlimit="10"/>
</svg>
