<svg width="1152" height="1012" viewBox="0 0 1152 1012" fill="none" xmlns="http://www.w3.org/2000/svg">
<path d="M1001.05 802.004C809.178 1004.53 521.152 1070.65 273.152 955.862C187.761 916.338 -3.69219 710.095 0.378166 555.795C0.455624 552.865 0.554055 549.911 0.674028 546.933C12.7855 246.909 197.208 91.3552 290.882 38.1442C419.479 -34.9049 606.743 0.432437 671.82 116.866C714.133 192.571 764.955 190.439 811.324 193.29C857.71 196.142 1101.56 237.279 1141.73 411.367C1179.05 573.12 1104.22 693.1 1001.05 802.004Z" fill="#CAFBFF"/>
<path d="M247.805 317.148C229.076 316.075 185.171 314.203 147.002 317.422C131.211 318.753 117.577 306.139 117.932 290.296C118.077 283.812 120.403 276.268 126.422 267.72C149.596 234.808 189.879 266.239 189.493 282.947C189.493 282.947 197.636 257.789 222.371 262.194C247.106 266.598 238.359 303.184 238.359 303.184C238.359 303.184 246.341 301.498 251.874 305.274C257.315 308.989 254.382 317.524 247.805 317.148Z" fill="white"/>
<path d="M451.483 365.51C451.483 365.51 414.44 304.267 325.573 320.149C325.573 320.149 385.399 408.872 451.483 365.51Z" fill="#3F9896"/>
<path d="M509.329 381.677C509.329 381.677 498.295 258.913 348.777 216.326C348.777 216.326 374.3 398.831 509.329 381.677Z" fill="#7FC6A6"/>
<path d="M304.241 146.93C324.411 145.866 393.531 142.951 440.797 149.958C446.928 150.867 450.833 143.519 446.592 139C444.111 136.356 439.879 134.203 432.763 133.705C432.763 133.705 435.214 89.5795 401.883 86.6565C363.656 83.3042 363.193 126.656 363.193 126.656C363.193 126.656 345.818 110.161 333.287 131.073C333.287 131.073 311.63 118.557 300.706 141.675C299.514 144.196 301.457 147.077 304.241 146.93Z" fill="white"/>
<path d="M900.087 463.735C892.768 470.635 886.756 478.58 882.163 487.208L858.028 485.342L853.783 501.341L849.538 517.34L871.424 527.684C871.135 537.453 872.418 547.334 875.353 556.955L856.964 572.704L865.276 587.019L873.587 601.334L896.381 593.171C903.281 600.49 911.226 606.502 919.854 611.095L917.988 635.231L933.987 639.476L949.986 643.721L960.33 621.834C970.1 622.123 979.981 620.84 989.601 617.905L1005.35 636.294L1019.66 627.982L1033.98 619.671L1025.82 596.877C1033.14 589.977 1039.15 582.032 1043.74 573.404L1067.88 575.27L1072.12 559.271L1076.37 543.273L1054.48 532.928C1054.77 523.158 1053.49 513.278 1050.55 503.657L1068.94 487.908L1060.63 473.593L1052.32 459.279L1029.52 467.441C1022.62 460.122 1014.68 454.11 1006.05 449.518L1007.92 425.381L991.917 421.136L975.918 416.891L965.574 438.778C955.804 438.489 945.923 439.772 936.303 442.708L920.554 424.319L906.239 432.63L891.924 440.941L900.087 463.735ZM995.907 477.672C1024.98 495.873 1033.79 534.192 1015.59 563.261C997.385 592.329 959.066 601.14 929.997 582.939C900.929 564.738 892.118 526.419 910.319 497.35C928.52 468.282 966.839 459.472 995.907 477.672Z" fill="#F7AB48"/>
<path d="M1052.55 458.654L1069.6 488.019L1051.14 503.827C1053.99 513.289 1055.28 523.083 1054.99 532.943C1054.98 533.225 1054.75 533.446 1054.47 533.438C1054.18 533.431 1053.96 533.194 1053.97 532.912C1054.26 523.052 1052.95 513.26 1050.06 503.805L1049.97 503.485L1068.28 487.795L1052.09 459.902L1029.38 468.034L1029.15 467.791C1022.37 460.599 1014.52 454.603 1005.81 449.968C1005.56 449.834 1005.47 449.525 1005.6 449.277C1005.73 449.028 1006.04 448.933 1006.29 449.066C1015 453.701 1022.86 459.682 1029.67 466.848L1052.55 458.654ZM992.237 420.737C992.39 420.86 992.465 421.066 992.411 421.267C992.339 421.539 992.059 421.702 991.786 421.63L976.199 417.494L965.893 439.298L965.559 439.288C955.7 438.997 945.907 440.312 936.452 443.196L936.132 443.294L920.442 424.974L892.549 441.169L900.681 463.877L900.438 464.107C893.245 470.889 887.248 478.742 882.615 487.448L882.458 487.743L858.412 485.883L850.032 517.471C849.959 517.743 849.679 517.906 849.407 517.834C849.133 517.761 848.972 517.481 849.044 517.209L857.642 484.799L881.87 486.673C886.481 478.084 892.408 470.322 899.494 463.594L891.3 440.713L920.664 423.663L936.473 442.122C945.828 439.304 955.508 438.005 965.254 438.258L975.637 416.288L992.048 420.642C992.12 420.661 992.183 420.694 992.237 420.737ZM1072.44 558.873C1072.59 558.995 1072.67 559.2 1072.62 559.402L1068.26 575.812L1044.03 573.939C1039.42 582.529 1033.49 590.291 1026.41 597.018L1034.6 619.899L1005.24 636.949L989.431 618.49C980.076 621.307 970.397 622.607 960.65 622.353L950.266 644.323L933.856 639.969C933.581 639.897 933.421 639.616 933.493 639.344C933.566 639.071 933.845 638.909 934.118 638.981L949.705 643.116L960.011 621.312L960.346 621.322C970.205 621.614 979.998 620.299 989.453 617.415L989.772 617.318L1005.46 635.637L1033.36 619.442L1025.22 596.733L1025.47 596.504C1032.66 589.724 1038.66 581.87 1043.29 573.163L1043.45 572.867L1067.49 574.727L1071.63 559.139C1071.7 558.866 1071.98 558.704 1072.25 558.776C1072.32 558.796 1072.39 558.829 1072.44 558.873ZM1015.91 562.863C1016.11 563.023 1016.16 563.31 1016.02 563.532C997.698 592.793 958.987 601.693 929.726 583.372C915.553 574.499 905.682 560.634 901.934 544.335C898.187 528.037 901.01 511.254 909.885 497.08C910.035 496.841 910.35 496.768 910.589 496.918C910.83 497.07 910.901 497.383 910.751 497.622C902.021 511.565 899.243 528.074 902.929 544.107C906.615 560.139 916.326 573.778 930.268 582.507C959.051 600.529 997.13 591.774 1015.15 562.991C1015.3 562.751 1015.62 562.679 1015.86 562.829C1015.87 562.839 1015.89 562.85 1015.91 562.863ZM875.674 556.557C875.698 556.577 875.721 556.598 875.742 556.623C875.925 556.838 875.9 557.16 875.686 557.343L857.62 572.816L873.816 600.709L896.524 592.577L896.753 592.82C903.534 600.013 911.387 606.009 920.094 610.644C920.343 610.774 920.438 611.086 920.305 611.335C920.173 611.584 919.864 611.678 919.614 611.545C910.906 606.911 903.044 600.93 896.239 593.764L873.359 601.958L856.309 572.593L875.022 556.568C875.211 556.405 875.486 556.406 875.674 556.557Z" fill="black"/>
<path d="M940.914 305.121C940.113 309.293 940.017 313.499 940.577 317.588L931.852 322.914L934.353 329.442L936.853 335.969L946.903 334.102C949.219 337.519 952.1 340.585 955.483 343.154L953.079 353.091L959.462 355.939L965.846 358.786L971.633 350.357C975.805 351.158 980.011 351.254 984.1 350.694L989.426 359.419L995.954 356.918L1002.48 354.418L1000.61 344.367C1004.03 342.051 1007.1 339.17 1009.67 335.787L1019.6 338.192L1022.45 331.808L1025.3 325.425L1016.87 319.637C1017.67 315.466 1017.77 311.26 1017.21 307.17L1025.93 301.844L1023.43 295.317L1020.93 288.789L1010.88 290.656C1008.56 287.239 1005.68 284.173 1002.3 281.605L1004.7 271.667L998.32 268.82L991.936 265.973L986.149 274.401C981.978 273.6 977.771 273.505 973.682 274.065L968.356 265.34L961.828 267.84L955.301 270.341L957.168 280.392C953.752 282.707 950.686 285.588 948.117 288.971L938.179 286.567L935.332 292.951L932.485 299.335L940.914 305.121ZM989.574 288.43C1002.8 294.33 1008.74 309.835 1002.84 323.062C996.941 336.289 981.436 342.228 968.209 336.329C954.982 330.429 949.043 314.924 954.942 301.697C960.842 288.471 976.347 282.531 989.574 288.43Z" fill="#4CB7D8"/>
<path d="M998.525 268.478C998.696 268.58 998.768 268.797 998.685 268.983C998.595 269.185 998.359 269.274 998.158 269.185L992.078 266.472L986.33 274.842L986.074 274.793C981.994 274.01 977.843 273.898 973.736 274.46L973.478 274.495L968.189 265.831L955.754 270.595L957.608 280.576L957.392 280.722C953.96 283.048 950.946 285.904 948.435 289.213C948.301 289.388 948.054 289.42 947.875 289.289C947.7 289.156 947.666 288.906 947.799 288.73C950.311 285.422 953.314 282.556 956.729 280.209L954.849 270.088L968.523 264.849L973.886 273.636C977.909 273.113 981.97 273.222 985.968 273.962L991.796 265.474L998.483 268.457C998.497 268.463 998.512 268.471 998.525 268.478ZM1021.18 288.337L1023.8 295.175C1023.88 295.38 1023.78 295.611 1023.57 295.69C1023.37 295.768 1023.14 295.666 1023.06 295.46L1020.68 289.243L1010.7 291.097L1010.55 290.881C1008.22 287.449 1005.37 284.435 1002.06 281.924C1001.88 281.79 1001.85 281.54 1001.98 281.365C1002.12 281.189 1002.36 281.153 1002.54 281.288C1005.85 283.8 1008.71 286.804 1011.06 290.218L1021.18 288.337ZM1017.41 306.828C1017.51 306.888 1017.58 306.991 1017.6 307.116C1018.16 311.223 1018.07 315.373 1017.31 319.456L1025.8 325.284L1019.83 338.657L1009.82 336.236C1007.34 339.457 1004.4 342.252 1001.05 344.55L1002.93 354.671L989.258 359.909L983.894 351.122C979.87 351.646 975.809 351.536 971.813 350.797L965.986 359.284L959.299 356.301C959.096 356.214 959.007 355.976 959.097 355.775C959.187 355.573 959.423 355.484 959.623 355.573L965.704 358.285L971.451 349.915L971.707 349.964C975.786 350.748 979.937 350.859 984.045 350.297L984.304 350.261L989.592 358.926L1002.03 354.163L1000.17 344.182L1000.39 344.036C1003.82 341.71 1006.83 338.854 1009.35 335.545L1009.5 335.337L1019.37 337.725L1024.8 325.564L1016.43 319.817L1016.48 319.56C1017.26 315.481 1017.37 311.33 1016.81 307.223C1016.78 307.005 1016.93 306.804 1017.15 306.774C1017.24 306.762 1017.33 306.783 1017.41 306.828ZM1003.05 322.719C1003.22 322.821 1003.29 323.038 1003.2 323.224C997.225 336.63 981.453 342.672 968.047 336.693C961.552 333.796 956.575 328.544 954.031 321.903C951.487 315.263 951.682 308.03 954.578 301.535C954.668 301.334 954.904 301.244 955.105 301.333C955.307 301.423 955.396 301.659 955.307 301.86C952.497 308.159 952.309 315.176 954.776 321.618C957.244 328.059 962.072 333.157 968.372 335.964C981.376 341.765 996.676 335.904 1002.48 322.899C1002.57 322.698 1002.8 322.608 1003 322.698C1003.02 322.704 1003.03 322.712 1003.05 322.719ZM935.537 292.608C935.709 292.71 935.78 292.926 935.697 293.113L932.985 299.194L941.354 304.941L941.305 305.197C940.522 309.277 940.41 313.428 940.972 317.535L941.008 317.793L932.343 323.082L937.107 335.517L947.088 333.663L947.234 333.879C949.56 337.311 952.416 340.325 955.724 342.836C955.9 342.97 955.934 343.22 955.801 343.396C955.668 343.57 955.419 343.604 955.242 343.472C951.934 340.959 949.068 337.957 946.721 334.542L936.599 336.422L931.361 322.747L940.148 317.383C939.624 313.361 939.734 309.299 940.473 305.302L931.986 299.474L934.968 292.788C935.058 292.586 935.294 292.497 935.495 292.586C935.51 292.593 935.523 292.6 935.537 292.608Z" fill="black"/>
<path d="M880.614 367.372V853.683H178.279V367.372C178.279 355.796 187.66 346.415 199.236 346.415H859.656C871.232 346.415 880.614 355.796 880.614 367.372Z" fill="#21111D"/>
<path d="M859.387 385.118V834.339H195.382V385.118C195.382 374.425 204.048 365.759 214.741 365.759H840.028C850.721 365.759 859.387 374.425 859.387 385.118Z" fill="#3AA1C9"/>
<path opacity="0.38" d="M859.387 671.629C821.351 646.739 782.714 660.043 768.971 699.349C767.122 677.385 732.446 654.22 700.292 692.877C712.828 647.813 670.312 611.705 629.09 633.501C629.09 633.501 629.09 561.87 564.9 573.849C564.9 573.849 572.513 566.141 571.597 535.411C571.597 535.411 559.32 541.431 502.41 493.65C502.41 493.65 484.529 512.116 476.901 539.256C476.901 539.256 432.102 523.62 422.796 581.137C422.796 581.137 375.321 563.618 380.863 632.089C380.863 632.089 310.679 594.139 302.822 680.407C280.691 632.048 204.378 613.453 196.827 686.834C196.827 686.834 196.319 687.519 195.383 688.831V834.34H859.387L859.387 671.629Z" fill="white"/>
<path d="M606.442 739.525H420.612C407.766 739.525 397.352 729.112 397.352 716.266V660.798C397.352 647.952 407.766 637.538 420.612 637.538H606.442C619.288 637.538 629.702 647.952 629.702 660.798V716.266C629.702 729.112 619.288 739.525 606.442 739.525Z" fill="white"/>
<path d="M467.972 665.595C465.32 663.796 462.796 662.469 460.403 661.616C458.009 660.762 455.638 660.335 453.291 660.335C449.418 660.335 446.248 661.471 443.777 663.742C441.308 666.014 440.073 668.873 440.073 672.318C440.073 675.124 440.866 677.411 442.451 679.179C444.037 680.948 447.452 682.945 452.696 685.171C453.001 685.293 453.457 685.476 454.069 685.719C459.984 688.128 463.932 690.446 465.914 692.671C467.286 694.166 468.331 695.873 469.048 697.794C469.763 699.715 470.123 701.758 470.123 703.923C470.123 709.015 468.354 713.201 464.817 716.478C461.279 719.756 456.751 721.394 451.233 721.394C448.458 721.394 445.706 720.921 442.977 719.977C440.249 719.032 437.496 717.614 434.722 715.723V709.503C437.741 711.851 440.599 713.597 443.298 714.74C445.996 715.883 448.61 716.455 451.141 716.455C455.319 716.455 458.627 715.312 461.067 713.025C463.506 710.738 464.726 707.628 464.726 703.694C464.726 700.798 463.895 698.427 462.233 696.582C460.571 694.738 456.783 692.58 450.867 690.11C444.739 687.579 440.546 685.025 438.291 682.449C436.034 679.872 434.905 676.588 434.905 672.593C434.905 667.623 436.621 663.56 440.051 660.404C443.482 657.248 447.956 655.67 453.475 655.67C455.975 655.67 458.414 656.013 460.793 656.699C463.171 657.385 465.564 658.445 467.974 659.878V665.595H467.972Z" fill="#FF424D"/>
<path d="M485.582 710.097C485.582 712.933 485.97 714.808 486.747 715.722C487.524 716.637 488.92 717.094 490.932 717.094C491.969 717.094 493.052 716.919 494.18 716.569C495.308 716.219 496.573 715.677 497.975 714.945V719.564C496.665 720.144 495.376 720.578 494.11 720.868C492.845 721.157 491.572 721.302 490.291 721.302C486.785 721.302 484.316 720.464 482.882 718.787C481.449 717.11 480.733 714.183 480.733 710.006V682.151H471.723V678.218H480.917V668.568L484.484 664.451H485.582V678.218H496.924V682.151H485.582V710.097Z" fill="#FF424D"/>
<path d="M525.236 716.363C522.887 718.163 520.7 719.45 518.672 720.228C516.643 721.005 514.517 721.394 512.291 721.394C508.816 721.394 505.995 720.387 503.83 718.375C501.664 716.363 500.582 713.756 500.582 710.554C500.582 705.889 502.694 702.215 506.917 699.531C511.139 696.849 517.214 695.339 525.144 695.003V690.521C525.144 687.35 524.389 685.041 522.879 683.592C521.371 682.144 518.969 681.419 515.676 681.419C513.632 681.419 511.574 681.831 509.502 682.654C507.428 683.478 505.17 684.788 502.732 686.588V681.968C505.111 680.383 507.39 679.209 509.569 678.446C511.75 677.684 513.907 677.303 516.042 677.303C520.89 677.303 524.397 678.423 526.561 680.665C528.725 682.906 529.808 686.558 529.808 691.619V713.756C529.808 714.671 529.93 715.35 530.174 715.791C530.418 716.234 530.799 716.454 531.318 716.454C532.05 716.454 533.314 715.662 535.114 714.076C535.541 713.68 535.861 713.39 536.075 713.207L536.121 717.46C534.748 718.741 533.484 719.701 532.325 720.342C531.166 720.983 530.144 721.302 529.261 721.302C527.918 721.302 526.935 720.914 526.31 720.136C525.685 719.359 525.328 718.101 525.236 716.363ZM525.144 711.972V698.754C519.045 698.846 514.227 699.944 510.69 702.048C507.154 704.152 505.385 706.926 505.385 710.372C505.385 712.537 506.116 714.245 507.58 715.495C509.045 716.745 511.056 717.37 513.617 717.37C515.355 717.37 517.155 716.935 519.015 716.067C520.875 715.196 522.918 713.832 525.144 711.972Z" fill="#FF424D"/>
<path d="M542.846 720.479V678.218H547.555V688.646C550.178 684.621 552.57 681.756 554.736 680.048C556.901 678.34 559.157 677.486 561.505 677.486C562.786 677.486 564.028 677.746 565.233 678.264C566.437 678.783 567.695 679.591 569.006 680.688L566.445 685.171C565.165 684.134 563.998 683.372 562.947 682.883C561.895 682.396 560.881 682.152 559.904 682.152C558.013 682.152 556.093 683.067 554.141 684.896C552.19 686.725 549.996 689.683 547.555 693.769V720.48L542.846 720.479Z" fill="#FF424D"/>
<path d="M579.938 710.097C579.938 712.933 580.327 714.808 581.104 715.722C581.882 716.637 583.276 717.094 585.289 717.094C586.325 717.094 587.408 716.919 588.536 716.569C589.664 716.219 590.929 715.677 592.332 714.945V719.564C591.021 720.144 589.732 720.578 588.467 720.868C587.202 721.157 585.929 721.302 584.649 721.302C581.142 721.302 578.671 720.464 577.239 718.787C575.806 717.11 575.09 714.183 575.09 710.006V682.151H566.08V678.218H575.272V668.568L578.839 664.451H579.937V678.218H591.28V682.151H579.937L579.938 710.097Z" fill="#FF424D"/>
<path d="M234.954 382.283C234.954 384.387 233.248 386.093 231.144 386.093C229.041 386.093 227.335 384.387 227.335 382.283C227.335 380.18 229.04 378.474 231.144 378.474C233.248 378.474 234.954 380.18 234.954 382.283Z" fill="#4CB7D8"/>
<path d="M246.739 382.283C246.739 384.387 245.034 386.093 242.93 386.093C240.826 386.093 239.12 384.387 239.12 382.283C239.12 380.18 240.825 378.474 242.93 378.474C245.034 378.474 246.739 380.18 246.739 382.283Z" fill="#4CB7D8"/>
<path d="M258.524 382.283C258.524 384.387 256.818 386.093 254.715 386.093C252.611 386.093 250.905 384.387 250.905 382.283C250.905 380.18 252.611 378.474 254.715 378.474C256.818 378.474 258.524 380.18 258.524 382.283Z" fill="#4CB7D8"/>
<path d="M796.551 376.95V379.668H795.013V384.335H796.551V387.617H826.498V376.951L796.551 376.95ZM825.473 386.745H797.577V377.822H825.473V386.745Z" fill="#4CB7D8"/>
<path d="M823.774 379.212H820.815V385.31H823.774V379.212Z" fill="#4CB7D8"/>
<path d="M818.812 379.212H815.853V385.31H818.812V379.212Z" fill="#4CB7D8"/>
<path d="M813.713 379.212H810.755V385.31H813.713V379.212Z" fill="#4CB7D8"/>
<path d="M1024.83 880.771C1025.03 881.363 1025.23 881.975 1025.43 882.604C1027.37 888.856 1028.72 896.532 1026.25 901.901L1024 905.101C1024 905.103 1024 905.109 1023.99 905.11L1023.05 906.449C1023.04 906.451 1023.05 906.455 1023.05 906.459L968.134 984.412C968.134 984.412 968.13 984.413 968.132 984.417C956.313 1001.19 930.431 995.483 918.656 991.765C918.631 991.761 918.607 991.751 918.584 991.742C916.64 991.037 914.652 990.332 912.627 989.617C912.615 989.612 912.609 989.609 912.609 989.609C887.677 980.803 857.164 970.995 838.497 968.467C814.791 965.26 775.353 948.53 749.15 936.218C748.523 935.921 747.9 935.626 747.284 935.334C745.182 934.343 743.177 933.379 741.283 932.463C740.646 932.155 740.025 931.851 739.415 931.551C731.083 927.487 725.176 924.381 723.234 923.201C720.235 921.371 711.295 917.097 701.442 912.535C690.718 907.57 678.91 902.265 672.504 899.402C671.807 899.09 671.175 898.804 670.613 898.553C670.509 898.508 670.41 898.465 670.315 898.422C668.672 897.688 667.726 897.269 667.726 897.269C657.489 885.161 674.517 862.655 697.032 862.497C719.548 862.339 767.445 879.046 767.445 879.046C767.445 879.046 624.501 746.204 613.135 735.988C598.583 722.907 601.292 704.154 618.826 699.848C629.502 697.228 695.445 746.681 695.445 746.681L755.676 792.287L756.662 793.037C752.785 763.663 783.006 754.541 783.006 754.541C793.85 737.446 816.457 731.364 816.457 731.364C816.457 731.364 819.929 724.09 844.567 713.266C869.203 702.447 916.733 774.762 928.999 787.041C938.833 796.884 1000.66 857.204 1024.83 880.771Z" fill="#FE9F73"/>
<path d="M746.078 918.536C746.102 918.728 746.065 918.925 745.972 919.112C743.739 923.425 742.24 928.445 741.284 932.465C740.647 932.158 740.026 931.853 739.416 931.554C740.4 927.508 741.922 922.546 744.179 918.184C744.437 917.687 745.042 917.493 745.538 917.747C745.852 917.91 746.044 918.209 746.078 918.536Z" fill="black"/>
<path d="M753.577 923.798C753.595 923.988 753.564 924.188 753.468 924.37C751.512 928.16 750.112 932.502 749.151 936.221C748.523 935.924 747.901 935.629 747.284 935.337C748.262 931.601 749.684 927.29 751.671 923.444C751.931 922.951 752.54 922.756 753.036 923.01C753.347 923.174 753.538 923.473 753.577 923.798Z" fill="black"/>
<path d="M669.096 905.081C669.12 905.105 669.149 905.128 669.181 905.149C669.149 905.128 669.122 905.11 669.093 905.087C669.093 905.087 669.092 905.083 669.096 905.081Z" fill="#F07162"/>
<path d="M701.357 902.334C702.228 906.091 701.842 910.095 701.443 912.537C690.718 907.573 678.911 902.268 672.505 899.404C671.808 899.091 671.175 898.806 670.613 898.554C671.058 896.983 671.579 895.376 672.178 893.749C673.215 890.941 676.433 889.382 679.621 890.05C679.777 890.079 679.931 890.114 680.083 890.159L697.258 894.898C697.258 894.898 699.978 896.387 701.357 902.334Z" fill="#F07162"/>
<path d="M679.65 890.049C679.64 890.048 679.63 890.047 679.622 890.05C677.425 890.096 674.867 892.237 674.142 894.2C673.49 895.974 672.949 897.713 672.505 899.405C671.808 899.092 671.175 898.807 670.613 898.555C670.509 898.51 670.41 898.468 670.316 898.424C670.729 896.919 671.219 895.377 671.799 893.809C672.714 891.334 676.21 889.102 679.008 889.873L679.65 890.049Z" fill="#FDC9BC"/>
<path d="M622.839 704.454C621.242 703.206 618.837 703.494 617.38 705.172L608.229 715.711C606.696 717.476 606.794 719.931 608.395 721.276L608.388 721.285L608.553 721.408L623.106 732.277L623.251 732.385L623.258 732.377C624.777 733.374 627.005 732.866 628.339 731.208L636.327 721.28C637.601 719.695 637.597 717.506 636.343 716.27L636.349 716.262L636.217 716.146L622.996 704.576L622.846 704.445L622.839 704.454Z" fill="#F07162"/>
<path d="M622.839 704.454C621.242 703.207 618.837 703.494 617.38 705.172L608.229 715.711C606.696 717.476 606.794 719.931 608.395 721.276L608.388 721.285L608.553 721.408L609.887 722.405L609.895 722.396C608.315 721.068 608.223 718.633 609.739 716.876L618.801 706.38C620.244 704.708 622.622 704.413 624.198 705.644L624.205 705.635L622.995 704.577L622.845 704.446L622.839 704.454Z" fill="#FDC9BC"/>
<path d="M901.028 960.603C901.179 960.918 901.488 961.148 901.862 961.181C914.422 962.292 932.044 952.648 932.787 952.237C933.282 951.963 933.458 951.343 933.188 950.846C932.915 950.351 932.292 950.171 931.798 950.445C931.621 950.542 913.977 960.197 902.042 959.142C901.478 959.093 900.982 959.508 900.933 960.072C900.915 960.261 900.951 960.443 901.028 960.603Z" fill="black"/>
<path d="M889.815 951.999C889.933 952.245 890.149 952.445 890.43 952.533C902.456 956.327 921.742 950.712 922.557 950.471C923.099 950.311 923.409 949.742 923.248 949.2C923.089 948.656 922.519 948.348 921.978 948.508C921.784 948.565 902.473 954.186 891.046 950.581C890.507 950.411 889.932 950.71 889.762 951.249C889.68 951.507 889.707 951.773 889.815 951.999Z" fill="black"/>
<path d="M722.77 923.965C720.205 922.4 712.903 918.828 701.068 913.347C690.223 908.327 678.289 902.967 672.141 900.219L670.249 899.369C670.15 899.327 670.043 899.281 669.94 899.233C668.311 898.506 667.364 898.086 667.364 898.086L667.177 898.003L667.045 897.846C663.252 893.359 662.759 887.127 665.692 880.747C670.029 871.314 682.183 861.709 697.027 861.606C715.911 861.473 751.783 872.863 763.782 876.861C742.954 857.508 622.843 745.917 612.54 736.654C604.818 729.71 601.402 720.803 603.402 712.825C605.119 705.98 610.662 700.933 618.614 698.982L619.04 700.716C611.754 702.507 606.685 707.077 605.134 713.259C603.297 720.584 606.511 728.833 613.733 735.326C624.972 745.43 766.625 877.065 768.054 878.394L771.174 881.293L767.152 879.89C766.675 879.724 719.142 863.236 697.039 863.391C682.942 863.49 671.415 872.573 667.314 881.493C664.677 887.227 665.022 892.561 668.279 896.539C668.633 896.696 669.466 897.067 670.68 897.608C670.778 897.653 670.868 897.692 670.963 897.733L672.871 898.589C679.022 901.338 690.964 906.702 701.818 911.726C713.715 917.236 721.077 920.84 723.7 922.44L722.77 923.965Z" fill="black"/>
<path d="M756.765 792.655L774.081 804.882L756.667 784.992L756.765 792.655Z" fill="#F07162"/>
<path d="M783.583 755.302L810.338 775.428L786.189 750.392L783.266 754.34L783.583 755.302Z" fill="#F07162"/>
<path d="M816.593 732.164L842.339 750.78L819.735 728.283L816.593 732.164Z" fill="#F07162"/>
<path d="M1024.15 878.87C1024.38 879.476 1024.6 880.111 1024.83 880.771C1025.03 881.363 1025.23 881.975 1025.43 882.604C1002.17 859.929 938.309 797.627 928.369 787.673C925.641 784.946 921.28 779.393 915.753 772.363C906.108 760.09 892.895 743.283 879.806 730.727C864.867 716.401 853.255 710.754 845.289 713.936C845.169 713.983 845.048 714.032 844.929 714.083C830.505 720.42 823.413 725.54 820.06 728.604C817.875 730.606 817.276 731.73 817.26 731.76L817.08 732.116L816.692 732.227C816.692 732.227 816.688 732.229 816.684 732.231C816.163 732.371 797.859 737.528 786.731 750.954C785.669 752.229 784.674 753.588 783.762 755.023L783.584 755.301L783.267 755.399C783.189 755.421 775.758 757.715 768.91 763.497C761.725 769.562 757.83 777.005 757.277 785.694C757.128 788.017 757.221 790.427 757.55 792.924L757.207 792.969L756.663 793.038L755.778 793.156C755.738 792.865 755.704 792.575 755.676 792.289C754.001 777.213 761.308 767.566 767.807 762.093C774.199 756.714 780.883 754.304 782.428 753.793C792.771 737.773 812.84 731.479 815.871 730.605C816.932 728.941 822.368 722.047 844.211 712.454C844.348 712.389 844.493 712.332 844.634 712.275C864.547 704.323 897.444 746.182 917.157 771.259C922.646 778.242 926.978 783.759 929.634 786.414C939.229 796.02 999.124 854.457 1024.15 878.87Z" fill="black"/>
<path d="M244.87 619.493C244.38 620.82 243.886 622.135 243.397 623.44C235.22 645.318 227.785 663.797 226.302 669.574C226.217 669.905 226.154 670.195 226.107 670.442C223.955 682.266 247.601 772.009 241.687 809.082C236.968 838.684 192.175 901.178 174.306 925.166C153.959 933.827 94.8547 898.205 75.1284 889.534C63.3425 884.351 61.2378 875.538 61.6268 868.881L92.839 817.143C92.839 817.143 91.2287 672.594 96.0643 633.905C96.1855 632.937 96.3538 631.927 96.564 630.88C96.6799 630.296 96.8115 629.701 96.9531 629.096C96.9531 629.096 96.9583 629.091 96.9583 629.085C106.824 587.418 178.099 493.65 178.099 493.65V493.934L178.173 545.509V545.514L178.278 621.546C178.278 621.546 235.241 529.119 237.388 525.893C238.609 524.068 243.87 519.769 250.311 519.343C254.752 519.043 259.755 520.6 264.365 526.093C264.875 526.693 265.375 527.345 265.869 528.045C267.127 529.819 267.737 532.576 267.822 536.111C268.237 553.343 256.145 589.07 244.87 619.493Z" fill="#FE9F73"/>
<path d="M157.859 654.055L178.172 545.506L178.279 621.544L157.859 654.055Z" fill="#F07162"/>
<path d="M859.387 385.118V398.808H195.382V385.118C195.382 374.425 204.048 365.759 214.741 365.759H840.028C850.721 365.759 859.387 374.425 859.387 385.118Z" fill="#DCF4FF"/>
<path d="M175.239 925.861L173.371 924.47C192.016 899.439 235.884 838.072 240.535 808.899C244.24 785.675 236.192 741.301 230.315 708.9C226.724 689.101 224.129 674.796 224.96 670.233C225.013 669.957 225.08 669.644 225.171 669.287C226.205 665.193 230.076 655.086 234.978 642.291C237.207 636.468 239.735 629.869 242.305 623.03L242.461 622.614C242.899 621.448 243.34 620.273 243.776 619.09C254.106 591.396 267.714 552.675 266.658 536.185C266.558 534.595 266.32 533.251 265.952 532.188C265.228 530.096 264.364 528.257 263.382 526.72C260.287 521.854 255.944 519.758 250.465 520.496C244.263 521.325 239.136 525.367 238.356 526.538L236.418 525.246C237.752 523.245 243.646 519.057 250.155 518.187C254.593 517.59 260.832 518.369 265.346 525.467C266.426 527.156 267.37 529.162 268.153 531.426C268.596 532.703 268.868 534.212 268.983 536.037C270.067 552.971 256.363 592.008 245.96 619.899C245.524 621.082 245.081 622.262 244.642 623.431L244.486 623.847C241.914 630.695 239.385 637.297 237.153 643.123C232.279 655.846 228.43 665.896 227.43 669.858C227.352 670.165 227.293 670.431 227.25 670.659C226.497 674.796 229.328 690.406 232.607 708.482C238.513 741.048 246.603 785.649 242.836 809.264C238.103 838.949 193.987 900.693 175.239 925.861Z" fill="black"/>
<path d="M62.6233 869.483L60.6286 868.28L91.6696 816.825C91.5887 809.053 90.2293 671.189 94.9077 633.76C95.0294 632.788 95.2018 631.741 95.4208 630.65C95.5385 630.056 95.673 629.448 95.818 628.83L95.8966 628.516C105.252 590.189 165.214 509.13 177.167 493.233C178.097 491.992 178.605 491.329 178.605 491.329L180.453 492.749C180.45 492.752 179.948 493.406 179.03 494.632C167.107 510.489 107.235 591.414 98.1225 629.223V629.551L98.016 629.664C97.9041 630.152 97.7993 630.632 97.7055 631.106C97.497 632.144 97.3334 633.133 97.2192 634.05C92.4488 672.219 93.9864 815.686 94.0027 817.13L94.0062 817.461L62.6233 869.483Z" fill="black"/>
<path d="M238.033 585.615C237.89 585.615 237.745 585.575 237.617 585.489C231.485 581.401 222.91 579.301 222.824 579.28C222.421 579.183 222.172 578.776 222.27 578.373C222.367 577.97 222.775 577.721 223.176 577.819C223.538 577.906 232.099 580.004 238.45 584.238C238.796 584.468 238.89 584.935 238.659 585.281C238.514 585.498 238.276 585.615 238.033 585.615Z" fill="black"/>
<path d="M233.523 590.727C233.38 590.727 233.235 590.686 233.107 590.601C226.975 586.512 218.4 584.413 218.314 584.392C217.91 584.295 217.662 583.888 217.76 583.484C217.857 583.081 218.265 582.835 218.666 582.93C219.028 583.017 227.589 585.115 233.941 589.35C234.286 589.58 234.379 590.047 234.149 590.392C234.004 590.61 233.766 590.727 233.523 590.727Z" fill="black"/>
<path d="M263.638 535.19C264.379 533.278 263.319 531.006 261.187 530.032L248.121 524.063C245.986 523.088 243.574 523.773 242.614 525.585L242.603 525.58L242.519 525.765L234.585 543.131L234.501 543.316L234.511 543.321C233.77 545.232 234.831 547.504 236.966 548.48L250.032 554.449C252.164 555.422 254.576 554.737 255.535 552.926L255.546 552.93L255.63 552.745L263.564 535.379L263.649 535.194L263.638 535.19Z" fill="#F07162"/>
<path d="M263.638 535.19C264.379 533.278 263.319 531.006 261.187 530.032L248.121 524.063C245.986 523.088 243.574 523.773 242.614 525.585L242.603 525.58L242.519 525.765L241.833 527.265L241.844 527.27C242.804 525.458 245.216 524.773 247.351 525.748L260.417 531.717C262.549 532.691 263.609 534.963 262.868 536.874L262.879 536.879L263.564 535.379L263.649 535.194L263.638 535.19Z" fill="#FDC9BC"/>
<path d="M211.446 830.556C211.859 830.556 212.26 830.345 212.485 829.965C220.064 817.177 218.786 793.53 218.728 792.53C218.689 791.864 218.119 791.362 217.453 791.396C216.788 791.434 216.28 792.004 216.319 792.67C216.333 792.908 217.611 816.584 210.41 828.735C210.07 829.308 210.26 830.049 210.833 830.388C211.025 830.502 211.238 830.556 211.446 830.556Z" fill="black"/>
<path d="M196.588 838.097C196.911 838.097 197.232 837.969 197.47 837.715C207.629 826.862 211.482 803.497 211.641 802.508C211.746 801.85 211.299 801.231 210.642 801.126C209.982 801.017 209.364 801.468 209.259 802.125C209.221 802.359 205.362 825.753 195.708 836.065C195.253 836.552 195.278 837.316 195.764 837.771C195.997 837.989 196.293 838.097 196.588 838.097Z" fill="black"/>
<path d="M1130.1 983.296L1128.48 984.349C1128.8 983.96 1129.33 983.612 1130.1 983.296Z" fill="white"/>
<path d="M625.077 450.587C655.85 465.051 669.01 501.856 646.865 548.974C633.545 577.314 606.029 610.944 584.845 619.929C584.823 619.939 584.801 619.949 584.779 619.958C584.753 619.969 584.727 619.981 584.701 619.992C584.701 619.991 584.7 619.989 584.7 619.989C584.014 620.273 583.426 620.33 582.96 620.111C579.328 618.404 583.988 600.086 589.163 583.635C594.624 566.279 593.084 547.476 584.756 531.299L624.103 472.541C616.381 454.025 609.506 443.269 625.077 450.587Z" fill="#F7AB48"/>
<path d="M634.262 570.96C633.981 570.828 633.647 570.921 633.476 571.18C619.609 592.085 600.752 612.468 584.657 619.323L584.458 619.405C583.925 619.627 583.511 619.672 583.229 619.539C581.249 618.609 581.928 608.738 589.766 583.826C595.291 566.266 593.77 547.642 585.488 531.343L624.156 473.601L624.066 470.824C623.122 468.596 622.193 466.471 621.356 464.557C618.094 457.106 615.278 450.67 616.734 449.251C617.278 448.722 618.893 448.56 623.412 450.526L623.367 449.132C619.323 447.429 617.029 447.202 615.854 448.346C613.771 450.374 616.19 455.904 620.199 465.064C621.179 467.303 622.285 469.83 623.391 472.473L584.025 531.258L584.196 531.589C592.473 547.67 594.024 566.088 588.562 583.447C586.469 590.098 583.656 599.63 582.14 607.281C580.003 618.058 581.431 620.091 582.691 620.683C583.124 620.886 583.625 620.929 584.189 620.811L584.2 620.888L585 620.551L584.747 619.988H584.748L585.056 620.526L585.092 620.51C601.406 613.591 620.501 592.989 634.52 571.876C634.732 571.556 634.608 571.123 634.262 570.96Z" fill="#21111D"/>
<path d="M528.897 405.383C498.124 390.92 461.389 404.276 439.244 451.394C425.924 479.734 417.591 522.38 424.193 544.424C424.199 544.448 424.206 544.471 424.213 544.494C424.221 544.521 424.228 544.548 424.236 544.575C424.237 544.575 424.238 544.574 424.238 544.574C424.457 545.284 424.789 545.773 425.256 545.992C428.887 547.699 440.017 532.423 449.38 517.94C459.257 502.659 474.717 491.847 492.486 487.934L512.615 420.144C531.799 414.273 544.468 412.702 528.897 405.383Z" fill="#F7AB48"/>
<path d="M424.986 546.564C424.554 546.36 424.201 546.002 423.932 545.493L423.851 545.542L423.585 544.596C416.652 521.447 426.017 478.051 438.672 451.126C449.216 428.691 463.703 412.646 480.566 404.725C496.179 397.391 513.439 397.422 529.165 404.813C534.463 407.303 536.659 409.17 536.509 411.056C536.277 413.953 530.475 415.619 520.865 418.378C518.515 419.053 515.864 419.814 513.123 420.649L492.985 488.471L492.621 488.551C474.958 492.439 459.789 502.998 449.909 518.282C446.124 524.137 440.58 532.386 435.658 538.435C428.724 546.957 426.247 547.156 424.986 546.564ZM424.781 544.19L424.842 544.388C425.013 544.941 425.242 545.288 425.523 545.42C427.503 546.351 434.669 539.53 448.848 517.596C458.842 502.136 474.152 491.423 491.986 487.398L512.105 419.639L512.429 419.54C515.296 418.662 518.069 417.866 520.517 417.164C528.335 414.919 535.087 412.981 535.249 410.955C535.316 410.126 534.221 408.585 528.628 405.956C495.126 390.211 460.265 408.152 439.815 451.663C427.269 478.357 417.963 521.303 424.781 544.19Z" fill="#21111D"/>
<path d="M724.211 134.122C722.262 127.232 715.646 123.823 708.999 126.287C679.401 137.262 599.119 176.714 543.424 295.216C516.396 352.725 489.05 450.067 486.799 495.238C486.292 505.396 491.966 514.853 501.171 519.179L555.171 544.559C564.376 548.885 575.278 547.218 582.776 540.346C616.116 509.786 673.611 426.614 700.64 369.105C751.968 259.894 733.209 165.928 724.211 134.122Z" fill="#4CB7D8"/>
<path d="M675.395 218.62C695.368 228.007 715.666 233.52 734.617 235.378C737.075 188.002 729.166 151.636 724.211 134.122C722.262 127.233 715.645 123.823 708.998 126.288C692.148 132.536 658.869 148.023 623.054 182.062C636.818 196.125 654.603 208.848 675.395 218.62Z" fill="#F7AB48"/>
<path d="M674.496 335.752C694.844 315.405 694.844 282.414 674.496 262.066C654.148 241.718 621.158 241.718 600.81 262.066C580.462 282.414 580.462 315.405 600.81 335.752C621.158 356.1 654.148 356.1 674.496 335.752Z" fill="#F7AB48"/>
<path d="M659.591 329.465C676.465 317.354 680.326 293.856 668.215 276.982C656.103 260.108 632.606 256.247 615.732 268.358C598.858 280.47 594.997 303.967 607.108 320.841C619.219 337.715 642.717 341.576 659.591 329.465Z" fill="#FDEACF"/>
<path d="M527.889 332.522C528.206 332.617 528.542 332.449 528.658 332.14C533.674 318.877 538.847 306.44 543.996 295.485C599.14 178.155 677.911 138.488 709.218 126.88C712.126 125.802 715.155 125.878 717.746 127.096C720.588 128.432 722.668 130.988 723.603 134.294C725.985 142.715 728.811 154.544 730.997 169.168C731.055 169.556 731.463 169.787 731.823 169.633C732.073 169.526 732.22 169.261 732.18 168.992C729.916 153.658 727.005 141.678 724.819 133.95C723.782 130.287 721.461 127.446 718.284 125.953C715.384 124.59 712.008 124.499 708.779 125.696C694.85 130.861 666.821 143.477 635.589 169.948C598.105 201.718 566.904 243.775 542.853 294.948C537.693 305.928 532.507 318.396 527.48 331.693C527.35 332.035 527.538 332.417 527.889 332.522Z" fill="#21111D"/>
<path d="M635.665 476.967C635.387 476.716 634.952 476.764 634.734 477.069C615.785 503.528 596.883 526.56 582.349 539.881C575.009 546.609 564.446 548.221 555.44 543.988L502.341 519.032C502.025 518.884 501.649 519.019 501.5 519.335C501.352 519.651 501.487 520.027 501.803 520.175L554.902 545.132C564.374 549.583 575.483 547.888 583.202 540.813C597.784 527.447 616.747 504.341 635.754 477.802C635.941 477.541 635.903 477.181 635.665 476.967Z" fill="#21111D"/>
<path d="M600.045 299.998C600.405 300.008 600.695 299.715 600.69 299.355C600.616 293.931 601.737 288.41 604.195 283.179C612.868 264.726 634.936 256.769 653.389 265.442C654.817 266.113 656.18 266.866 657.479 267.69C657.767 267.872 658.145 267.798 658.337 267.517L658.339 267.514C658.54 267.221 658.461 266.816 658.16 266.626C656.815 265.772 655.404 264.993 653.926 264.298C634.843 255.329 612.021 263.558 603.052 282.641C600.509 288.054 599.35 293.766 599.428 299.378C599.433 299.716 599.707 299.989 600.045 299.998Z" fill="#21111D"/>
<path d="M504.112 583.054C497.801 580.087 511.789 537.037 514.755 530.727L533.183 491.518C536.149 485.207 566.83 433.215 573.141 436.181C579.452 439.148 559.002 495.948 556.036 502.259L537.609 541.468C534.642 547.778 510.423 586.02 504.112 583.054Z" fill="#F7AB48"/>
<path d="M661.235 253.15C675.775 260.627 685.335 274.282 688.208 289.398C688.268 289.71 688.551 289.928 688.867 289.901C689.235 289.871 689.499 289.528 689.43 289.165C686.337 272.934 675.726 258.353 659.65 250.975C636.048 240.142 608.425 248.267 594.17 269.076C593.97 269.367 594.011 269.783 594.298 269.988C594.592 270.197 594.987 270.116 595.184 269.829C609.519 248.865 637.741 241.067 661.235 253.15Z" fill="#21111D"/>
<path d="M672.567 337.681C672.352 337.373 671.92 337.324 671.637 337.572C656.708 350.653 634.849 354.46 615.767 345.492C614.037 344.679 612.375 343.78 610.781 342.805C610.48 342.621 610.089 342.716 609.909 343.021C609.735 343.318 609.828 343.702 610.122 343.882C611.755 344.881 613.457 345.803 615.229 346.635C634.779 355.823 657.172 351.921 672.467 338.52C672.71 338.308 672.752 337.945 672.567 337.681Z" fill="#21111D"/>
<path d="M675.652 219.479C673.773 218.595 671.887 217.668 669.995 216.69C669.685 216.53 669.564 216.149 669.724 215.839C669.884 215.529 670.268 215.398 670.575 215.568C702.96 232.315 734.349 234.726 734.663 234.749C735.009 234.774 735.273 235.075 735.248 235.424C735.223 235.771 734.921 236.033 734.573 236.008C734.276 235.987 706.182 233.827 675.652 219.479Z" fill="#21111D"/>
<path d="M735.172 235.359C735.797 225.344 736.086 214.633 735.493 205.394C735.471 205.046 735.171 204.782 734.823 204.805C734.475 204.827 734.211 205.127 734.234 205.475C734.823 214.666 734.534 225.327 733.912 235.3L735.172 235.359Z" fill="#21111D"/>
</svg>
