<?xml version="1.0" encoding="utf-8"?>
<!-- Generator: Adobe Illustrator 27.5.0, SVG Export Plug-In . SVG Version: 6.00 Build 0)  -->
<svg version="1.1" xmlns="http://www.w3.org/2000/svg" xmlns:xlink="http://www.w3.org/1999/xlink" x="0px" y="0px"
	 viewBox="0 0 500 500" style="enable-background:new 0 0 500 500;" xml:space="preserve">
<g id="Background_complete">
	<g>
		<g>
			<g>
				<path style="fill:#EBEBEB;" d="M61.816,321.748c0.145,0.363,0.618-0.335,0.468-2.431c-0.091-1.267-0.363-2.837-0.683-4.067
					c-1.265-4.858-0.633-8.214-1.899-13.073c-2.416-9.276-7.24-20.824-15.053-26.378c-2.71-1.927-7.006-2.916-8.967-0.23
					c-1.469,2.013-0.654,4.819,0.214,7.154c1.364,3.669,2.727,7.337,4.091,11.006c2.143,5.765,4.315,11.588,7.722,16.709
					C51.116,315.558,55.923,319.988,61.816,321.748"/>
			</g>
			<g>
				<g>
					<path style="fill:#E0E0E0;" d="M66.9,337.468c-0.893-4.436-2.345-8.75-4.04-12.938c-2.326-5.748-5.37-11.069-8.126-16.605
						c-2.628-5.28-4.576-10.857-6.791-16.313c-1.465-3.609-3.073-6.972-5.353-10.129c-1.743-2.412-3.389-4.901-5.082-7.349
						c-0.273-0.394-0.923-0.02-0.648,0.379c1.552,2.244,3.104,4.489,4.656,6.733c0.667,0.964,1.415,1.869,2.033,2.866
						c1.244,2.006,2.207,4.184,3.118,6.357c2.158,5.148,3.991,10.427,6.312,15.508c2.585,5.66,5.836,10.97,8.3,16.699
						c2.076,4.827,3.859,9.832,4.897,14.993C66.272,338.141,66.995,337.94,66.9,337.468L66.9,337.468z"/>
				</g>
			</g>
			<g>
				<path style="fill:#EBEBEB;" d="M78.971,331.73c-2.402-10.596-0.879-22.035,4.212-31.633
					c5.092-9.598,13.709-17.274,23.829-21.227c2.039-0.796,4.349-1.442,6.373-0.609c2.162,0.89,3.392,3.313,3.486,5.649
					c0.094,2.336-0.749,4.604-1.717,6.732c-2.907,6.388-7.033,12.133-11.131,17.831c-4.021,5.591-8.043,11.182-12.064,16.773
					c-1.279,1.779-2.6,3.597-4.428,4.805C85.703,331.259,80.887,332.792,78.971,331.73"/>
			</g>
			<g>
				<path style="fill:#EBEBEB;" d="M68.696,303.128c-2.487-2.736-4.65-12.777-4.603-14.468c0.185-6.684-0.659-4.624-0.474-11.308
					c0.353-12.761,4.624-28.952,13.096-38.502c2.939-3.313,8.217-5.884,11.566-2.987c2.51,2.171,2.294,6.056,1.868,9.347
					c-0.669,5.169-1.339,10.338-2.008,15.507c-1.052,8.123-2.125,16.33-5.01,23.996c-2.885,7.666-7.794,14.854-14.912,18.905"/>
			</g>
			<g>
				<g>
					<path style="fill:#E0E0E0;" d="M69.862,356.444c-2.042-6.342,1.008-12.814,4.787-17.832c3.84-5.098,8.49-9.522,11.382-15.289
						c2.831-5.647,4.263-11.842,6.276-17.796c1.672-4.944,4.235-9.237,7.733-13.12c4.348-4.827,9.775-8.856,15.969-10.941
						c0.455-0.153,0.26-0.878-0.199-0.723c-5.503,1.853-10.402,5.194-14.512,9.262c-3.492,3.455-6.631,7.538-8.533,12.096
						c-2.565,6.145-3.789,12.767-6.461,18.879c-2.789,6.38-7.57,11.145-11.774,16.565c-4.135,5.331-7.595,12.249-5.39,19.099
						C69.286,357.1,70.01,356.905,69.862,356.444L69.862,356.444z"/>
				</g>
			</g>
			<g>
				<g>
					<path style="fill:#E0E0E0;" d="M64.467,358.571c0.742-8.787,2.073-17.504,3.09-26.26c0.537-4.626,0.977-9.265,1.229-13.916
						c0.27-4.968,0.175-9.929,0.277-14.9c0.204-9.968,1.37-19.913,3.476-29.658c1.04-4.814,2.309-9.579,3.807-14.271
						c1.45-4.543,2.987-9.207,5.042-13.518c1.76-3.693,3.728-7.3,5.589-10.944c0.219-0.429-0.428-0.809-0.648-0.379
						c-1.79,3.504-3.579,7.008-5.368,10.512c-1.648,3.227-2.829,6.779-4.022,10.193c-1.65,4.72-3.065,9.522-4.244,14.381
						c-2.332,9.605-3.747,19.436-4.229,29.309c-0.247,5.057-0.098,10.116-0.254,15.175c-0.146,4.768-0.501,9.527-0.991,14.271
						c-1.036,10.018-2.654,19.967-3.502,30.005C63.677,359.052,64.427,359.049,64.467,358.571L64.467,358.571z"/>
				</g>
			</g>
		</g>
		<path style="fill:#E0E0E0;" d="M87.499,336.113H47.891c0,0-2.891,7.228,2.891,9.252l3.614,23.707h27.321l3.036-23.273
			C84.753,345.799,89.234,343.919,87.499,336.113z"/>
	</g>
	<g>
		<g>
			<g>
				<path style="fill:#EBEBEB;" d="M423.438,321.748c0.145,0.363,0.618-0.335,0.468-2.431c-0.091-1.267-0.363-2.837-0.683-4.067
					c-1.265-4.858-0.633-8.214-1.899-13.073c-2.416-9.276-7.24-20.824-15.053-26.378c-2.71-1.927-7.006-2.916-8.967-0.23
					c-1.469,2.013-0.654,4.819,0.214,7.154c1.364,3.669,2.727,7.337,4.091,11.006c2.143,5.765,4.315,11.588,7.722,16.709
					C412.738,315.558,417.544,319.988,423.438,321.748"/>
			</g>
			<g>
				<g>
					<path style="fill:#E0E0E0;" d="M428.521,337.468c-0.893-4.436-2.345-8.75-4.039-12.938c-2.326-5.748-5.37-11.069-8.126-16.605
						c-2.628-5.28-4.576-10.857-6.791-16.313c-1.465-3.609-3.073-6.972-5.353-10.129c-1.743-2.412-3.389-4.901-5.082-7.349
						c-0.273-0.394-0.923-0.02-0.648,0.379c1.552,2.244,3.104,4.489,4.656,6.733c0.667,0.964,1.415,1.869,2.033,2.866
						c1.244,2.006,2.207,4.184,3.118,6.357c2.158,5.148,3.991,10.427,6.312,15.508c2.585,5.66,5.836,10.97,8.3,16.699
						c2.076,4.827,3.859,9.832,4.897,14.993C427.893,338.141,428.616,337.94,428.521,337.468L428.521,337.468z"/>
				</g>
			</g>
			<g>
				<path style="fill:#EBEBEB;" d="M440.592,331.73c-2.403-10.596-0.879-22.035,4.212-31.633
					c5.091-9.598,13.709-17.274,23.829-21.227c2.039-0.796,4.349-1.442,6.373-0.609c2.162,0.89,3.392,3.313,3.486,5.649
					c0.094,2.336-0.749,4.604-1.717,6.732c-2.907,6.388-7.033,12.133-11.131,17.831c-4.021,5.591-8.043,11.182-12.064,16.773
					c-1.279,1.779-2.6,3.597-4.428,4.805C447.324,331.259,442.509,332.792,440.592,331.73"/>
			</g>
			<g>
				<path style="fill:#EBEBEB;" d="M430.317,303.128c-2.487-2.736-4.65-12.777-4.603-14.468c0.185-6.684-0.659-4.624-0.475-11.308
					c0.353-12.761,4.624-28.952,13.096-38.502c2.939-3.313,8.217-5.884,11.566-2.987c2.51,2.171,2.294,6.056,1.868,9.347
					c-0.669,5.169-1.339,10.338-2.008,15.507c-1.052,8.123-2.125,16.33-5.01,23.996c-2.885,7.666-7.794,14.854-14.913,18.905"/>
			</g>
			<g>
				<g>
					<path style="fill:#E0E0E0;" d="M431.483,356.444c-2.042-6.342,1.008-12.814,4.787-17.832c3.84-5.098,8.49-9.522,11.382-15.289
						c2.831-5.647,4.263-11.842,6.276-17.796c1.671-4.944,4.235-9.237,7.733-13.12c4.349-4.827,9.775-8.856,15.969-10.941
						c0.455-0.153,0.26-0.878-0.199-0.723c-5.504,1.853-10.402,5.194-14.513,9.262c-3.492,3.455-6.631,7.538-8.533,12.096
						c-2.565,6.145-3.789,12.767-6.461,18.879c-2.789,6.38-7.57,11.145-11.774,16.565c-4.135,5.331-7.595,12.249-5.39,19.099
						C430.907,357.1,431.631,356.905,431.483,356.444L431.483,356.444z"/>
				</g>
			</g>
			<g>
				<g>
					<path style="fill:#E0E0E0;" d="M426.089,358.571c0.742-8.787,2.072-17.504,3.09-26.26c0.537-4.626,0.977-9.265,1.229-13.916
						c0.27-4.968,0.175-9.929,0.277-14.9c0.204-9.968,1.37-19.913,3.476-29.658c1.04-4.814,2.309-9.579,3.807-14.271
						c1.45-4.543,2.987-9.207,5.042-13.518c1.76-3.693,3.728-7.3,5.589-10.944c0.219-0.429-0.428-0.809-0.648-0.379
						c-1.789,3.504-3.579,7.008-5.368,10.512c-1.648,3.227-2.829,6.779-4.022,10.193c-1.65,4.72-3.065,9.522-4.245,14.381
						c-2.332,9.605-3.747,19.436-4.229,29.309c-0.247,5.057-0.098,10.116-0.254,15.175c-0.146,4.768-0.501,9.527-0.991,14.271
						c-1.036,10.018-2.654,19.967-3.502,30.005C425.298,359.052,426.048,359.049,426.089,358.571L426.089,358.571z"/>
				</g>
			</g>
		</g>
		<path style="fill:#E0E0E0;" d="M449.12,336.113h-39.608c0,0-2.891,7.228,2.891,9.252l3.614,23.707h27.321l3.036-23.273
			C446.374,345.799,450.855,343.919,449.12,336.113z"/>
	</g>
	<g>
		
			<rect x="167.121" y="132.033" transform="matrix(6.123234e-17 -1 1 6.123234e-17 27.4915 350.0233)" style="fill:#EBEBEB;" width="43.273" height="58.466"/>
		
			<rect x="170.783" y="136.319" transform="matrix(6.123234e-17 -1 1 6.123234e-17 27.4914 350.0233)" style="fill:#FFFFFF;stroke:#E0E0E0;stroke-width:0.5;stroke-miterlimit:10;" width="35.948" height="49.893"/>
		<polygon style="fill:#E0E0E0;" points="159.524,182.902 163.811,179.24 163.811,143.292 159.524,139.629 		"/>
		<path style="fill:#E0E0E0;" d="M217.991,182.902l-4.286-3.662v-35.948l4.286-3.662
			C218.304,139.752,217.991,182.902,217.991,182.902z"/>
		<path style="fill:none;stroke:#E0E0E0;stroke-linecap:round;stroke-linejoin:round;stroke-miterlimit:10;" d="M172.344,155.882
			c11.197,0,22.394,0,33.59,0"/>
		<path style="fill:none;stroke:#E0E0E0;stroke-linecap:round;stroke-linejoin:round;stroke-miterlimit:10;" d="M172.344,160.098
			c11.197,0,22.394,0,33.59,0"/>
		<path style="fill:none;stroke:#E0E0E0;stroke-linecap:round;stroke-linejoin:round;stroke-miterlimit:10;" d="M183.118,164.313
			c4.518,0,9.036,0,13.553,0"/>
		<path style="fill:none;stroke:#E0E0E0;stroke-linecap:round;stroke-linejoin:round;stroke-miterlimit:10;" d="M177.485,170.444
			c-1.534,0-3.068,0-4.603,0"/>
		<path style="fill:#E0E0E0;" d="M204.195,167.418c1.516,0,2.745,1.146,2.745,2.559c0,1.413-1.229,2.559-2.745,2.559
			c-1.516,0-2.745-1.146-2.745-2.559C201.45,168.564,202.679,167.418,204.195,167.418z"/>
		<path style="fill:none;stroke:#E0E0E0;stroke-linecap:round;stroke-linejoin:round;stroke-miterlimit:10;" d="M183.118,151.147
			c4.518,0,9.036,0,13.553,0"/>
	</g>
	<g>
		<g>
			<g>
				<g>
					<g>
						<path style="fill:#E0E0E0;" d="M443.92,305.328H263.174c-3.232,0-5.862-2.63-5.862-5.862V36.192
							c0-3.232,2.63-5.862,5.862-5.862H443.92c3.232,0,5.862,2.629,5.862,5.862v263.273
							C449.783,302.698,447.153,305.328,443.92,305.328z M263.174,30.58c-3.095,0-5.612,2.518-5.612,5.612v263.273
							c0,3.095,2.518,5.612,5.612,5.612H443.92c3.095,0,5.612-2.518,5.612-5.612V36.192c0-3.094-2.518-5.612-5.612-5.612H263.174z"
							/>
					</g>
				</g>
				<g>
					<g>
						<path style="fill:#E0E0E0;" d="M235.493,305.328H54.746c-3.232,0-5.862-2.63-5.862-5.862V36.192
							c0-3.232,2.629-5.862,5.862-5.862h180.747c3.232,0,5.862,2.629,5.862,5.862v263.273
							C241.355,302.698,238.725,305.328,235.493,305.328z M54.746,30.58c-3.094,0-5.612,2.518-5.612,5.612v263.273
							c0,3.095,2.518,5.612,5.612,5.612h180.747c3.095,0,5.612-2.518,5.612-5.612V36.192c0-3.094-2.518-5.612-5.612-5.612H54.746z"
							/>
					</g>
				</g>
			</g>
			<g>
				<g>
					<rect x="0" y="366.397" style="fill:#E0E0E0;" width="500" height="0.25"/>
				</g>
			</g>
		</g>
		<rect x="51.672" y="380.662" style="fill:#E0E0E0;" width="16.06" height="0.25"/>
		<rect x="170.352" y="377.952" style="fill:#E0E0E0;" width="53.53" height="0.25"/>
		<rect x="68.732" y="389.952" style="fill:#E0E0E0;" width="36.25" height="0.25"/>
		<rect x="378.352" y="377.822" style="fill:#E0E0E0;" width="43.19" height="0.25"/>
		<rect x="430.452" y="377.822" style="fill:#E0E0E0;" width="6.33" height="0.25"/>
		<rect x="316.212" y="384.052" style="fill:#E0E0E0;" width="53.89" height="0.25"/>
	</g>
	<g>
		
			<rect x="240.116" y="58.176" transform="matrix(6.123234e-17 -1 1 6.123234e-17 172.0986 364.1981)" style="fill:#EBEBEB;" width="56.064" height="75.748"/>
		
			<rect x="244.861" y="63.729" transform="matrix(6.123234e-17 -1 1 6.123234e-17 172.0986 364.1982)" style="fill:#FFFFFF;stroke:#E0E0E0;stroke-width:0.5;stroke-miterlimit:10;" width="46.574" height="64.641"/>
		<polygon style="fill:#E0E0E0;" points="230.274,124.082 235.828,119.337 235.828,72.763 230.274,68.018 		"/>
		<path style="fill:#E0E0E0;" d="M306.022,124.082l-5.553-4.745V72.763l5.553-4.745C306.428,68.177,306.022,124.082,306.022,124.082
			z"/>
		<path style="fill:none;stroke:#E0E0E0;stroke-linecap:round;stroke-linejoin:round;stroke-miterlimit:10;" d="M246.883,89.075
			c14.507,0,29.013,0,43.519,0"/>
		<path style="fill:none;stroke:#E0E0E0;stroke-linecap:round;stroke-linejoin:round;stroke-miterlimit:10;" d="M246.883,94.536
			c14.507,0,29.013,0,43.519,0"/>
		<path style="fill:none;stroke:#E0E0E0;stroke-linecap:round;stroke-linejoin:round;stroke-miterlimit:10;" d="M260.843,99.998
			c5.853,0,11.706,0,17.559,0"/>
		<path style="fill:none;stroke:#E0E0E0;stroke-linecap:round;stroke-linejoin:round;stroke-miterlimit:10;" d="M253.544,107.94
			c-1.988,0-3.975,0-5.963,0"/>
		<path style="fill:#E0E0E0;" d="M288.15,104.021c1.964,0,3.557,1.484,3.557,3.315c0,1.831-1.592,3.315-3.557,3.315
			c-1.964,0-3.557-1.484-3.557-3.315C284.593,105.505,286.185,104.021,288.15,104.021z"/>
		<path style="fill:none;stroke:#E0E0E0;stroke-linecap:round;stroke-linejoin:round;stroke-miterlimit:10;" d="M260.843,82.939
			c5.853,0,11.706,0,17.559,0"/>
	</g>
	<g>
		
			<rect x="338.452" y="134.174" transform="matrix(6.123234e-17 -1 1 6.123234e-17 196.6811 523.4965)" style="fill:#EBEBEB;" width="43.273" height="58.466"/>
		
			<rect x="342.115" y="138.461" transform="matrix(6.123234e-17 -1 1 6.123234e-17 196.681 523.4965)" style="fill:#FFFFFF;stroke:#E0E0E0;stroke-width:0.5;stroke-miterlimit:10;" width="35.948" height="49.893"/>
		<polygon style="fill:#E0E0E0;" points="330.856,185.044 335.142,181.382 335.142,145.434 330.856,141.771 		"/>
		<path style="fill:#E0E0E0;" d="M389.322,185.044l-4.286-3.662v-35.948l4.286-3.662
			C389.635,141.894,389.322,185.044,389.322,185.044z"/>
		<path style="fill:none;stroke:#E0E0E0;stroke-linecap:round;stroke-linejoin:round;stroke-miterlimit:10;" d="M343.675,158.024
			c11.197,0,22.394,0,33.59,0"/>
		<path style="fill:none;stroke:#E0E0E0;stroke-linecap:round;stroke-linejoin:round;stroke-miterlimit:10;" d="M343.675,162.24
			c11.197,0,22.394,0,33.59,0"/>
		<path style="fill:none;stroke:#E0E0E0;stroke-linecap:round;stroke-linejoin:round;stroke-miterlimit:10;" d="M354.45,166.455
			c4.518,0,9.035,0,13.553,0"/>
		<path style="fill:none;stroke:#E0E0E0;stroke-linecap:round;stroke-linejoin:round;stroke-miterlimit:10;" d="M348.817,172.586
			c-1.534,0-3.069,0-4.603,0"/>
		<path style="fill:#E0E0E0;" d="M375.527,169.56c1.516,0,2.745,1.146,2.745,2.559c0,1.413-1.229,2.559-2.745,2.559
			s-2.745-1.146-2.745-2.559C372.782,170.706,374.011,169.56,375.527,169.56z"/>
		<path style="fill:none;stroke:#E0E0E0;stroke-linecap:round;stroke-linejoin:round;stroke-miterlimit:10;" d="M354.45,153.288
			c4.518,0,9.035,0,13.553,0"/>
	</g>
</g>
<g id="Background_simple" style="display:none;">
	<g id="freepik--background-simple--inject-2" style="display:inline;">
		<path style="fill:#407BFF;" d="M143.203,82.196c-21.88,21.07-36.41,48.84-45.71,77.75c-6.32,19.63-10.37,40.93-4.85,60.8
			c5.52,19.87,22.89,37.64,43.52,37.84c15.77,0.16,30.23-9.71,39.84-22.21s15.27-27.5,21.3-42.06c6.03-14.56,12.79-29.29,24-40.38
			c11.21-11.09,26.56-17.91,42.1-21.65c10.91-2.62,23.57-3.53,32.22,3.62c10.66,8.8,9.89,26.09,2.75,37.93
			c-10.73,17.78-31.29,26.53-47.95,38.93c-30.43,22.65-48.94,60.47-48.16,98.4c0.24,11.91,3.1,25.15,13,31.82
			c10.31,7,24.74,4,35-3.09s17.51-17.51,25.84-26.75c23.05-25.54,54.09-42.15,81.87-62.44s54-47.11,59.49-81.07
			c4.61-28.57-6.84-58.38-26.67-79.46c-19.83-21.08-47.23-34-75.52-40.07C259.863,38.176,186.163,40.826,143.203,82.196z"/>
		<g id="freepik--background-simple--inject-2_00000070807047349473344280000012287897136751403173_" style="opacity:0.9;">
			<path style="fill:#FFFFFF;" d="M143.203,82.196c-21.88,21.07-36.41,48.84-45.71,77.75c-6.32,19.63-10.37,40.93-4.85,60.8
				c5.52,19.87,22.89,37.64,43.52,37.84c15.77,0.16,30.23-9.71,39.84-22.21s15.27-27.5,21.3-42.06c6.03-14.56,12.79-29.29,24-40.38
				c11.21-11.09,26.56-17.91,42.1-21.65c10.91-2.62,23.57-3.53,32.22,3.62c10.66,8.8,9.89,26.09,2.75,37.93
				c-10.73,17.78-31.29,26.53-47.95,38.93c-30.43,22.65-48.94,60.47-48.16,98.4c0.24,11.91,3.1,25.15,13,31.82
				c10.31,7,24.74,4,35-3.09s17.51-17.51,25.84-26.75c23.05-25.54,54.09-42.15,81.87-62.44s54-47.11,59.49-81.07
				c4.61-28.57-6.84-58.38-26.67-79.46c-19.83-21.08-47.23-34-75.52-40.07C259.863,38.176,186.163,40.826,143.203,82.196z"/>
		</g>
	</g>
</g>
<g id="Shadow">
	<g>
		<g>
			<ellipse style="fill:#F5F5F5;" cx="248.574" cy="454.917" rx="208.875" ry="16.267"/>
		</g>
	</g>
</g>
<g id="Pictures">
	<g>
		
			<rect x="128.074" y="60.441" transform="matrix(6.123234e-17 -1 1 6.123234e-17 57.7786 254.4993)" style="fill:#263238;" width="56.131" height="75.839"/>
		
			<rect x="128.074" y="60.441" transform="matrix(6.123234e-17 -1 1 6.123234e-17 57.7786 254.4993)" style="opacity:0.3;fill:#FFFFFF;" width="56.131" height="75.839"/>
		
			<rect x="132.824" y="66.001" transform="matrix(6.123234e-17 -1 1 6.123234e-17 57.7787 254.4993)" style="fill:#FFFFFF;stroke:#263238;stroke-width:0.5;stroke-miterlimit:10;" width="46.63" height="64.718"/>
		<polygon style="opacity:0.3;" points="118.22,126.426 123.78,121.675 123.78,75.045 118.22,70.295 		"/>
		<path style="opacity:0.3;" d="M194.058,126.426l-5.56-4.751v-46.63l5.56-4.751C194.465,70.454,194.058,126.426,194.058,126.426z"
			/>
		<path style="fill:none;stroke:#263238;stroke-linecap:round;stroke-linejoin:round;stroke-miterlimit:10;" d="M134.848,91.377
			c14.524,0,29.047,0,43.571,0"/>
		<path style="fill:none;stroke:#263238;stroke-linecap:round;stroke-linejoin:round;stroke-miterlimit:10;" d="M134.848,96.845
			c14.524,0,29.047,0,43.571,0"/>
		<path style="fill:none;stroke:#263238;stroke-linecap:round;stroke-linejoin:round;stroke-miterlimit:10;" d="M148.824,102.313
			c5.86,0,11.72,0,17.581,0"/>
		<path style="fill:none;stroke:#263238;stroke-linecap:round;stroke-linejoin:round;stroke-miterlimit:10;" d="M141.518,110.265
			c-1.99,0-3.98,0-5.97,0"/>
		<path style="fill:#407BFF;" d="M176.164,106.341c1.967,0,3.561,1.486,3.561,3.319s-1.594,3.319-3.561,3.319
			c-1.967,0-3.561-1.486-3.561-3.319S174.197,106.341,176.164,106.341z"/>
		<path style="fill:none;stroke:#263238;stroke-linecap:round;stroke-linejoin:round;stroke-miterlimit:10;" d="M148.824,85.234
			c5.86,0,11.72,0,17.581,0"/>
	</g>
	<g>
		
			<rect x="347.949" y="60.441" transform="matrix(6.123234e-17 -1 1 6.123234e-17 277.6545 474.375)" style="fill:#263238;" width="56.131" height="75.839"/>
		
			<rect x="347.949" y="60.441" transform="matrix(6.123234e-17 -1 1 6.123234e-17 277.6545 474.375)" style="fill:#407BFF;" width="56.131" height="75.839"/>
		
			<rect x="352.7" y="66.001" transform="matrix(6.123234e-17 -1 1 6.123234e-17 277.6546 474.375)" style="fill:#FFFFFF;stroke:#263238;stroke-width:0.5;stroke-miterlimit:10;" width="46.63" height="64.718"/>
		<polygon style="opacity:0.3;" points="338.095,126.426 343.656,121.675 343.656,75.045 338.095,70.295 		"/>
		<path style="opacity:0.3;" d="M413.934,126.426l-5.56-4.751v-46.63l5.56-4.751C414.341,70.454,413.934,126.426,413.934,126.426z"
			/>
		<path style="fill:none;stroke:#263238;stroke-linecap:round;stroke-linejoin:round;stroke-miterlimit:10;" d="M354.724,91.377
			c14.524,0,29.048,0,43.571,0"/>
		<path style="fill:none;stroke:#263238;stroke-linecap:round;stroke-linejoin:round;stroke-miterlimit:10;" d="M354.724,96.845
			c14.524,0,29.048,0,43.571,0"/>
		<path style="fill:none;stroke:#263238;stroke-linecap:round;stroke-linejoin:round;stroke-miterlimit:10;" d="M368.7,102.313
			c5.86,0,11.72,0,17.581,0"/>
		<path style="fill:none;stroke:#263238;stroke-linecap:round;stroke-linejoin:round;stroke-miterlimit:10;" d="M361.393,110.265
			c-1.99,0-3.98,0-5.97,0"/>
		<path style="fill:#407BFF;" d="M396.04,106.341c1.967,0,3.561,1.486,3.561,3.319c0,1.833-1.594,3.319-3.561,3.319
			c-1.967,0-3.561-1.486-3.561-3.319C392.479,107.827,394.073,106.341,396.04,106.341z"/>
		<path style="fill:none;stroke:#263238;stroke-linecap:round;stroke-linejoin:round;stroke-miterlimit:10;" d="M368.7,85.234
			c5.86,0,11.72,0,17.581,0"/>
	</g>
</g>
<g id="Table">
	<g>
		<g>
			<polygon style="fill:#263238;" points="177.773,271.976 133.51,271.976 133.51,274.463 181.871,274.463 			"/>
			<polygon style="fill:#407BFF;" points="213.587,262.034 123.328,262.034 116.878,191.655 207.127,191.655 			"/>
			<polygon style="fill:#263238;" points="212.213,262.034 121.965,262.034 115.515,191.655 205.763,191.655 			"/>
			<polygon style="opacity:0.3;" points="174.566,262.034 165.505,262.034 175.43,240.166 			"/>
			<polygon style="fill:#407BFF;" points="146.238,271.722 164.332,272.758 175.43,240.166 156.994,240.166 			"/>
			<polygon style="fill:#263238;" points="144.618,273.839 163.065,273.839 174.531,240.166 156.994,240.166 			"/>
			
				<polyline style="opacity:0.3;fill:none;stroke:#000000;stroke-width:0.5;stroke-linecap:round;stroke-linejoin:round;stroke-miterlimit:10;" points="
				144.905,273.703 156.994,240.166 175.43,240.166 			"/>
		</g>
		<g>
			<g>
				<rect x="337.265" y="254.697" style="fill:#407BFF;" width="63.75" height="19.837"/>
				<rect x="337.265" y="254.697" style="opacity:0.6;fill:#FFFFFF;enable-background:new    ;" width="63.75" height="19.837"/>
				<rect x="337.265" y="254.697" style="opacity:0.6;fill:#FFFFFF;enable-background:new    ;" width="49.19" height="19.837"/>
				<polygon style="opacity:0.2;fill:#407BFF;enable-background:new    ;" points="386.454,254.697 337.265,254.697 
					337.265,256.729 385.345,256.729 				"/>
				<polygon style="opacity:0.2;fill:#407BFF;enable-background:new    ;" points="401.014,261.668 337.265,260.979 
					337.265,260.454 401.014,260.454 				"/>
				<polygon style="opacity:0.2;fill:#407BFF;enable-background:new    ;" points="337.265,263.711 401.014,267.296 
					401.014,266.759 337.265,262.497 				"/>
				<polygon style="opacity:0.2;fill:#407BFF;enable-background:new    ;" points="337.265,271.581 401.014,270.121 
					401.014,269.596 337.265,270.366 				"/>
				<g>
					<rect x="335.173" y="247.216" style="fill:#407BFF;" width="63.75" height="8.033"/>
					<rect x="335.173" y="247.216" style="opacity:0.6;fill:#FFFFFF;enable-background:new    ;" width="63.75" height="8.033"/>
					<rect x="335.173" y="247.216" style="opacity:0.6;fill:#FFFFFF;enable-background:new    ;" width="50.801" height="8.033"/>
					<polygon style="opacity:0.2;fill:#407BFF;enable-background:new    ;" points="398.922,252.902 335.173,253.217 
						335.173,253.451 398.922,253.451 					"/>
					<polygon style="opacity:0.2;fill:#407BFF;enable-background:new    ;" points="335.173,251.98 398.922,250.357 
						398.922,250.602 335.173,252.528 					"/>
					<polygon style="opacity:0.2;fill:#407BFF;enable-background:new    ;" points="335.173,248.418 398.922,249.072 
						398.922,249.318 335.173,248.967 					"/>
				</g>
				<g>
					<rect x="339.357" y="239.183" style="fill:#407BFF;" width="63.75" height="8.033"/>
					<rect x="339.357" y="239.183" style="opacity:0.6;fill:#FFFFFF;enable-background:new    ;" width="63.75" height="8.033"/>
					<rect x="339.357" y="239.183" style="opacity:0.6;fill:#FFFFFF;enable-background:new    ;" width="50.801" height="8.033"/>
					<polygon style="opacity:0.2;fill:#407BFF;enable-background:new    ;" points="403.106,244.869 339.357,245.184 
						339.357,245.418 403.106,245.418 					"/>
					<polygon style="opacity:0.2;fill:#407BFF;enable-background:new    ;" points="339.357,243.947 403.106,242.324 
						403.106,242.569 339.357,244.495 					"/>
					<polygon style="opacity:0.2;fill:#407BFF;enable-background:new    ;" points="339.357,240.386 403.106,241.039 
						403.106,241.285 339.357,240.934 					"/>
				</g>
			</g>
		</g>
		<g>
			<polygon style="fill:#A24E3F;" points="98.291,449.341 113.64,281.684 123.553,281.684 103.277,449.341 			"/>
			<polygon style="fill:#A24E3F;" points="132.615,449.341 147.964,281.684 157.877,281.684 137.601,449.341 			"/>
			<polygon style="fill:#A24E3F;" points="428.217,448.453 407.93,281.684 398.016,281.684 423.231,448.453 			"/>
			<polygon style="fill:#A24E3F;" points="392.061,448.453 371.773,281.684 361.86,281.684 387.075,448.453 			"/>
			<g>
				<rect x="87.205" y="273.944" style="fill:#263238;" width="341.416" height="7.739"/>
				<rect x="87.205" y="273.944" style="opacity:0.6;fill:#FFFFFF;" width="341.416" height="7.739"/>
			</g>
		</g>
		<rect x="202.708" y="270.98" style="fill:#263238;" width="64.297" height="2.965"/>
		<g>
			<g>
				<g>
					<path style="fill:#407BFF;enable-background:new    ;" d="M411.685,203.667c-0.001-0.062,0.016-0.124-0.014-0.183
						l-11.107-21.103c0.14-0.084,0.278-0.172,0.417-0.259c0.354,0.198,0.757,0.318,1.191,0.315c1.334-0.011,2.406-1.102,2.395-2.436
						c-0.011-1.326-1.089-2.395-2.415-2.395c-1.334,0-2.415,1.081-2.415,2.415c0,0.007,0,0.013,0,0.02
						c0.001,0.142,0.021,0.279,0.045,0.414c-2.226,1.137-4.674,1.804-7.189,1.94c-3.066-0.16-6.012-1.25-8.443-3.126
						c-2.538-1.671-5.321-2.91-8.235-3.695c-0.366-0.881-0.973-1.628-1.731-2.185v-4.095c0.863-0.085,1.542-0.791,1.542-1.675
						c0-0.814-0.589-1.461-1.356-1.618c0.478-0.666,0.768-1.477,0.768-2.36c0-2.242-1.817-4.059-4.059-4.059
						c-2.242,0-4.059,1.817-4.059,4.059c0,0.887,0.293,1.702,0.776,2.37c-0.745,0.176-1.314,0.81-1.324,1.608
						c0.01,0.887,0.696,1.59,1.563,1.675v4.088c-0.76,0.555-1.373,1.3-1.743,2.178c-2.925,0.784-5.719,2.027-8.263,3.709
						c-2.439,1.876-5.391,2.966-8.463,3.126c-2.431-0.13-4.796-0.764-6.959-1.836c0.036-0.167,0.058-0.34,0.058-0.518
						c0-0.014,0-0.027,0-0.041c-0.011-1.334-1.102-2.406-2.436-2.395c-1.345,0-2.436,1.09-2.435,2.436
						c0,1.345,1.09,2.436,2.435,2.436c0.397,0,0.767-0.104,1.098-0.273c0.147,0.091,0.291,0.187,0.44,0.274l-11.016,21.005
						c-0.03,0.059-0.013,0.121-0.014,0.183h-1.183v2.05h1.644c1.253,3.26,3.83,5.836,7.09,7.09
						c6.361,2.446,13.501-0.729,15.946-7.09h1.665v-2.05h-1.326c-0.001-0.062,0.015-0.124-0.014-0.183l-10.366-19.765
						c1.773,0.773,3.633,1.342,5.556,1.641c2.878,0.187,5.749-0.447,8.281-1.827c2.505-1.39,5.424-2.888,8.337-3.782
						c0.374,0.816,0.951,1.514,1.669,2.038v48.445h6.15v-48.462c0.705-0.52,1.273-1.208,1.643-2.012
						c2.904,0.895,5.815,2.388,8.322,3.773c2.531,1.382,5.403,2.015,8.281,1.827c2.033-0.32,3.994-0.944,5.857-1.788l-10.443,19.913
						c-0.031,0.059-0.016,0.121-0.017,0.183h-1.262v2.05h1.644c1.256,3.247,3.823,5.814,7.07,7.07
						c6.367,2.462,13.524-0.703,15.986-7.07h1.644v-2.05H411.685z M342.238,203.667h-10.63l10.63-20.275V203.667z M353.761,203.667
						h-10.691v-20.316L353.761,203.667z M399.311,203.667h-10.63l10.63-20.275V203.667z M400.143,203.667v-20.313l10.651,20.313
						H400.143z"/>
				</g>
				<rect x="356.286" y="230.235" style="fill:#407BFF;enable-background:new    ;" width="29.891" height="4.867"/>
				<rect x="348.817" y="234.217" style="fill:#407BFF;enable-background:new    ;" width="43.548" height="4.867"/>
			</g>
			<g style="opacity:0.3;">
				<g>
					<path style="enable-background:new    ;" d="M411.685,203.667c-0.001-0.062,0.016-0.124-0.014-0.183l-11.107-21.103
						c0.14-0.084,0.278-0.172,0.417-0.259c0.354,0.198,0.757,0.318,1.191,0.315c1.334-0.011,2.406-1.102,2.395-2.436
						c-0.011-1.326-1.089-2.395-2.415-2.395c-1.334,0-2.415,1.081-2.415,2.415c0,0.007,0,0.013,0,0.02
						c0.001,0.142,0.021,0.279,0.045,0.414c-2.226,1.137-4.674,1.804-7.189,1.94c-3.066-0.16-6.012-1.25-8.443-3.126
						c-2.538-1.671-5.321-2.91-8.235-3.695c-0.366-0.881-0.973-1.628-1.731-2.185v-4.095c0.863-0.085,1.542-0.791,1.542-1.675
						c0-0.814-0.589-1.461-1.356-1.618c0.478-0.666,0.768-1.477,0.768-2.36c0-2.242-1.817-4.059-4.059-4.059
						c-2.242,0-4.059,1.817-4.059,4.059c0,0.887,0.293,1.702,0.776,2.37c-0.745,0.176-1.314,0.81-1.324,1.608
						c0.01,0.887,0.696,1.59,1.563,1.675v4.088c-0.76,0.555-1.373,1.3-1.743,2.178c-2.925,0.784-5.719,2.027-8.263,3.709
						c-2.439,1.876-5.391,2.966-8.463,3.126c-2.431-0.13-4.796-0.764-6.959-1.836c0.036-0.167,0.058-0.34,0.058-0.518
						c0-0.014,0-0.027,0-0.041c-0.011-1.334-1.102-2.406-2.436-2.395c-1.345,0-2.436,1.09-2.435,2.436
						c0,1.345,1.09,2.436,2.435,2.436c0.397,0,0.767-0.104,1.098-0.273c0.147,0.091,0.291,0.187,0.44,0.274l-11.016,21.005
						c-0.03,0.059-0.013,0.121-0.014,0.183h-1.183v2.05h1.644c1.253,3.26,3.83,5.836,7.09,7.09
						c6.361,2.446,13.501-0.729,15.946-7.09h1.665v-2.05h-1.326c-0.001-0.062,0.015-0.124-0.014-0.183l-10.366-19.765
						c1.773,0.773,3.633,1.342,5.556,1.641c2.878,0.187,5.749-0.447,8.281-1.827c2.505-1.39,5.424-2.888,8.337-3.782
						c0.374,0.816,0.951,1.514,1.669,2.038v48.445h6.15v-48.462c0.705-0.52,1.273-1.208,1.643-2.012
						c2.904,0.895,5.815,2.388,8.322,3.773c2.531,1.382,5.403,2.015,8.281,1.827c2.033-0.32,3.994-0.944,5.857-1.788l-10.443,19.913
						c-0.031,0.059-0.016,0.121-0.017,0.183h-1.262v2.05h1.644c1.256,3.247,3.823,5.814,7.07,7.07
						c6.367,2.462,13.524-0.703,15.986-7.07h1.644v-2.05H411.685z M342.238,203.667h-10.63l10.63-20.275V203.667z M353.761,203.667
						h-10.691v-20.316L353.761,203.667z M399.311,203.667h-10.63l10.63-20.275V203.667z M400.143,203.667v-20.313l10.651,20.313
						H400.143z"/>
				</g>
				<rect x="356.286" y="230.235" style="enable-background:new    ;" width="29.891" height="4.867"/>
				<rect x="348.817" y="234.217" style="enable-background:new    ;" width="43.548" height="4.867"/>
			</g>
			<g>
				<g>
					<path d="M368.194,230.242c2.025,0,4.049,0,6.074,0c0.483,0,0.483-0.75,0-0.75c-2.025,0-4.049,0-6.074,0
						C367.712,229.492,367.711,230.242,368.194,230.242L368.194,230.242z"/>
				</g>
			</g>
			<g>
				<g>
					<path d="M349.843,234.83c14.089,0,28.178,0,42.266,0c0.483,0,0.483-0.75,0-0.75c-14.089,0-28.177,0-42.266,0
						C349.361,234.08,349.36,234.83,349.843,234.83L349.843,234.83z"/>
				</g>
			</g>
			<g>
				<g>
					<path d="M375.73,177.65c-0.027,1.956-1.238,3.748-3.099,4.413c-1.854,0.662-3.964,0.08-5.217-1.438
						c-1.244-1.508-1.401-3.704-0.4-5.38c0.996-1.667,2.985-2.572,4.897-2.205C374.123,173.464,375.699,175.415,375.73,177.65
						c0.007,0.482,0.757,0.483,0.75,0c-0.031-2.254-1.409-4.282-3.524-5.09c-2.143-0.818-4.665-0.14-6.114,1.636
						c-1.432,1.756-1.642,4.284-0.475,6.237c1.164,1.948,3.451,2.962,5.676,2.562c2.567-0.462,4.401-2.771,4.437-5.345
						C376.487,177.167,375.737,177.166,375.73,177.65z"/>
				</g>
			</g>
			<g>
				<g>
					<path d="M386.768,206.195c8.571,0,17.142,0,25.713,0c0.483,0,0.483-0.75,0-0.75c-8.571,0-17.142,0-25.713,0
						C386.285,205.445,386.284,206.195,386.768,206.195L386.768,206.195z"/>
				</g>
			</g>
			<g>
				<g>
					<path d="M329.803,206.02c8.551,0,17.103,0,25.654,0c0.483,0,0.483-0.75,0-0.75c-8.551,0-17.103,0-25.654,0
						C329.321,205.27,329.32,206.02,329.803,206.02L329.803,206.02z"/>
				</g>
			</g>
		</g>
		<polygon style="opacity:0.3;" points="364.757,274.191 364.757,281.684 428.621,281.684 428.621,273.944 		"/>
	</g>
</g>
<g id="Character">
	<g>
		<g>
			<path style="fill:#FDBBB5;" d="M267.278,129.496c4.831-0.51,4.338-6.44,3.749-10.982c-0.238-1.621-0.608-3.227-1.107-4.801
				l8.418-7.028l7.618-6.448c-0.473,2.834-0.796,5.694-0.967,8.568c-0.423,4.967,0.136,8.934,0.786,13.712
				c0.597,2.128,1.887,3.775,2.928,5.119c0,0-8.647,6.544-14.587,6.381C268.178,133.853,267.278,129.496,267.278,129.496z"/>
			<path style="opacity:0.2;enable-background:new    ;" d="M285.118,112.598c0,0-5.001,12.004-13.952,7.321l-0.132-2.093
				L285.118,112.598z"/>
			<path style="fill:#FDBBB5;" d="M289.61,85.535c-2.844-8.304-12.149-13.047-20.783-10.592
				c-11.903,3.402-14.546,20.027-12.602,30.4c2.165,11.549,16.529,18.089,26.079,10.217c6.366-5.236,6.585-11.897,8.002-23.122
				C290.614,90.133,290.377,87.774,289.61,85.535z"/>
			<path style="fill:#263238;" d="M262.228,68.415c5.128-5.706,21.933,1.65,21.933,1.65s4.019-3.416,10.414,2.369
				c5.127,4.638,1.114,12.587,0.639,16.667c-1.868,3.93-1.653,9.254-7.616,11.183c-2.931-3.333-3.137-8.362-2.842-11.842
				c-0.885-0.245-1.711-0.702-2.384-1.35c-2.619-2.513-1.309-8.714-1.309-8.714c-1.846-1.128-7.348-0.957-11.241,1.436
				c-3.164,1.944-8.895,8.262-13.914,6.396c-7.918-2.944-4.067-8.608-4.067-8.608c0.087-0.377,2.389-2.923,4.729-2.23
				c0,0,0.288-2.518,1.387-4.509C259.345,68.351,262.228,68.415,262.228,68.415z"/>
			<g>
				<path style="fill:#263238;" d="M273.009,94.679c-0.129,1.282-1.108,2.173-2.002,2.003c-0.894-0.17-1.405-1.343-1.19-2.615
					c0.215-1.272,1.13-2.17,2.003-2.003C272.692,92.23,273.227,93.386,273.009,94.679z"/>
				<path style="fill:#263238;" d="M261.768,94.026c-0.129,1.282-1.13,2.17-2.003,2.003c-0.873-0.167-1.405-1.344-1.189-2.615
					c0.215-1.271,1.13-2.17,2.003-2.003C261.451,91.579,261.977,92.816,261.768,94.026z"/>
				<path style="fill:#263238;" d="M257.255,88.387c0.191,0.131,0.438,0.157,0.648,0.069c1.406-0.659,3.074-0.641,4.499,0.047
					c0.293,0.174,0.673,0.093,0.849-0.181c0.176-0.274,0.082-0.637-0.212-0.811c-0.001-0.001-0.001-0.001-0.002-0.001
					c-1.779-0.914-3.894-0.962-5.672-0.13c-0.311,0.127-0.45,0.471-0.309,0.77c0.002,0.004,0.004,0.008,0.007,0.013
					C257.114,88.247,257.179,88.323,257.255,88.387z"/>
				<path style="fill:#263238;" d="M274.206,89.875c0.122-0.032,0.23-0.1,0.309-0.193c0.161-0.288,0.047-0.642-0.255-0.79
					c-0.004-0.002-0.008-0.004-0.012-0.006c-1.768-0.882-3.894-0.888-5.696-0.016c-0.297,0.165-0.401,0.525-0.231,0.804l0,0.001
					c0.176,0.273,0.549,0.363,0.848,0.205l0,0c1.443-0.65,3.116-0.62,4.51,0.079C273.858,90.006,274.05,89.975,274.206,89.875z"/>
			</g>
			<g>
				<path style="fill:#FDBBB5;" d="M296.504,102.161c-1.281,2.834-3.706,5.033-6.743,6.116c-4.032,1.406-6.504-2.001-5.775-5.835
					c0.682-3.4,3.574-8.341,7.817-8.057C296.045,94.67,298.03,98.662,296.504,102.161z"/>
				<path style="opacity:0.1;fill:none;stroke:#000000;stroke-width:0.5;stroke-miterlimit:10;" d="M286.923,103.214
					c0.235-2.091,1.494-4.028,3.341-5.14c0.785-0.473,1.874-0.779,2.629-0.219"/>
			</g>
			<path style="fill:#D7504D;" d="M264.862,92.69c-1.776,2.791-3.957,5.324-6.48,7.525c1.279,1.257,3.059,1.928,4.863,1.833
				L264.862,92.69z"/>
			<g>
				<g>
					<path style="fill:#263238;" d="M268.163,106.333c2.315-0.412,4.392-1.711,5.822-3.569c0.124-0.162,0.023-0.418-0.134-0.513
						c-0.192-0.115-0.39-0.025-0.513,0.134c-1.312,1.704-3.264,2.849-5.374,3.224C267.49,105.694,267.691,106.417,268.163,106.333
						L268.163,106.333z"/>
				</g>
			</g>
		</g>
		<g>
			<polygon style="fill:#263238;" points="251.684,429.371 236.966,427.78 240.2,451.772 249.379,453.527 			"/>
			<path style="fill:#263238;" d="M238.085,447.643l3.492-0.067c0.79-0.015,1.541,0.352,2.041,0.951
				c2.153,2.583,3.614,1.563,5.673-0.944c1.384-0.181,1.84,1.335,1.975,1.742l3.092,9.003c0.267,0.752-0.15,1.549-0.932,1.78
				c-0.139,0.041-0.284,0.063-0.431,0.063c-4.241,0.082-6.247,0.12-11.525,0.222l-16.141,0.311c-4.4,0.085-5.537-4.126-3.745-4.552
				c8.059-1.874,13.709-4.272,16.108-6.581C238.138,449.165,237.642,448.878,238.085,447.643z"/>
			<path style="fill:#407BFF;" d="M233.042,450.828c1.101-0.047,2.19-0.202,3.25-0.465c0.099-0.036,0.145-0.143,0.104-0.239
				c-0.022-0.052-0.067-0.091-0.123-0.109c-0.503-0.219-4.972-2.08-6.027-1.32c-0.199,0.132-0.297,0.362-0.254,0.592
				c0.028,0.431,0.27,0.83,0.65,1.076C231.379,450.756,232.219,450.919,233.042,450.828z M235.595,450.126
				c-1.276,0.253-3.654,0.604-4.683-0.084c-0.267-0.188-0.44-0.474-0.475-0.785c-0.026-0.098,0.015-0.198,0.101-0.252
				C231.12,448.591,233.742,449.4,235.595,450.126z"/>
			<path style="fill:#407BFF;" d="M236.248,450.375c0.045,0.012,0.093,0.011,0.137-0.003c0.056-0.05,0.074-0.127,0.047-0.197
				c-0.009-0.174-1.253-4.251-3.633-3.944c-0.589,0.087-0.745,0.362-0.756,0.591c-0.091,1.089,2.766,3.091,4.105,3.587
				L236.248,450.375z M233.055,446.552c1.516-0.029,2.521,2.345,2.868,3.296c-1.463-0.69-3.549-2.358-3.459-3.023
				c-0.003-0.054-0.011-0.206,0.431-0.258L233.055,446.552z"/>
			<path style="fill:none;stroke:#407BFF;stroke-width:0.5;stroke-linecap:round;stroke-linejoin:round;stroke-miterlimit:10;" d="
				M235.797,450.259c1.211,0.133,2.363,0.797,3.063,1.764"/>
			<path style="fill:none;stroke:#407BFF;stroke-width:0.5;stroke-linecap:round;stroke-linejoin:round;stroke-miterlimit:10;" d="
				M233.71,451.858c1.211,0.133,2.363,0.797,3.062,1.764"/>
			<path style="fill:none;stroke:#407BFF;stroke-width:0.5;stroke-linecap:round;stroke-linejoin:round;stroke-miterlimit:10;" d="
				M231.079,453.219c1.211,0.133,2.363,0.797,3.062,1.764"/>
		</g>
		<g>
			<path style="fill:#263238;" d="M253.875,445.522l-3.586-88.077l19.782-83.456L267.3,221.54l-30.421,1.671
				c0,0-11.395,67.823-14.751,129.458c-1.41,25.897,10.593,92.792,10.593,92.792L253.875,445.522z"/>
			<path style="fill:#263238;" d="M262.764,224.997c0,0,6.923,111.479,7.964,137.249c1.141,28.239,6.881,85.714,6.881,85.714
				l18.834-1.285c0,0,2.134-73.462,3.652-101.097c1.518-27.635,5.888-78.376,5.382-90.125c-0.506-11.749-6.796-39.966-6.796-39.966
				L262.764,224.997z"/>
			<path style="opacity:0.3;" d="M266.45,287.728c0,0-0.548-18.629-0.557-18.775c-0.009-0.146-7.313-9.031-7.469-9.094
				c-0.156-0.062,4.513,12.714,4.438,12.714c-0.075,0,0.601,29.095,0.601,29.095L266.45,287.728z"/>
		</g>
		<g>
			<polygon style="fill:#263238;" points="293.904,431.638 279.565,430.775 283.722,454.132 293.015,456.044 			"/>
			<path style="fill:#263238;" d="M281.634,449.911l3.545-0.019c0.802-0.004,1.56,0.379,2.058,0.994
				c2.149,2.652,3.646,1.638,5.772-0.878c1.407-0.165,1.849,1.381,1.98,1.796l3.011,9.182c0.26,0.767-0.174,1.57-0.971,1.793
				c-0.142,0.04-0.289,0.059-0.438,0.058c-4.305,0.023-6.342,0.034-11.701,0.062l-16.388,0.087
				c-4.468,0.024-5.562-4.266-3.737-4.673c8.207-1.788,13.975-4.142,16.443-6.452C281.666,451.457,281.167,451.159,281.634,449.911z
				"/>
			<path style="fill:#407BFF;" d="M276.471,453.073c1.118-0.031,2.226-0.174,3.306-0.426c0.101-0.035,0.15-0.143,0.109-0.241
				c-0.022-0.053-0.067-0.094-0.123-0.112c-0.507-0.229-5.017-2.182-6.099-1.425c-0.203,0.131-0.307,0.363-0.266,0.598
				c0.023,0.438,0.262,0.847,0.645,1.101C274.783,452.976,275.634,453.153,276.471,453.073z M279.072,452.397
				c-1.299,0.238-3.717,0.561-4.752-0.152c-0.269-0.195-0.44-0.487-0.471-0.804c-0.025-0.099,0.018-0.201,0.106-0.255
				C274.552,450.775,277.202,451.634,279.072,452.397z"/>
			<path style="fill:#407BFF;" d="M279.731,452.658c0.046,0.013,0.094,0.012,0.139-0.001c0.057-0.05,0.077-0.128,0.05-0.199
				c-0.007-0.177-1.212-4.333-3.632-4.055c-0.599,0.081-0.762,0.357-0.776,0.589c-0.107,1.105,2.764,3.176,4.115,3.699
				L279.731,452.658z M276.544,448.733c1.539-0.008,2.526,2.416,2.865,3.386c-1.475-0.721-3.569-2.443-3.468-3.117
				c-0.002-0.055-0.008-0.21,0.441-0.256L276.544,448.733z"/>
			<path style="fill:none;stroke:#407BFF;stroke-width:0.5;stroke-linecap:round;stroke-linejoin:round;stroke-miterlimit:10;" d="
				M279.275,452.534c1.227,0.152,2.388,0.842,3.083,1.834"/>
			<path style="fill:none;stroke:#407BFF;stroke-width:0.5;stroke-linecap:round;stroke-linejoin:round;stroke-miterlimit:10;" d="
				M277.134,454.128c1.227,0.152,2.387,0.842,3.083,1.834"/>
			<path style="fill:none;stroke:#407BFF;stroke-width:0.5;stroke-linecap:round;stroke-linejoin:round;stroke-miterlimit:10;" d="
				M274.445,455.472c1.227,0.153,2.387,0.843,3.083,1.834"/>
		</g>
		<g>
			<path style="fill:#407BFF;" d="M264.285,128.67c0.45-0.415,6.687-5.848,6.687-5.848l5.315,5.848l10.271-7.103l5.045,4.32
				l-26.264,51.081l-4.11-5.715L264.285,128.67z"/>
			<path style="opacity:0.8;fill:#FFFFFF;" d="M264.285,128.67c0.45-0.415,6.687-5.848,6.687-5.848l5.315,5.848l10.271-7.103
				l5.045,4.32l-26.264,51.081l-4.11-5.715L264.285,128.67z"/>
			<g>
				<path style="fill:#407BFF;" d="M275.623,130.761c-0.391,0.234-3.829,2.891-3.829,2.891l0.87,4.615l3.423,0.632l3.677-5.559
					L275.623,130.761z"/>
				<polygon style="fill:#407BFF;" points="272.664,138.267 265.307,157.814 265.666,176.969 275.286,156.909 276.088,138.899 				
					"/>
				<polygon style="opacity:0.5;" points="272.664,138.267 265.307,157.814 265.666,176.969 275.286,156.909 276.088,138.899 				
					"/>
				<path style="opacity:0.5;" d="M275.623,130.761c-0.391,0.234-3.829,2.891-3.829,2.891l0.87,4.615l3.423,0.632l3.677-5.559
					L275.623,130.761z"/>
			</g>
			<polygon points="260.972,235.051 267.599,235.051 265.666,228.174 264.565,223.866 263.206,228.174 			"/>
			<g>
				<path style="fill:#407BFF;" d="M266.535,125.887l-6.792,3.826c0,0-17.646,3.404-18.482,5.402
					c-0.479,1.144-0.19,43.433-0.19,43.433s-2.436,29.917-2.562,32.299c-0.294,5.574-13.471,46.651-12.295,48.705
					c1.176,2.053,19.672,12.88,23.788,9.946c4.116-2.934,13.859-34.332,13.859-34.332l1.804-58.827L266.535,125.887z"/>
				<path style="opacity:0.3;" d="M253.943,148.102c0.954,1.5,3.262,3.691,3.262,3.691s-3.89,2.799-4.134,4.625
					c-0.243,1.826,9.775,36.029,10.791,35.299c0.35-0.252,0.941-3.47,1.565-7.58l0.239-7.799l0.869-50.451l-6.792,3.826
					C259.743,129.713,252.989,146.603,253.943,148.102z"/>
				<path style="fill:#407BFF;" d="M278.357,269.228c0,0-4.843,0.77-8.285-11.716c-3.453-12.522-6.21-22.347-6.21-22.347
					l1.479-58.196l23.814-54.332l7.763,4.797l10.657,2.968l-10.657,65.042c0,0,15.477,64.034,15.155,64.895
					C311.749,261.201,278.357,269.228,278.357,269.228z"/>
				<path style="opacity:0.3;" d="M265.34,176.969l-0.128,5.045l0.471,1.454c0,0,25.277-30.546,25.921-33.174
					c0.644-2.627-1.875-3.153-1.875-3.153s4.095-2.277,4.62-4.204c0.525-1.927,2.568-15.504,2.568-15.504l-7.763-4.797
					L265.34,176.969z"/>
				<g style="opacity:0.3;">
					<g>
						<path d="M264.236,235.164c-0.387-19.963-0.263-39.97,1.822-59.846c0.05-0.48-0.7-0.476-0.75,0
							c-2.084,19.877-2.209,39.884-1.822,59.846C263.496,235.646,264.246,235.648,264.236,235.164L264.236,235.164z"/>
					</g>
				</g>
				<polygon style="opacity:0.3;" points="280.083,226.145 299.449,222.346 302.635,228.106 282.902,232.274 				"/>
				<polygon style="opacity:0.3;" points="251.245,225.088 235.877,222.073 234.169,228.205 248.426,231.216 				"/>
			</g>
			<g>
				<g>
					<path style="fill:#263238;" d="M240.103,192.316c0.238-0.928,4.539-22.776,4.539-22.776l4.139-4.807l29.506,9.746
						l-11.215,44.433c0,0-4.186,4.643-6.345,4.242c-2.16-0.4-23.027-7.554-23.695-8.488
						C236.365,213.732,240.103,192.316,240.103,192.316z"/>
					<path style="fill:#FFFFFF;" d="M246.564,169.661l2.941-3.528c0,0,27.429,8.947,27.303,9.451
						c-0.126,0.504-10.53,43.437-10.53,43.437l-5.056,3.444l10.322-43.843L246.564,169.661z"/>
				</g>
				<path style="fill:#407BFF;" d="M241.702,135.115c0,0-3.249,0.963-5.034,6.318c-4.347,13.041-14.548,43.37-15.525,50.4
					c-1.246,8.969-3.737,18.188,2.99,21.676c6.727,3.488,24.665,8.471,24.665,8.471l5.463-17.39l-14.93-8.023
					c0,0,1.993-2.242-1.246-3.488l4.287-14.975L241.702,135.115z"/>
				<g style="opacity:0.3;">
					<g>
						<path d="M236.717,218.938c3.994,1.134,7.988,2.269,11.981,3.403c0.2,0.057,0.401-0.07,0.461-0.262
							c1.59-5.061,3.18-10.122,4.769-15.182c0.231-0.736,0.462-1.472,0.693-2.207c0.145-0.462-0.579-0.659-0.723-0.199
							c-1.59,5.061-3.18,10.122-4.769,15.182c-0.231,0.736-0.462,1.472-0.693,2.207c0.154-0.087,0.308-0.175,0.461-0.262
							c-3.994-1.134-7.987-2.269-11.981-3.403C236.451,218.083,236.253,218.807,236.717,218.938L236.717,218.938z"/>
					</g>
				</g>
				<path style="fill:#FDBBB5;" d="M250.108,208.673c0,0,2.003-0.298,4.135-1.72c2.133-1.422,4.469-2.641,6.399-2.946
					c1.93-0.305,8.228-1.727,8.228-1.727s1.32,2.438-0.914,3.301c-2.235,0.863-5.079,1.371-5.993,2.387
					c-0.914,1.016-0.203,2.641,2.641,2.438c2.844-0.203,5.18-1.524,6.298-0.914c1.117,0.609,0.914,4.876,0,6.399l-0.609,1.016
					c0,0,0.305,1.625-0.609,2.336c-0.914,0.711-0.914,0.711-0.914,0.711s1.32,1.469-0.305,2.462
					c-1.625,0.992-5.587,2.82-7.618,2.414c-2.031-0.406-8.461-4.876-10.376-5.18c-1.915-0.305-2.524-3.961-2.118-6.907
					C248.759,209.797,250.108,208.673,250.108,208.673z"/>
				<g style="opacity:0.3;">
					<g>
						<path d="M241.591,184.98c0.593-12.315,0.927-24.645,1.286-36.969c0.035-1.192,0.069-2.384,0.102-3.576
							c0.014-0.483-0.736-0.482-0.75,0c-0.285,10.188-0.598,20.375-0.975,30.56c-0.123,3.329-0.253,6.658-0.413,9.985
							C240.818,185.462,241.568,185.461,241.591,184.98L241.591,184.98z"/>
					</g>
				</g>
			</g>
			<polygon style="opacity:0.3;" points="300.811,209.794 299.986,250.21 310.393,250.328 310.978,252.896 298.58,252.2 
				299.561,204.59 			"/>
			<path style="opacity:0.3;" d="M297.357,163.338l2.701,15.624l-2.701,16.482C297.357,195.444,295.813,167.752,297.357,163.338z"/>
			<g>
				<path style="fill:#407BFF;" d="M308.014,130.402c0,0,3.565-0.958,6.305,7.467c2.741,8.425,5.632,64.096,5.348,72.938
					c-0.345,10.733-4.99,39.52-4.99,39.52l-14.693-0.118c0,0,1.246-52.675,0.997-62.339c-0.249-9.664-4.734-27.604-4.734-27.604
					S300.042,130.402,308.014,130.402z"/>
				<g>
					<g>
						<path style="fill:#263238;" d="M300.868,150.457c0.128-6.965,2.149-13.587,6.485-19.097c0.295-0.375-0.232-0.91-0.53-0.53
							c-4.466,5.674-6.573,12.448-6.705,19.628C300.109,150.94,300.859,150.94,300.868,150.457L300.868,150.457z"/>
					</g>
				</g>
				<g>
					<path style="fill:#407BFF;" d="M275.303,321.544c0,0,2.236-43.758,2.931-46.974c0.524-2.426,1.703-4.637,5.698-4.637
						s41.065,1.917,42.503,2.237c1.438,0.32,4.146,2.557,3.751,5.592c-0.395,3.036,1.673,12.943,0,14.221
						c-1.673,1.278-1.673,1.278-1.673,1.278s0.479,26.204,0,27.642C328.032,322.343,275.303,321.544,275.303,321.544z"/>
					<path style="opacity:0.3;" d="M275.303,321.544c0,0,2.236-43.758,2.931-46.974c0.524-2.426,1.703-4.637,5.698-4.637
						s41.065,1.917,42.503,2.237c1.438,0.32,4.146,2.557,3.751,5.592c-0.395,3.036,1.673,12.943,0,14.221
						c-1.673,1.278-1.673,1.278-1.673,1.278s0.479,26.204,0,27.642C328.032,322.343,275.303,321.544,275.303,321.544z"/>
					<path style="opacity:0.3;" d="M278.234,274.571c-0.178,0.823-0.348,2.713-0.664,7.43l12.612,0.35l-0.111-4.664
						c-0.722-4.85-2.681-6.916-4.634-7.719c-0.681-0.022-1.193-0.033-1.505-0.033C279.937,269.934,278.758,272.145,278.234,274.571z
						"/>
					<g>
						<g>
							<path style="fill:#263238;" d="M285.217,270.565c3.4,1.121,4.381,4.857,4.541,8.049c0.168,3.343,0.071,6.712,0.098,10.059
								c0.009,1.091-0.043,2.29,0.45,3.297c0.526,1.076,1.533,1.569,2.619,1.939c2.535,0.863,5.135,1.604,7.728,2.267
								c3.895,0.996,8.275,2.016,12.286,1.128c2.691-0.595,5.368-1.261,8.051-1.891c2.54-0.597,5.081-1.193,7.621-1.79
								c0.47-0.11,0.271-0.834-0.199-0.723c-4.993,1.173-9.986,2.346-14.979,3.519c-3.728,0.876-7.541,0.233-11.221-0.631
								c-2.613-0.614-5.185-1.386-7.747-2.181c-1.549-0.481-3.264-0.813-3.709-2.633c-0.4-1.635-0.158-3.554-0.169-5.224
								c-0.033-5.119,1.128-13.831-5.17-15.908C284.957,269.69,284.76,270.415,285.217,270.565L285.217,270.565z"/>
						</g>
					</g>
					<path style="fill:#263238;" d="M306.529,297.032c-0.153,0.268-0.996,6.514,0,6.974c0.996,0.46,6.208,1.303,6.591,0
						c0.383-1.303-0.153-6.766-0.153-6.766s-0.534,0.054-1.84-0.002c-1.305-0.056-4.312-0.425-4.312-0.425"/>
					<g>
						<path style="fill:#407BFF;" d="M303.143,262.837c-4.791-0.093-9.479,3.055-11.207,7.524l4.071,0.172
							c1.486-2.163,4.336-3.72,6.96-3.68c2.624,0.04,5.624,2.128,7.043,4.336l4.608,0.226
							C313.063,266.882,307.934,262.93,303.143,262.837z"/>
					</g>
					<g style="opacity:0.3;">
						<path d="M303.143,262.837c-4.791-0.093-9.479,3.055-11.207,7.524l4.071,0.172c1.486-2.163,4.336-3.72,6.96-3.68
							c2.624,0.04,5.624,2.128,7.043,4.336l4.608,0.226C313.063,266.882,307.934,262.93,303.143,262.837z"/>
					</g>
					<g style="opacity:0.3;">
						<g>
							<path d="M291.025,321.765c0.309-9.945-0.309-19.892,0-29.837c0.015-0.483-0.735-0.482-0.75,0
								c-0.309,9.945,0.309,19.892,0,29.837C290.26,322.248,291.01,322.248,291.025,321.765L291.025,321.765z"/>
						</g>
					</g>
					<path style="opacity:0.3;" d="M291.028,292.409c0,0,0.26,1.081,3.218,2.638c2.958,1.557,15.257,4.048,18.293,3.736
						c3.036-0.311,14.658-5.212,14.658-5.212s-13.126,2.945-16.424,3.647C307.678,297.877,291.339,293.14,291.028,292.409z"/>
					<path style="opacity:0.3;" d="M292.003,270.226l4.07,0.202c0.209-0.293,0.485-0.602,0.782-0.916l-4.251-0.559
						C292.344,269.417,292.13,269.85,292.003,270.226z"/>
					<path style="opacity:0.3;" d="M310.009,271.189l4.608,0.226c0,0-0.308-0.87-0.451-1.098l-4.677,0.155L310.009,271.189z"/>
				</g>
				<path style="fill:#FDBBB5;" d="M302.251,249.933c-0.55,0.062-0.709,2.313-0.709,2.313s-4.083,5.153-4.378,6.332
					c-0.295,1.179-2.801,5.307-1.916,5.97c0.884,0.663,2.712,0.516,3.715-0.811c1.002-1.327,3.508-5.733,4.761-5.483
					c1.253,0.25,0.542,5.188-0.687,7.104c-1.229,1.916-4.356,2.375-4.356,2.375s2.467,1.73,5.701,1.089c0,0,1.259,1.868,3.838,1.008
					c2.58-0.86,3.612-2.113,4.422-3.809c0.811-1.695-0.357-15.716-0.357-15.716S309.227,249.15,302.251,249.933z"/>
			</g>
		</g>
	</g>
</g>
</svg>
