<svg width="460" height="476" viewBox="0 0 460 476" fill="none" xmlns="http://www.w3.org/2000/svg">
<path d="M223.127 450.165C322.676 450.165 403.377 369.465 403.377 269.915C403.377 170.366 322.676 89.6656 223.127 89.6656C123.578 89.6656 42.877 170.366 42.877 269.915C42.877 369.465 123.578 450.165 223.127 450.165Z" fill="#F8E4CF"/>
<path d="M223.127 450.165C299.206 450.165 360.881 369.465 360.881 269.915C360.881 170.366 299.206 89.6656 223.127 89.6656C147.047 89.6656 85.3726 170.366 85.3726 269.915C85.3726 369.465 147.047 450.165 223.127 450.165Z" stroke="#DEC5AB" stroke-width="0.5" stroke-miterlimit="10"/>
<path d="M223.127 450.165C247.146 450.165 266.618 369.465 266.618 269.915C266.618 170.366 247.146 89.6656 223.127 89.6656C199.107 89.6656 179.636 170.366 179.636 269.915C179.636 369.465 199.107 450.165 223.127 450.165Z" stroke="#DEC5AB" stroke-width="0.5" stroke-miterlimit="10"/>
<path d="M223.127 407.67C322.676 407.67 403.377 345.995 403.377 269.915C403.377 193.836 322.676 132.161 223.127 132.161C123.578 132.161 42.877 193.836 42.877 269.915C42.877 345.995 123.578 407.67 223.127 407.67Z" stroke="#DEC5AB" stroke-width="0.5" stroke-miterlimit="10"/>
<path d="M223.127 313.407C322.676 313.407 403.377 293.935 403.377 269.915C403.377 245.896 322.676 226.424 223.127 226.424C123.578 226.424 42.877 245.896 42.877 269.915C42.877 293.935 123.578 313.407 223.127 313.407Z" stroke="#DEC5AB" stroke-width="0.5" stroke-miterlimit="10"/>
<path d="M293.277 143.127C293.277 149.153 282.365 162.205 282.365 162.205C282.365 162.205 271.453 149.153 271.453 143.127C271.453 137.101 276.339 132.215 282.365 132.215C288.391 132.216 293.277 137.102 293.277 143.127Z" fill="#DEC5AB"/>
<path d="M282.365 147.977C285.043 147.977 287.214 145.805 287.214 143.127C287.214 140.449 285.043 138.278 282.365 138.278C279.687 138.278 277.515 140.449 277.515 143.127C277.515 145.805 279.687 147.977 282.365 147.977Z" fill="#F8E4CF"/>
<path d="M122.665 273.941C122.665 279.968 111.754 293.019 111.754 293.019C111.754 293.019 100.842 279.968 100.842 273.941C100.842 267.915 105.727 263.03 111.754 263.03C117.78 263.03 122.665 267.915 122.665 273.941Z" fill="#DEC5AB"/>
<path d="M116.603 273.941C116.603 276.62 114.432 278.791 111.754 278.791C109.075 278.791 106.904 276.62 106.904 273.941C106.904 271.263 109.075 269.092 111.754 269.092C114.432 269.092 116.603 271.263 116.603 273.941Z" fill="#F8E4CF"/>
<path d="M378.317 293.554H242.813V377.348H378.317V293.554Z" fill="#3B7977"/>
<path d="M378.317 302.979H242.813V367.921H378.317V302.979Z" fill="#184347"/>
<path d="M248.705 302.979V367.921" stroke="#3B7977" stroke-width="2" stroke-miterlimit="10"/>
<path d="M256.953 302.979V367.921" stroke="#3B7977" stroke-width="2" stroke-miterlimit="10"/>
<path d="M265.201 302.979V367.921" stroke="#3B7977" stroke-width="2" stroke-miterlimit="10"/>
<path d="M273.449 302.979V367.921" stroke="#3B7977" stroke-width="2" stroke-miterlimit="10"/>
<path d="M281.697 302.979V367.921" stroke="#3B7977" stroke-width="2" stroke-miterlimit="10"/>
<path d="M289.945 302.979V367.921" stroke="#3B7977" stroke-width="2" stroke-miterlimit="10"/>
<path d="M298.193 302.979V367.921" stroke="#3B7977" stroke-width="2" stroke-miterlimit="10"/>
<path d="M306.441 302.979V367.921" stroke="#3B7977" stroke-width="2" stroke-miterlimit="10"/>
<path d="M314.689 302.979V367.921" stroke="#3B7977" stroke-width="2" stroke-miterlimit="10"/>
<path d="M322.937 302.979V367.921" stroke="#3B7977" stroke-width="2" stroke-miterlimit="10"/>
<path d="M331.185 302.979V367.921" stroke="#3B7977" stroke-width="2" stroke-miterlimit="10"/>
<path d="M339.434 302.979V367.921" stroke="#3B7977" stroke-width="2" stroke-miterlimit="10"/>
<path d="M347.681 302.979V367.921" stroke="#3B7977" stroke-width="2" stroke-miterlimit="10"/>
<path d="M355.929 302.979V367.921" stroke="#3B7977" stroke-width="2" stroke-miterlimit="10"/>
<path d="M364.178 302.979V367.921" stroke="#3B7977" stroke-width="2" stroke-miterlimit="10"/>
<path d="M372.426 302.979V367.921" stroke="#3B7977" stroke-width="2" stroke-miterlimit="10"/>
<path d="M259.296 330.939V333.419H265.568V338.18H259.296V341.031H266.424V346.077H252.968V325.893H266.424V330.939H259.296ZM281.666 346.077L277.96 340.831L274.881 346.077H267.668L274.311 335.671L267.383 325.893H274.881L278.445 330.939L281.41 325.893H288.622L282.094 336.099L289.164 346.077H281.666ZM307.086 332.82C307.086 334.094 306.792 335.253 306.203 336.298C305.613 337.325 304.739 338.142 303.58 338.75C302.44 339.358 301.052 339.662 299.418 339.662H296.909V346.077H290.58V325.893H299.418C301.888 325.893 303.779 326.52 305.091 327.774C306.421 329.029 307.086 330.711 307.086 332.82ZM298.705 334.673C300.016 334.673 300.672 334.056 300.672 332.82C300.672 331.585 300.016 330.967 298.705 330.967H296.909V334.673H298.705ZM318.929 346.276C317.029 346.276 315.28 345.83 313.684 344.937C312.106 344.043 310.852 342.808 309.921 341.23C308.989 339.653 308.524 337.876 308.524 335.899C308.524 333.923 308.989 332.146 309.921 330.568C310.852 328.991 312.106 327.765 313.684 326.891C315.28 325.997 317.029 325.551 318.929 325.551C320.83 325.551 322.569 325.997 324.146 326.891C325.724 327.765 326.969 328.991 327.881 330.568C328.812 332.146 329.278 333.923 329.278 335.899C329.278 337.876 328.812 339.653 327.881 341.23C326.969 342.808 325.714 344.043 324.118 344.937C322.54 345.83 320.811 346.276 318.929 346.276ZM318.929 340.375C320.184 340.375 321.153 339.976 321.837 339.178C322.521 338.361 322.864 337.268 322.864 335.899C322.864 334.512 322.521 333.419 321.837 332.621C321.153 331.804 320.184 331.395 318.929 331.395C317.656 331.395 316.677 331.804 315.993 332.621C315.309 333.419 314.967 334.512 314.967 335.899C314.967 337.268 315.309 338.361 315.993 339.178C316.677 339.976 317.656 340.375 318.929 340.375ZM341.71 346.077L337.918 338.836H337.89V346.077H331.561V325.893H340.969C342.603 325.893 344 326.187 345.16 326.777C346.319 327.347 347.184 328.135 347.754 329.143C348.343 330.131 348.638 331.252 348.638 332.507C348.638 333.856 348.258 335.054 347.497 336.099C346.756 337.144 345.682 337.895 344.276 338.351L348.666 346.077H341.71ZM337.89 334.616H340.399C341.007 334.616 341.463 334.483 341.767 334.217C342.071 333.932 342.223 333.495 342.223 332.906C342.223 332.374 342.062 331.956 341.739 331.652C341.435 331.347 340.988 331.195 340.399 331.195H337.89V334.616ZM366.51 325.893V330.91H361.151V346.077H354.822V330.91H349.519V325.893H366.51Z" fill="#F8E4CF"/>
<path d="M378.317 209.99H242.813V293.784H378.317V209.99Z" fill="#3B7977"/>
<path d="M378.317 219.417H242.813V284.359H378.317V219.417Z" fill="#184347"/>
<path d="M248.705 219.417V284.359" stroke="#3B7977" stroke-width="2" stroke-miterlimit="10"/>
<path d="M256.953 219.417V284.359" stroke="#3B7977" stroke-width="2" stroke-miterlimit="10"/>
<path d="M265.201 219.417V284.359" stroke="#3B7977" stroke-width="2" stroke-miterlimit="10"/>
<path d="M273.449 219.417V284.359" stroke="#3B7977" stroke-width="2" stroke-miterlimit="10"/>
<path d="M281.697 219.417V284.359" stroke="#3B7977" stroke-width="2" stroke-miterlimit="10"/>
<path d="M289.945 219.417V284.359" stroke="#3B7977" stroke-width="2" stroke-miterlimit="10"/>
<path d="M298.193 219.417V284.359" stroke="#3B7977" stroke-width="2" stroke-miterlimit="10"/>
<path d="M306.441 219.417V284.359" stroke="#3B7977" stroke-width="2" stroke-miterlimit="10"/>
<path d="M314.689 219.417V284.359" stroke="#3B7977" stroke-width="2" stroke-miterlimit="10"/>
<path d="M322.937 219.417V284.359" stroke="#3B7977" stroke-width="2" stroke-miterlimit="10"/>
<path d="M331.185 219.417V284.359" stroke="#3B7977" stroke-width="2" stroke-miterlimit="10"/>
<path d="M339.434 219.417V284.359" stroke="#3B7977" stroke-width="2" stroke-miterlimit="10"/>
<path d="M347.681 219.417V284.359" stroke="#3B7977" stroke-width="2" stroke-miterlimit="10"/>
<path d="M355.929 219.417V284.359" stroke="#3B7977" stroke-width="2" stroke-miterlimit="10"/>
<path d="M364.178 219.417V284.359" stroke="#3B7977" stroke-width="2" stroke-miterlimit="10"/>
<path d="M372.426 219.417V284.359" stroke="#3B7977" stroke-width="2" stroke-miterlimit="10"/>
<path d="M242.813 293.554H378.317" stroke="#184347" stroke-width="0.5" stroke-miterlimit="10"/>
<path d="M445.061 319.378H377.978V377.348H445.061V319.378Z" fill="#CA791E"/>
<path d="M418.397 319.378H404.643V333.364H418.397V319.378Z" fill="#EA9633"/>
<path d="M390.67 365.143H382.381V373.641H390.67V365.143Z" fill="#F8E4CF"/>
<path d="M400.075 367.345H393.778V373.642H400.075V367.345Z" fill="#374A3A"/>
<path d="M445.061 203.437H377.978V261.407H445.061V203.437Z" fill="#CA791E"/>
<path d="M418.397 203.437H404.643V217.424H418.397V203.437Z" fill="#EA9633"/>
<path d="M390.67 249.203H382.381V257.701H390.67V249.203Z" fill="#F8E4CF"/>
<path d="M400.075 251.405H393.778V257.702H400.075V251.405Z" fill="#374A3A"/>
<path d="M434.402 261.407H367.319V319.378H434.402V261.407Z" fill="#EA9633"/>
<path d="M407.738 261.407H393.984V275.394H407.738V261.407Z" fill="#CA791E"/>
<path d="M380.011 307.173H371.722V315.671H380.011V307.173Z" fill="#F8E4CF"/>
<path d="M389.416 309.375H383.119V315.672H389.416V309.375Z" fill="#374A3A"/>
<path d="M460 377.579H227.876V386.281H460V377.579Z" fill="#374A3A"/>
<path d="M348.946 188.723C348.946 191.489 346.703 193.731 343.938 193.731C341.172 193.731 338.929 191.488 338.929 188.723C338.929 185.957 341.172 183.714 343.938 183.714C346.704 183.714 348.946 185.957 348.946 188.723Z" fill="#374A3A"/>
<path d="M233.245 380.449L343.938 188.723L454.63 380.449H233.245Z" stroke="#374A3A" stroke-miterlimit="10"/>
<path d="M343.938 188.723V0" stroke="#374A3A" stroke-miterlimit="10"/>
<path d="M220.772 103.84H122.385V235.945H220.772V103.84Z" fill="#CA791E"/>
<path d="M171.578 103.84V235.945" stroke="#EA9633" stroke-width="0.5" stroke-miterlimit="10"/>
<path d="M220.772 147.177H122.385" stroke="#EA9633" stroke-width="0.5" stroke-miterlimit="10"/>
<path d="M220.772 192.609H122.385" stroke="#EA9633" stroke-width="0.5" stroke-miterlimit="10"/>
<path d="M194.758 135.772H189.892V141.682H194.758V135.772Z" fill="#374A3A"/>
<path d="M202.753 135.772H197.887V141.682H202.753V135.772Z" fill="#F8E4CF"/>
<path d="M146.553 135.772H141.688V141.682H146.553V135.772Z" fill="#374A3A"/>
<path d="M154.548 135.772H149.682V141.682H154.548V135.772Z" fill="#F8E4CF"/>
<path d="M194.758 181.878H189.892V187.788H194.758V181.878Z" fill="#374A3A"/>
<path d="M202.753 181.878H197.887V187.788H202.753V181.878Z" fill="#F8E4CF"/>
<path d="M146.553 181.878H141.688V187.788H146.553V181.878Z" fill="#374A3A"/>
<path d="M154.548 181.878H149.682V187.788H154.548V181.878Z" fill="#F8E4CF"/>
<path d="M194.758 227.985H189.892V233.895H194.758V227.985Z" fill="#374A3A"/>
<path d="M202.753 227.985H197.887V233.895H202.753V227.985Z" fill="#F8E4CF"/>
<path d="M146.553 227.985H141.688V233.895H146.553V227.985Z" fill="#374A3A"/>
<path d="M154.548 227.985H149.682V233.895H154.548V227.985Z" fill="#F8E4CF"/>
<path d="M183.34 103.84H159.816V131.53H183.34V103.84Z" fill="#374A3A"/>
<path d="M122.393 74.354H32.3658V152.151H122.393V74.354Z" fill="#EA9633"/>
<path d="M86.6088 74.354H68.1509V93.1242H86.6088V74.354Z" fill="#CA791E"/>
<path d="M49.397 135.772H38.2744V147.177H49.397V135.772Z" fill="#F8E4CF"/>
<path d="M62.0191 138.727H53.5695V147.177H62.0191V138.727Z" fill="#374A3A"/>
<path d="M148.257 152.15H12.7526V235.944H148.257V152.15Z" fill="#FFAC48"/>
<path d="M148.257 161.577H12.7526V226.519H148.257V161.577Z" fill="#EA9633"/>
<path d="M18.6447 161.577V226.519" stroke="#FFAC48" stroke-width="2" stroke-miterlimit="10"/>
<path d="M26.8925 161.577V226.519" stroke="#FFAC48" stroke-width="2" stroke-miterlimit="10"/>
<path d="M35.1403 161.577V226.519" stroke="#FFAC48" stroke-width="2" stroke-miterlimit="10"/>
<path d="M43.3891 161.577V226.519" stroke="#FFAC48" stroke-width="2" stroke-miterlimit="10"/>
<path d="M51.6369 161.577V226.519" stroke="#FFAC48" stroke-width="2" stroke-miterlimit="10"/>
<path d="M59.8847 161.577V226.519" stroke="#FFAC48" stroke-width="2" stroke-miterlimit="10"/>
<path d="M68.1325 161.577V226.519" stroke="#FFAC48" stroke-width="2" stroke-miterlimit="10"/>
<path d="M76.3813 161.577V226.519" stroke="#FFAC48" stroke-width="2" stroke-miterlimit="10"/>
<path d="M84.629 161.577V226.519" stroke="#FFAC48" stroke-width="2" stroke-miterlimit="10"/>
<path d="M92.8768 161.577V226.519" stroke="#FFAC48" stroke-width="2" stroke-miterlimit="10"/>
<path d="M101.125 161.577V226.519" stroke="#FFAC48" stroke-width="2" stroke-miterlimit="10"/>
<path d="M109.373 161.577V226.519" stroke="#FFAC48" stroke-width="2" stroke-miterlimit="10"/>
<path d="M117.621 161.577V226.519" stroke="#FFAC48" stroke-width="2" stroke-miterlimit="10"/>
<path d="M125.869 161.577V226.519" stroke="#FFAC48" stroke-width="2" stroke-miterlimit="10"/>
<path d="M134.117 161.577V226.519" stroke="#FFAC48" stroke-width="2" stroke-miterlimit="10"/>
<path d="M142.366 161.577V226.519" stroke="#FFAC48" stroke-width="2" stroke-miterlimit="10"/>
<path d="M30.2336 185.056V205.24H23.9046V185.056H30.2336ZM57.3528 185.056V205.24H51.0524V195.177L47.945 205.24H42.5283L39.4209 195.177V205.24H33.092V185.056H40.8463L45.2937 197.172L49.627 185.056H57.3528ZM76.715 191.984C76.715 193.257 76.4205 194.416 75.8313 195.462C75.2421 196.488 74.3678 197.305 73.2085 197.913C72.0681 198.522 70.6807 198.826 69.0462 198.826H66.5375V205.24H60.2086V185.056H69.0462C71.517 185.056 73.4081 185.683 74.7194 186.938C76.0498 188.192 76.715 189.874 76.715 191.984ZM68.3335 193.837C69.6449 193.837 70.3006 193.219 70.3006 191.984C70.3006 190.748 69.6449 190.131 68.3335 190.131H66.5375V193.837H68.3335ZM88.5579 205.44C86.6573 205.44 84.9088 204.993 83.3123 204.1C81.7349 203.207 80.4805 201.971 79.5492 200.394C78.6179 198.816 78.1523 197.039 78.1523 195.063C78.1523 193.086 78.6179 191.309 79.5492 189.731C80.4805 188.154 81.7349 186.928 83.3123 186.054C84.9088 185.161 86.6573 184.714 88.5579 184.714C90.4585 184.714 92.1975 185.161 93.775 186.054C95.3525 186.928 96.5973 188.154 97.5096 189.731C98.4409 191.309 98.9065 193.086 98.9065 195.063C98.9065 197.039 98.4409 198.816 97.5096 200.394C96.5973 201.971 95.343 203.207 93.7465 204.1C92.169 204.993 90.4395 205.44 88.5579 205.44ZM88.5579 199.538C89.8123 199.538 90.7816 199.139 91.4658 198.341C92.15 197.524 92.4921 196.431 92.4921 195.063C92.4921 193.675 92.15 192.582 91.4658 191.784C90.7816 190.967 89.8123 190.558 88.5579 190.558C87.2845 190.558 86.3057 190.967 85.6215 191.784C84.9373 192.582 84.5952 193.675 84.5952 195.063C84.5952 196.431 84.9373 197.524 85.6215 198.341C86.3057 199.139 87.2845 199.538 88.5579 199.538ZM111.339 205.24L107.547 197.999H107.519V205.24H101.19V185.056H110.598C112.232 185.056 113.629 185.351 114.788 185.94C115.948 186.51 116.812 187.299 117.383 188.306C117.972 189.294 118.266 190.416 118.266 191.67C118.266 193.019 117.886 194.217 117.126 195.262C116.385 196.307 115.311 197.058 113.905 197.514L118.295 205.24H111.339ZM107.519 193.78H110.027C110.636 193.78 111.092 193.647 111.396 193.381C111.7 193.095 111.852 192.658 111.852 192.069C111.852 191.537 111.69 191.119 111.367 190.815C111.063 190.511 110.617 190.359 110.027 190.359H107.519V193.78ZM136.139 185.056V190.074H130.779V205.24H124.45V190.074H119.148V185.056H136.139Z" fill="#F8E4CF"/>
<path d="M232.825 235.945H0.700989V244.647H232.825V235.945Z" fill="#374A3A"/>
<path d="M121.771 47.0891C121.771 49.8554 119.528 52.0984 116.762 52.0984C113.996 52.0984 111.753 49.8554 111.753 47.0891C111.753 44.3228 113.996 42.0808 116.762 42.0808C119.529 42.0798 121.771 44.3228 121.771 47.0891Z" fill="#374A3A"/>
<path d="M6.06979 238.815L116.762 47.0891L227.455 238.815H6.06979Z" stroke="#374A3A" stroke-miterlimit="10"/>
<path d="M116.762 47.0891V0" stroke="#374A3A" stroke-miterlimit="10"/>
<path d="M109.454 388.004H10.5076V462.651H109.454V388.004Z" fill="#EA9633"/>
<path d="M109.455 388.004H79.757V462.651H109.455V388.004Z" fill="#CA791E"/>
<path d="M52.3375 388.004H37.0433V405.1H52.3375V388.004Z" fill="#374A3A"/>
<path d="M99.0845 388.004H90.127V405.1H99.0845V388.004Z" fill="#374A3A"/>
<path d="M54.8262 450.082L49.9224 444.476L45.0186 450.082H47.533V455.462H52.3119V450.082H54.8262Z" fill="#374A3A"/>
<path d="M44.3611 450.082L39.4573 444.476L34.5535 450.082H37.0678V455.462H41.8467V450.082H44.3611Z" fill="#374A3A"/>
<path d="M148.558 313.357H49.6111V388.004H148.558V313.357Z" fill="#EA9633"/>
<path d="M148.558 313.357H118.859V388.004H148.558V313.357Z" fill="#CA791E"/>
<path d="M91.4399 313.357H76.1458V330.453H91.4399V313.357Z" fill="#374A3A"/>
<path d="M138.188 313.357H129.23V330.453H138.188V313.357Z" fill="#374A3A"/>
<path d="M93.9297 375.436L89.0259 369.83L84.1211 375.436H86.6365V380.815H91.4143V375.436H93.9297Z" fill="#374A3A"/>
<path d="M83.4646 375.436L78.5597 369.83L73.6559 375.436H76.1713V380.815H80.9492V375.436H83.4646Z" fill="#374A3A"/>
<path d="M208.238 388.004H109.292V462.651H208.238V388.004Z" fill="#EA9633"/>
<path d="M208.238 388.004H178.54V462.651H208.238V388.004Z" fill="#CA791E"/>
<path d="M151.12 388.004H135.826V405.1H151.12V388.004Z" fill="#374A3A"/>
<path d="M197.868 388.004H188.911V405.1H197.868V388.004Z" fill="#374A3A"/>
<path d="M153.61 450.082L148.705 444.476L143.802 450.082H146.317V455.462H151.095V450.082H153.61Z" fill="#374A3A"/>
<path d="M143.145 450.082L138.24 444.476L133.336 450.082H135.852V455.462H140.63V450.082H143.145Z" fill="#374A3A"/>
<path d="M226.328 49.84V58.0335" stroke="#DEC5AB" stroke-miterlimit="10"/>
<path d="M230.425 53.9368H222.232" stroke="#DEC5AB" stroke-miterlimit="10"/>
<path d="M18.6447 103.895V112.088" stroke="#DEC5AB" stroke-miterlimit="10"/>
<path d="M22.7415 107.991H14.548" stroke="#DEC5AB" stroke-miterlimit="10"/>
<path d="M372.426 123.237V131.431" stroke="#DEC5AB" stroke-miterlimit="10"/>
<path d="M376.523 127.334H368.329" stroke="#DEC5AB" stroke-miterlimit="10"/>
<path d="M449.159 288.789V296.983" stroke="#DEC5AB" stroke-miterlimit="10"/>
<path d="M453.256 292.886H445.062" stroke="#DEC5AB" stroke-miterlimit="10"/>
<path d="M368.329 410.061V418.255" stroke="#DEC5AB" stroke-miterlimit="10"/>
<path d="M372.426 414.158H364.232" stroke="#DEC5AB" stroke-miterlimit="10"/>
<path d="M32.3658 333.368V341.561" stroke="#DEC5AB" stroke-miterlimit="10"/>
<path d="M36.4625 337.465H28.269" stroke="#DEC5AB" stroke-miterlimit="10"/>
<path d="M169.71 75.6188C171.407 75.6188 172.783 74.2432 172.783 72.5463C172.783 70.8493 171.407 69.4737 169.71 69.4737C168.013 69.4737 166.638 70.8493 166.638 72.5463C166.638 74.2432 168.013 75.6188 169.71 75.6188Z" stroke="#DEC5AB" stroke-miterlimit="10"/>
<path d="M411.52 171.752C413.217 171.752 414.593 170.377 414.593 168.68C414.593 166.983 413.217 165.607 411.52 165.607C409.823 165.607 408.448 166.983 408.448 168.68C408.448 170.377 409.823 171.752 411.52 171.752Z" stroke="#DEC5AB" stroke-miterlimit="10"/>
<path d="M12.7526 130.407C14.4495 130.407 15.8252 129.031 15.8252 127.334C15.8252 125.637 14.4495 124.262 12.7526 124.262C11.0557 124.262 9.68005 125.637 9.68005 127.334C9.68005 129.031 11.0557 130.407 12.7526 130.407Z" stroke="#DEC5AB" stroke-miterlimit="10"/>
<path d="M18.6447 363.618C20.3417 363.618 21.7173 362.243 21.7173 360.546C21.7173 358.849 20.3417 357.473 18.6447 357.473C16.9478 357.473 15.5722 358.849 15.5722 360.546C15.5722 362.243 16.9478 363.618 18.6447 363.618Z" stroke="#DEC5AB" stroke-miterlimit="10"/>
<path d="M339.434 447.548C341.131 447.548 342.506 446.173 342.506 444.476C342.506 442.779 341.131 441.403 339.434 441.403C337.737 441.403 336.361 442.779 336.361 444.476C336.361 446.173 337.737 447.548 339.434 447.548Z" stroke="#DEC5AB" stroke-miterlimit="10"/>
<path d="M231.533 266.683C231.533 266.683 238.543 263.388 239.465 262.638C240.386 261.887 240.235 256.723 241.048 255.247C241.861 253.771 245.92 249.529 247.027 248.975C248.134 248.422 257.173 248.422 258.279 248.975C259.386 249.528 252.93 257.092 252.377 258.382C251.824 259.674 247.58 265.759 246.29 266.313C244.998 266.867 237.263 272.401 237.263 272.401L231.533 266.683Z" fill="#A64912"/>
<path d="M282.499 270.66C282.639 271.452 282.111 272.207 281.32 272.347L249.393 278.001C248.601 278.142 247.847 277.613 247.706 276.823L239.67 231.443C239.529 230.651 240.058 229.896 240.848 229.756L272.775 224.101C273.567 223.961 274.322 224.49 274.462 225.28L282.499 270.66Z" fill="#602116"/>
<path d="M270.916 226.322L243.368 231.201L250.036 268.845L277.583 263.966L270.916 226.322Z" fill="#F8E4CF"/>
<path d="M268.573 231.506L266.065 231.95L266.509 234.458L269.018 234.014L268.573 231.506Z" fill="#DEC5AB"/>
<path d="M262.706 233.282L246.622 236.131L246.844 237.385L262.928 234.536L262.706 233.282Z" fill="#DEC5AB"/>
<path d="M267.003 233.068L267.63 233.512C267.63 233.512 268.262 231.829 270.236 230.464" stroke="#BD3E00" stroke-width="0.5" stroke-miterlimit="10"/>
<path d="M269.568 237.118L267.06 237.562L267.504 240.071L270.012 239.626L269.568 237.118Z" fill="#DEC5AB"/>
<path d="M263.702 238.893L247.618 241.742L247.84 242.995L263.924 240.147L263.702 238.893Z" fill="#DEC5AB"/>
<path d="M267.997 238.681L268.624 239.124C268.624 239.124 269.256 237.443 271.231 236.076" stroke="#BD3E00" stroke-width="0.5" stroke-miterlimit="10"/>
<path d="M270.57 242.718L268.062 243.162L268.506 245.671L271.014 245.226L270.57 242.718Z" fill="#DEC5AB"/>
<path d="M264.694 244.508L248.61 247.356L248.832 248.61L264.916 245.761L264.694 244.508Z" fill="#DEC5AB"/>
<path d="M268.992 244.293L269.619 244.737C269.619 244.737 270.251 243.054 272.225 241.689" stroke="#BD3E00" stroke-width="0.5" stroke-miterlimit="10"/>
<path d="M271.554 248.347L269.046 248.791L269.49 251.299L271.999 250.855L271.554 248.347Z" fill="#DEC5AB"/>
<path d="M265.689 250.121L249.605 252.97L249.827 254.224L265.911 251.375L265.689 250.121Z" fill="#DEC5AB"/>
<path d="M269.985 249.906L270.612 250.349C270.612 250.349 271.244 248.667 273.219 247.301" stroke="#BD3E00" stroke-width="0.5" stroke-miterlimit="10"/>
<path d="M272.549 253.96L270.041 254.404L270.485 256.912L272.993 256.468L272.549 253.96Z" fill="#DEC5AB"/>
<path d="M266.683 255.734L250.599 258.583L250.821 259.836L266.905 256.988L266.683 255.734Z" fill="#DEC5AB"/>
<path d="M270.98 255.518L271.607 255.962C271.607 255.962 272.239 254.279 274.213 252.914" stroke="#BD3E00" stroke-width="0.5" stroke-miterlimit="10"/>
<path d="M266.539 223.44L258.911 224.791C258.676 223.463 257.409 222.579 256.083 222.814C254.756 223.049 253.871 224.316 254.106 225.642L246.478 226.993C245.687 227.133 245.159 227.888 245.299 228.68L245.603 230.392C245.743 231.184 246.498 231.711 247.289 231.571L267.352 228.018C268.144 227.878 268.671 227.123 268.531 226.331L268.228 224.619C268.086 223.827 267.33 223.3 266.539 223.44Z" fill="#BD3E00"/>
<path d="M257.224 225.09C257.294 225.485 257.03 225.863 256.634 225.934C256.239 226.003 255.861 225.74 255.791 225.344C255.722 224.948 255.985 224.571 256.381 224.501C256.776 224.429 257.154 224.693 257.224 225.09Z" fill="#602116"/>
<path d="M238.439 263.262C241.562 263.404 246.422 263.554 246.564 263.13C246.774 262.504 253.762 256.347 252.08 255.247C250.396 254.147 246.766 257.375 244.972 257.375C243.177 257.375 241.05 255.247 241.05 255.247C240.236 256.723 240.388 261.888 239.467 262.638C239.299 262.773 238.928 262.994 238.439 263.262Z" fill="#D06F32"/>
<path d="M149.038 448.04L147.809 456.837L161.802 472.126L160.544 475.187L129.934 462.612C129.934 462.612 131.407 458.447 134.559 454.257C137.712 450.066 140.468 444.52 140.468 444.52L149.038 448.04Z" fill="#602116"/>
<path d="M131.077 459.98C130.307 461.558 129.934 462.611 129.934 462.611L160.544 475.186L161.634 472.534L131.077 459.98Z" fill="#BD3E00"/>
<path d="M166.629 268.767C166.629 268.767 154.077 270.805 151.064 272.933C148.051 275.06 136.884 302.001 135.644 307.142C134.404 312.282 136.884 319.017 143.797 325.575C150.71 332.133 157.446 334.614 157.446 334.614L163.118 328.234C163.118 328.234 153.369 312.814 153.901 309.092C154.433 305.37 156.028 301.692 156.028 301.692C156.028 301.692 166.597 321.144 166.63 323.094C166.662 325.044 161.7 342.415 161.523 346.314C161.346 350.213 163.296 359.608 163.296 359.608C163.296 359.608 158.155 393.107 155.851 402.146C153.547 411.186 136.709 445.572 136.885 448.408C137.062 451.244 148.526 457.093 151.036 456.207C153.547 455.321 180.134 415.617 182.438 411.01C184.742 406.401 187.224 373.965 187.224 373.965C187.224 373.965 195.732 410.3 195.732 413.313C195.732 416.326 193.25 454.438 193.959 456.297C194.668 458.156 208.316 460.164 210.266 458.54C212.216 456.916 220.901 407.818 220.547 400.729C220.193 393.639 205.304 321.145 204.95 317.955C204.595 314.765 204.241 295.859 203.177 290.187C203.177 290.187 212.216 293.023 216.647 291.25C221.077 289.477 240.398 274.707 243.765 269.832L237.602 261.956C237.602 261.956 217.887 270.984 213.633 270.541C209.379 270.098 190.457 265.136 186.891 264.78C183.324 264.426 177.652 268.768 177.652 268.768L166.629 268.767Z" fill="#BD3E00"/>
<path d="M161.802 326.096L155.059 333.538" stroke="#881800" stroke-width="0.5" stroke-miterlimit="10"/>
<path d="M234.466 263.354L241.74 272.15" stroke="#881800" stroke-width="0.5" stroke-miterlimit="10"/>
<path d="M213.632 270.54C213.632 270.54 208.668 276.211 210.973 285.65" stroke="#881800" stroke-width="0.5" stroke-miterlimit="10"/>
<path d="M153.965 310.197C153.965 310.197 146.388 308.384 140.96 310.197" stroke="#881800" stroke-width="0.5" stroke-miterlimit="10"/>
<path d="M156.027 301.691C156.027 301.691 158.157 299.369 160.725 299.799" stroke="#881800" stroke-width="0.5" stroke-miterlimit="10"/>
<path d="M206.449 453.902L208.655 462.506L227.407 471.33V474.639H194.314C194.314 474.639 194.094 470.227 195.417 465.153C196.741 460.079 197.182 453.902 197.182 453.902H206.449Z" fill="#602116"/>
<path d="M194.372 471.771C194.259 473.523 194.314 474.638 194.314 474.638H227.407V471.771H194.372Z" fill="#BD3E00"/>
<path d="M204.947 317.954C204.592 314.764 204.238 295.858 203.174 290.186C203.174 290.186 197.679 271.514 183.322 265.488C181.647 266.157 180.019 267.143 178.937 267.863C178.944 267.868 186.868 272.973 188.461 280.572L170.737 283.745C170.737 283.745 165.071 275.104 159.591 270.139C156.875 270.748 153.999 271.509 152.206 272.312C152.206 272.312 157.443 278.25 160.101 286.049C162.76 293.849 162.051 302.385 156.822 303.169C159.279 307.736 166.599 321.471 166.627 323.094C166.659 325.044 161.697 342.415 161.52 346.314C161.343 350.213 163.293 359.608 163.293 359.608C163.293 359.608 158.152 393.107 155.848 402.146C153.544 411.186 136.706 445.572 136.883 448.408C137.06 451.244 148.524 457.093 151.034 456.207C153.545 455.321 180.131 415.617 182.436 411.01C184.74 406.401 187.222 373.965 187.222 373.965C187.222 373.965 195.73 410.3 195.73 413.313C195.73 416.326 193.248 454.438 193.957 456.297C194.666 458.156 208.314 460.164 210.264 458.54C212.214 456.916 220.899 407.818 220.544 400.729C220.191 393.637 205.302 321.144 204.947 317.954Z" fill="#881800"/>
<path d="M174.283 290.186C173.596 290.689 176.233 302.888 177.297 303.597C178.36 304.306 187.222 305.901 188.64 305.37C190.059 304.838 195.908 300.407 195.908 298.812C195.908 297.216 192.186 286.228 191.477 285.696C190.768 285.163 175.169 289.537 174.283 290.186Z" stroke="#602116" stroke-width="0.5" stroke-miterlimit="10"/>
<path d="M187.222 373.964C187.994 364.974 189.55 354.644 189.55 354.644L200.516 344.276" stroke="#602116" stroke-width="0.5" stroke-miterlimit="10"/>
<path d="M159.561 301.691C159.561 301.691 168.631 317.774 169.143 321.319C169.656 324.865 169.941 328.916 169.143 333.537C168.345 338.158 165.155 348.527 165.953 351.984C166.75 355.44 166.75 360.545 166.75 360.545C166.75 360.545 162.702 400.638 161.802 404.36C160.901 408.081 138.568 451.153 138.568 451.153" stroke="#602116" stroke-width="0.5" stroke-miterlimit="10"/>
<path d="M188.498 362.311C188.498 362.311 198.79 401.074 199.387 404.977C199.984 408.88 197.057 457.81 197.057 457.81" stroke="#602116" stroke-width="0.5" stroke-miterlimit="10"/>
<path d="M204.946 317.954C204.887 317.415 204.827 316.42 204.763 315.123C192.111 326.858 171.307 322.2 165.76 320.671C166.294 321.879 166.622 322.754 166.629 323.094C166.637 323.605 166.301 325.182 165.799 327.292C169.336 328.175 175.204 329.32 181.873 329.32C189.589 329.32 198.357 327.772 205.777 322.514C205.294 320.001 204.994 318.373 204.946 317.954Z" fill="#602116"/>
<path d="M179.741 336.191C179.155 335.286 174.145 332.468 173.189 331.924C172.234 331.381 164.915 331.743 163.513 330.838C163.139 330.596 162.628 330.055 162.083 329.395L157.882 334.122C158.973 335.58 160.009 336.993 160.21 337.353C160.663 338.167 169.259 346.13 169.948 345.497C170.636 344.864 167.919 340.477 168.031 340.012C168.142 339.547 176.047 344.863 176.318 343.868C176.59 342.872 170.436 338.439 170.979 337.986C171.522 337.533 179.666 341.697 179.219 340.339C178.771 338.982 172.156 335.542 172.699 335.091C173.241 334.639 180.327 337.096 179.741 336.191Z" fill="#D06F32"/>
<path d="M166.629 268.767C166.629 268.767 159.572 241.649 158.774 238.459C157.976 235.268 171.771 229.41 176.588 230.363C181.405 231.318 184.564 237.394 185.894 242.978C187.223 248.561 187.223 254.677 185.894 255.74C184.564 256.803 175.525 259.994 175.525 259.994L177.652 268.767C177.652 268.767 172.888 272.756 166.629 268.767Z" fill="#D06F32"/>
<path d="M164.348 259.996C164.348 259.996 166.241 259.107 166.629 257.867C167.016 256.627 167.548 252.018 167.548 252.018C167.548 252.018 163.118 249.182 163.472 245.46C163.826 241.738 168.435 243.333 168.435 243.333C168.435 243.333 172.817 242.447 172.817 236.952C172.817 236.952 181.552 236.104 182.438 230.26C183.324 224.416 180.488 225.815 174.107 228.09C167.726 230.363 158.864 234.648 157.091 236.066C155.318 237.483 162.933 260.931 164.348 259.996Z" fill="#0C2109"/>
<path d="M172.816 228.565L161.21 253.888C161.21 253.888 152.29 248.827 152.209 245.991C152.128 243.155 158.656 228.919 160.621 227.204C162.585 225.488 172.816 228.565 172.816 228.565Z" fill="#881800"/>
<path d="M167.877 239.34C167.877 239.34 169.044 223.836 172.816 220.645C176.588 217.454 176.058 227.388 176.058 227.388L172.816 228.564L167.877 239.34Z" fill="#602116"/>
</svg>
