<svg width="353" height="240" viewBox="0 0 353 240" fill="none" xmlns="http://www.w3.org/2000/svg">
<path d="M263.571 213.063C292.529 215.125 328.729 203.533 344.698 178.116C351.311 167.591 355.702 154.083 351.099 142.44C347.613 133.622 332.864 123.654 329.681 114.711C326.453 105.643 326.911 95.4283 328.568 85.8949C333.33 58.4965 306.852 15.7267 250.937 11.1628C208.538 7.70235 189.36 40.9722 153.276 45.5131C116.863 50.0953 74.1654 22.6008 48.119 45.5131C15.7716 73.9683 30.9514 102.452 34.8884 115.778C39.9458 132.898 15.2254 152.438 20.3234 177.642C31.7223 233.999 114.569 195.994 138.851 193.615C163.512 191.198 187.985 198.284 212.153 203.973C236.32 209.661 261.916 213.941 285.539 206.132L263.571 213.063Z" fill="#F3FAFF"/>
<path d="M174.724 240C270.882 240 348.834 236.25 348.834 231.624C348.834 226.998 270.882 223.248 174.724 223.248C78.565 223.248 0.613007 226.998 0.613007 231.624C0.613007 236.25 78.565 240 174.724 240Z" fill="#E9ECF2"/>
<path d="M23.1714 88.1458L22.6454 88.2057C21.4716 77.7614 24.6391 67.6137 32.6147 56.2695L33.0463 56.5786C25.1507 67.8091 22.0128 77.8401 23.1714 88.1458Z" fill="#2E4882"/>
<path d="M19.8389 95.1391L19.3337 95.2992C13.2801 75.8304 23.6647 60.0635 34.6217 47.2077L35.0232 47.5562C24.161 60.3008 13.8629 75.9202 19.8389 95.1391Z" fill="#2E4882"/>
<path d="M275.299 12.2272C263.153 5.95836 252.869 4.27074 242.934 6.9126L242.799 6.3961C252.867 3.71734 263.271 5.41892 275.54 11.7511L275.299 12.2272Z" fill="#2E4882"/>
<path d="M284.428 12.9013C270.371 3.88737 253.576 -4.1499 235.599 4.59133L235.369 4.10973C253.579 -4.74369 270.531 3.3574 284.712 12.4506L284.428 12.9013Z" fill="#2E4882"/>
<path d="M130.083 66.3035L129.313 66.282C129.323 65.8867 129.342 65.4928 129.369 65.101L130.137 65.1553C130.112 65.5362 130.093 65.9196 130.083 66.3035Z" fill="#3F5A9F"/>
<path d="M182.582 59.7998C182.374 59.0445 182.13 58.2896 181.858 57.5558L182.579 57.2826C182.859 58.0374 183.11 58.8141 183.324 59.5914L182.582 59.7998ZM130.404 62.8091L129.644 62.6869C129.769 61.8912 129.932 61.0905 130.126 60.3073L130.873 60.4968C130.684 61.2576 130.526 62.0358 130.404 62.8091ZM180.941 55.3845C180.605 54.6781 180.234 53.9781 179.838 53.3041L180.501 52.9077C180.908 53.6017 181.29 54.3216 181.635 55.0485L180.941 55.3845ZM131.542 58.2338L130.815 57.979C131.077 57.2177 131.375 56.4584 131.703 55.7216L132.406 56.0396C132.087 56.7561 131.797 57.4939 131.542 58.2338ZM178.559 51.3293C178.108 50.6941 177.621 50.0699 177.113 49.4746L177.697 48.9676C178.219 49.5798 178.72 50.222 179.185 50.8761L178.559 51.3293ZM133.455 53.9292L132.783 53.5503C133.172 52.8459 133.597 52.1499 134.046 51.4833L134.683 51.9196C134.247 52.5682 133.833 53.2447 133.455 53.9292ZM175.512 47.7536C174.956 47.2057 174.369 46.6767 173.768 46.1801L174.256 45.5789C174.874 46.0894 175.477 46.6338 176.049 47.1972L175.512 47.7536ZM136.078 50.025L135.48 49.5344C135.984 48.9092 136.522 48.2985 137.078 47.7192L137.631 48.2601C137.09 48.8235 136.568 49.4173 136.078 50.025ZM171.896 44.7657C171.254 44.323 170.586 43.9042 169.91 43.5203L170.287 42.8428C170.983 43.2376 171.67 43.6684 172.331 44.1236L171.896 44.7657ZM139.33 46.6388L138.826 46.051C139.431 45.522 140.065 45.015 140.711 44.5434L141.162 45.173C140.535 45.6317 139.918 46.1248 139.33 46.6388ZM167.822 42.4544C167.114 42.1313 166.384 41.8357 165.652 41.5764L165.907 40.8431C166.66 41.1098 167.411 41.4139 168.14 41.7465L167.822 42.4544ZM143.115 43.8753L142.72 43.2077C143.406 42.7939 144.119 42.4065 144.837 42.0561L145.172 42.756C144.474 43.0966 143.781 43.4735 143.115 43.8753ZM163.413 40.8939C162.66 40.7005 161.89 40.5384 161.124 40.4128L161.247 39.6455C162.035 39.7752 162.828 39.9417 163.603 40.1406L163.413 40.8939ZM147.32 41.8227L147.047 41.0958C147.794 40.8102 148.563 40.5544 149.332 40.336L149.541 41.0844C148.793 41.2968 148.046 41.5455 147.32 41.8227ZM158.802 40.1361C158.027 40.0793 157.241 40.0558 156.465 40.0673L156.454 39.2901C157.252 39.2786 158.061 39.302 158.858 39.3608L158.802 40.1361ZM151.817 40.5444L151.673 39.7806C152.459 39.6306 153.262 39.5129 154.053 39.4311L154.131 40.2044C153.361 40.2837 152.581 40.3983 151.817 40.5444Z" fill="#3F5A9F"/>
<path d="M184.062 63.1546L183.3 63.2643C183.246 62.8829 183.185 62.5049 183.116 62.1295L183.873 61.9879C183.944 62.3738 184.007 62.7627 184.062 63.1546Z" fill="#3F5A9F"/>
<path d="M132.438 66.5528L129.642 67.9004L126.74 66.8045L129.884 73.4962L132.438 66.5528Z" fill="#3F5A9F"/>
<path d="M106.188 105.014C106.073 103.243 106.789 101.163 107.256 101.369C107.724 101.575 107.288 103.23 107.615 103.728C108.044 104.382 108.414 104.995 108.096 106.538L106.188 105.014Z" fill="#FCB47E"/>
<path d="M90.3848 228.558L88.9867 217.153H97.2694L97.6329 228.558H90.3848Z" fill="#FCB47E"/>
<path d="M97.4754 223.629C94.3464 224.455 89.6978 222.952 89.6978 222.952L89.3689 220.244L97.3889 220.925L97.4754 223.629Z" fill="#FCA377"/>
<path d="M50.8835 228.558L51.648 217.153H59.9308L58.1312 228.558H50.8835Z" fill="#FCB47E"/>
<path d="M59.5436 219.589L58.9772 223.188C55.1533 223.415 52.4367 221.987 51.3724 221.302L51.606 217.799L59.5436 219.589Z" fill="#FCA377"/>
<path d="M108.004 221.408C108.004 221.408 102.473 151.276 87.5358 117.182L73.6498 117.885C73.6498 117.885 74.835 167.264 85.2527 221.408C85.2527 221.408 98.2848 224.53 108.004 221.408Z" fill="#3F5A9F"/>
<path d="M68.6565 221.408C68.6565 221.408 54.9913 223.638 47.196 218.286C47.196 218.286 51.3468 142.245 64.0583 117.313H79.0041C79.0041 117.313 78.5157 158.301 68.6565 221.408Z" fill="#3F5A9F"/>
<path d="M64.3907 81.2139C64.7586 79.8862 65.4505 78.1921 65.4505 78.1921C65.2085 79.463 65.2041 80.8689 65.2297 81.6292C68.4738 83.1314 75.2523 85.0877 85.7767 82.4892C85.6423 81.3974 85.5821 80.3624 85.5821 80.3624C85.7683 81.0569 86.0364 81.7553 86.2957 82.3581C86.672 82.2619 87.0483 82.1617 87.4335 82.0525C87.118 80.7029 86.9836 78.3582 86.9836 78.3582C87.3515 79.7686 88.078 81.2054 88.3852 81.7773C89.0252 81.5808 89.6785 81.3709 90.3447 81.1441C90.3447 81.1441 88.2469 77.9124 86.871 69.5017C85.7377 62.5887 82.2254 59.3227 76.8875 59.4668C65.9088 59.7639 62.9803 80.332 62.9803 80.332C62.9803 80.332 63.4479 80.7074 64.3907 81.2139Z" fill="#374263"/>
<path d="M102.343 105.607C102.343 105.607 97.9436 85.6127 80.4501 84.5787C53.5246 82.9873 45.2492 100.668 45.2492 100.668L102.343 105.607Z" fill="white"/>
<path d="M74.4681 64.5366C77.4406 62.822 82.659 62.7483 83.8527 66.8085C84.9539 70.5552 84.7781 81.8555 79.81 81.6412C74.6168 81.4173 72.9782 77.4318 72.515 74.9964C72.3485 74.1214 71.4957 66.2511 74.4681 64.5366Z" fill="#FCB47E"/>
<path d="M72.6404 74.7969C72.6404 74.7969 70.3198 75.5179 69.8867 73.4119C69.4961 71.5119 71.7302 70.7716 72.4498 71.6037L72.6404 74.7969Z" fill="#FCB47E"/>
<path d="M104.779 129.69C108.108 123.111 110.708 107.741 110.708 107.741C111.094 107.136 112.71 104.52 112.812 102.527C112.855 101.641 112.411 101.115 111.817 101.405C111.604 100.685 111.181 100.554 110.609 100.975C110.29 100.346 109.9 100.371 109.511 100.678C108.66 99.2393 106.966 103.797 106.975 104.367C106.98 104.749 107.095 106.152 107.152 106.565C107.228 107.112 97.1707 124.417 97.1707 124.417L104.779 129.69Z" fill="#FCB47E"/>
<path d="M49.9121 219.517L49.4657 219.487C49.5151 218.726 54.575 143.163 67.4239 118.611L67.8195 118.822C55.0145 143.289 49.9615 218.757 49.9121 219.517Z" fill="white"/>
<path d="M60.8078 105.135L56.0956 132.341C68.3923 136.07 82.2694 132.72 93.6175 125.118L88.9175 98.288L80.172 84.8434C80.172 84.8434 75.9077 89.7557 71.2077 84.7317L58.9668 89.9147L60.8078 105.135Z" fill="white"/>
<path d="M105.575 111.034L103.092 104.818C103.092 104.818 96.8783 92.065 91.765 88.7671L88.4918 111.082L105.575 111.034Z" fill="white"/>
<path d="M76.5344 160.278L76.0978 160.237C76.805 152.617 77.3932 145.164 77.8465 138.088L78.2841 138.116C77.8307 145.197 77.2421 152.653 76.5344 160.278Z" fill="#47393D"/>
<path d="M88.5679 221.565C88.475 221.117 79.2584 176.474 76.6366 153.979L77.081 153.926C79.6999 176.401 88.9131 221.025 89.0054 221.473L88.5679 221.565Z" fill="white"/>
<path d="M89.1334 98.2578L88.7074 98.3337L93.398 125.166L93.824 125.09L89.1334 98.2578Z" fill="#3F5A9F"/>
<path d="M70.7455 71.1834C70.7455 71.1834 71.5761 70.6988 72.4023 71.5852C72.4023 71.5852 72.6221 69.8129 73.2147 68.6946L73.5876 70.6724C74.1886 70.7686 76.1037 71.0852 78.203 71.1266C78.7942 71.138 80.4579 71.1266 80.4579 71.1266L80.8372 67.8206L81.5464 71.0607C82.0353 71.0214 82.4151 70.969 82.8042 70.9167L83.0817 68.9733L83.6181 70.803C84.1415 70.7157 84.505 70.6325 84.6823 70.5936C84.7904 69.2051 84.8339 65.4579 82.381 63.2877C79.5651 60.7984 73.6088 62.1655 72.2285 65.1478C70.8492 68.1307 70.7455 71.1834 70.7455 71.1834Z" fill="#374263"/>
<path d="M76.3067 87.0171C78.773 87.0171 80.2377 84.8429 80.2377 84.8429L79.6199 77.6422L72.8369 73.5725L71.1253 84.7312C71.1253 84.7312 73.2483 87.0171 76.3067 87.0171Z" fill="#FCB47E"/>
<path d="M79.5799 82.045L79.5987 81.6088C76.5117 81.4756 74.5353 79.093 73.4212 77.1172L73.0453 77.3336C74.2133 79.4046 76.2949 81.9034 79.5799 82.045Z" fill="#374263"/>
<path d="M88.4913 233.925L109.425 234.002C110.154 234.005 110.74 233.384 110.687 232.65C110.687 232.641 110.686 232.632 110.685 232.623C110.671 232.462 110.653 232.296 110.629 232.129C110.558 231.567 110.41 231.004 110.15 230.651C109.162 229.317 107.237 228.704 103.808 227.318C101.657 226.444 99.8305 225.289 99.0285 224.748C98.7678 224.571 98.4285 224.614 98.1998 224.833C94.0446 228.905 91.5053 228.025 90.7512 226.335C90.1749 225.048 89.3506 225.313 89.1215 225.689C88.4197 226.864 88.0247 230.314 87.8632 232.044C87.8429 232.23 87.8281 232.401 87.8177 232.538C87.7926 232.861 87.7772 233.056 87.7772 233.056C87.6982 233.506 88.041 233.923 88.4913 233.925Z" fill="#374263"/>
<path d="M102.615 229.531C104.104 228.809 103.889 227.258 103.887 227.242L103.528 227.296C103.535 227.349 103.701 228.597 102.458 229.2L102.615 229.531Z" fill="white"/>
<path d="M104.45 230.16C105.821 229.386 105.68 228.04 105.673 227.983L105.313 228.025C105.318 228.072 105.426 229.189 104.273 229.841L104.45 230.16Z" fill="white"/>
<path d="M92.6382 229.196C94.0387 229.201 95.3089 228.561 95.3296 228.55L95.1647 228.224C95.1326 228.24 91.9502 229.84 90.3255 227.781L90.0415 228.01C90.7556 228.915 91.7245 229.192 92.6382 229.196Z" fill="white"/>
<path d="M90.3753 232.285L90.374 232.651L102.573 232.697L102.574 232.331L90.3753 232.285Z" fill="white"/>
<path d="M104.139 232.334L104.138 232.7L107.023 232.711L107.024 232.345L104.139 232.334Z" fill="white"/>
<path d="M49.2874 233.925L70.2215 234.002C70.9504 234.005 71.5357 233.384 71.4828 232.65C71.4823 232.641 71.4813 232.632 71.4808 232.623C71.467 232.462 71.4482 232.296 71.4245 232.129C71.3539 231.567 71.2058 231.004 70.9455 230.651C69.9578 229.317 68.0323 228.704 64.604 227.318C62.4524 226.444 60.6261 225.289 59.8241 224.748C59.5634 224.571 59.2241 224.614 58.9954 224.833C54.8402 228.905 52.3009 228.025 51.5468 226.335C50.9704 225.048 50.1462 225.313 49.9171 225.689C49.2153 226.864 48.8202 230.314 48.6592 232.044C48.639 232.23 48.6242 232.401 48.6138 232.538C48.5886 232.861 48.5733 233.056 48.5733 233.056C48.4948 233.506 48.837 233.923 49.2874 233.925Z" fill="#374263"/>
<path d="M63.4119 229.531C64.9008 228.809 64.6855 227.258 64.6835 227.242L64.3245 227.296C64.3319 227.349 64.4974 228.597 63.2548 229.2L63.4119 229.531Z" fill="white"/>
<path d="M65.247 230.16C66.6174 229.386 66.4767 228.04 66.4698 227.983L66.1093 228.025C66.1147 228.072 66.2228 229.189 65.0697 229.841L65.247 230.16Z" fill="white"/>
<path d="M53.4342 229.196C54.8348 229.201 56.105 228.561 56.1257 228.55L55.9608 228.224C55.9287 228.24 52.7463 229.84 51.1216 227.781L50.8376 228.01C51.5522 228.915 52.5211 229.192 53.4342 229.196Z" fill="white"/>
<path d="M51.1711 232.286L51.1698 232.652L63.3688 232.698L63.3701 232.331L51.1711 232.286Z" fill="white"/>
<path d="M64.9352 232.334L64.9338 232.701L67.8189 232.712L67.8202 232.345L64.9352 232.334Z" fill="white"/>
<path d="M61.7259 162.873L131.651 151.727C133.091 151.497 134.083 150.12 133.856 148.667L126.75 103.235C126.523 101.782 125.159 100.781 123.72 101.01L53.7938 112.156C52.3542 112.385 51.3626 113.762 51.5897 115.215L58.6952 160.647C58.9228 162.101 60.2863 163.102 61.7259 162.873Z" fill="#6D92F0"/>
<path d="M75.5462 144.431L62.958 146.437C62.5684 146.5 62.199 146.228 62.1373 145.835L61.755 143.392C61.6933 142.999 61.962 142.626 62.3521 142.564L74.9402 140.557C75.3299 140.495 75.6993 140.766 75.761 141.16L76.1427 143.602C76.2045 143.996 75.9358 144.369 75.5462 144.431Z" fill="white"/>
<path d="M92.1853 141.778L79.5972 143.785C79.2075 143.847 78.8381 143.576 78.7764 143.182L78.3947 140.74C78.3329 140.346 78.6016 139.974 78.9917 139.911L91.5799 137.905C91.9695 137.842 92.3389 138.113 92.4006 138.507L92.7824 140.95C92.8436 141.344 92.575 141.717 92.1853 141.778Z" fill="white"/>
<path d="M108.824 139.127L96.2358 141.133C95.8462 141.196 95.4768 140.924 95.4151 140.53L95.0333 138.088C94.9716 137.695 95.2402 137.322 95.6304 137.259L108.219 135.253C108.608 135.19 108.978 135.462 109.039 135.855L109.421 138.298C109.483 138.691 109.214 139.064 108.824 139.127Z" fill="white"/>
<path d="M125.463 136.474L112.875 138.481C112.485 138.543 112.116 138.272 112.054 137.878L111.672 135.436C111.61 135.042 111.879 134.669 112.269 134.607L124.857 132.6C125.247 132.538 125.616 132.809 125.678 133.203L126.06 135.646C126.121 136.039 125.853 136.412 125.463 136.474Z" fill="white"/>
<path d="M126.494 144.076L109.933 146.716C109.459 146.792 109.009 146.462 108.935 145.983L108.601 143.851C108.526 143.372 108.853 142.918 109.328 142.842L125.889 140.202C126.363 140.127 126.813 140.457 126.888 140.936L127.221 143.068C127.296 143.547 126.969 144 126.494 144.076Z" fill="white"/>
<path d="M62.3314 126.135L61.5358 121.048C61.3619 119.936 62.1165 118.888 63.2178 118.713L73.0068 117.153C74.1081 116.977 75.1457 117.739 75.3195 118.851L76.1151 123.938C76.2889 125.05 75.5343 126.097 74.433 126.273L64.644 127.833C63.5428 128.009 62.5052 127.247 62.3314 126.135ZM63.3023 119.254C62.4963 119.383 61.9447 120.149 62.0716 120.963L62.8672 126.05C62.9946 126.863 63.7536 127.42 64.5591 127.292L74.3486 125.732C75.1545 125.603 75.7062 124.837 75.5793 124.024L74.7837 118.936C74.6563 118.123 73.8972 117.566 73.0918 117.694L63.3023 119.254Z" fill="white"/>
<path d="M127.528 106.537L127.041 106.615L128.743 117.499L129.231 117.422L127.528 106.537Z" fill="#2E4882"/>
<path d="M92.0455 158.292L91.9685 157.8L131.613 151.48C132.244 151.38 132.8 151.035 133.179 150.51C133.558 149.984 133.711 149.343 133.612 148.706L130.166 126.678L130.654 126.6L134.099 148.629C134.219 149.397 134.034 150.17 133.578 150.803C133.122 151.436 132.451 151.852 131.69 151.973L92.0455 158.292Z" fill="#2E4882"/>
<path d="M85.1427 158.879L70.4588 161.222L70.536 161.715L85.2199 159.372L85.1427 158.879Z" fill="#2E4882"/>
<path d="M112.269 101.363C112.576 101.457 112.731 101.803 112.594 102.097C112.35 102.624 111.947 103.175 111.664 103.194C111.164 103.226 111.416 102.364 111.609 101.72C111.694 101.436 111.989 101.277 112.269 101.363Z" fill="#FCB47E"/>
<path d="M111.413 101.351C111.619 101.492 111.704 101.757 111.616 101.991C111.396 102.577 110.924 103.423 110.449 103.347C110.146 103.3 110.347 102.383 110.545 101.637C110.64 101.276 111.107 101.141 111.413 101.351Z" fill="#FCB47E"/>
<path d="M110.168 101.041C110.454 101.101 110.64 101.381 110.583 101.67C110.46 102.29 110.146 103.108 109.509 103.338C108.963 103.536 109.275 102.227 109.47 101.422C109.538 101.14 109.815 100.966 110.096 101.025L110.168 101.041Z" fill="#FCB47E"/>
<path d="M109.15 100.35C109.669 100.442 109.742 100.964 109.608 101.309C109.363 101.939 108.937 102.654 108.544 102.751C108.124 102.856 108.357 101.801 108.494 100.995C108.555 100.631 108.831 100.294 109.15 100.35Z" fill="#FCB47E"/>
<path d="M55.8842 128.828C55.8842 128.828 47.7022 116.731 60.3663 108.109L67.6204 87.5127L67.6209 87.3751C59.1258 87.3317 49.9956 92.5786 45.0517 99.9323C36.7842 112.229 37.6154 126.933 51.4574 134.515L55.8842 128.828Z" fill="white"/>
<path d="M60.034 110.688L59.595 110.601L60.8306 104.264L61.2696 104.351L60.034 110.688Z" fill="#3F5A9F"/>
<path d="M54.4827 134.713C48.5175 131.446 44.6255 126.652 43.2264 120.848C41.6308 114.229 43.3252 106.755 47.9985 99.8052L48.3684 100.059C43.7677 106.903 42.0955 114.248 43.661 120.742C45.029 126.417 48.8449 131.111 54.6955 134.316L54.4827 134.713Z" fill="#3F5A9F"/>
<path d="M55.1094 129.824C55.5242 130.16 56.8195 131.283 57.3435 131.374C57.8295 131.458 60.5125 131.571 60.4375 132.143C60.3584 132.743 58.5283 132.277 58.546 132.76C58.5569 133.059 62.1299 134.032 61.7703 134.663C61.5343 135.078 59.4503 134.191 59.4078 134.452C59.3688 134.693 62.1625 135.245 61.8434 135.877C61.5091 136.539 58.8206 134.87 58.6838 135.184C58.6162 135.34 61.8805 136.524 61.6064 137.033C61.24 137.714 58.7332 136.037 58.5396 136.334C58.4443 136.479 59.4349 136.911 59.992 137.244C60.3007 137.428 60.2034 137.71 59.9599 137.699C57.4373 137.585 54.2728 134.487 53.8688 134.342C53.2678 134.125 52.6846 133.9 52.1181 133.665L55.1094 129.824Z" fill="#FCB47E"/>
<path d="M55.1918 113.755L54.8051 113.528C56.0052 111.447 57.8344 109.56 60.2414 107.921L60.4913 108.296C58.1406 109.896 56.3578 111.733 55.1918 113.755Z" fill="#3F5A9F"/>
<path d="M321.863 88.5193C321.868 88.6928 321.873 88.8623 321.878 89.0358C322.494 110.238 320.338 126.765 316.691 139.643L305.869 146.436L314.77 145.045L315.025 145.007C310.196 159.16 303.52 168.304 297.213 174.184C293.29 177.852 289.508 180.253 286.404 181.808C286.199 181.912 285.998 182.012 285.797 182.107C285.298 182.35 284.813 182.566 284.353 182.765L278.4 183.08C278.318 182.8 278.241 182.524 278.167 182.243C278.116 182.068 278.069 181.892 278.026 181.716C277.96 181.487 277.901 181.252 277.843 181.022C270.808 153.653 279.674 131.823 291.256 116.261C291.287 116.209 291.327 116.16 291.37 116.107C295.4 110.707 299.759 106.062 303.883 102.209L306.514 108.975L306.893 99.4971C314.075 93.2352 320.049 89.5822 321.516 88.7197C321.745 88.5846 321.863 88.5193 321.863 88.5193Z" fill="#9AADE5"/>
<path d="M322.075 88.6185L321.878 89.0358L309.653 114.878L309.432 115.335L306.101 122.381L305.987 122.616L295.36 145.078L295.344 145.109L278.027 181.716L277.766 182.264L277.353 183.134L276.833 183.162L277.242 182.292L277.844 181.022L294.934 144.897L295.253 144.227L321.517 88.7197L321.661 88.4156L322.075 88.6185Z" fill="white"/>
<path d="M321.07 112.004L305.912 122.529L306.138 122.862L321.297 112.336L321.07 112.004Z" fill="white"/>
<path d="M321.163 106.866L309.281 115.116L309.508 115.449L321.389 107.199L321.163 106.866Z" fill="white"/>
<path d="M291.64 116.063L291.243 116.114L294.973 145.15L295.37 145.098L291.64 116.063Z" fill="white"/>
<path d="M276.007 187.773C276.007 187.773 290.118 194.504 310.192 182.42L303.683 179.302L314.308 179.733C322.143 174.199 330.743 165.765 339.671 153.073L337.187 151.885L340.408 152.014C341.913 149.844 343.427 147.551 344.948 145.129C344.948 145.129 339.053 144.601 330.626 145.585L326.3 151.498L327.526 146.006C310.293 148.646 285.206 157.761 276.007 187.773Z" fill="#BAC8F3"/>
<path d="M344.854 144.945L274.836 186.256L275.064 186.65L345.082 145.339L344.854 144.945Z" fill="white"/>
<path d="M326.721 155.846L326.678 156.267L336.701 157.31L336.744 156.889L326.721 155.846Z" fill="white"/>
<path d="M321.949 158.573L321.875 158.99L333.565 161.093L333.638 160.675L321.949 158.573Z" fill="white"/>
<path d="M292.501 161.794L292.149 161.394C298.026 156.122 305.18 152.01 313.414 149.172L313.585 149.679C305.419 152.492 298.325 156.568 292.501 161.794Z" fill="#2E4882"/>
<path d="M152.293 128.046C152.317 128.218 152.34 128.385 152.364 128.557C155.265 149.565 160.125 165.496 165.851 177.578L177.645 182.451L168.639 182.581L168.382 182.586C175.484 195.726 183.579 203.616 190.771 208.35C195.245 211.305 199.372 213.035 202.689 214.045C202.908 214.113 203.123 214.177 203.337 214.237C203.869 214.393 204.383 214.524 204.87 214.642L210.791 213.948C210.825 213.658 210.856 213.373 210.882 213.084C210.903 212.903 210.921 212.721 210.934 212.541C210.962 212.303 210.98 212.062 211 211.825C213.408 183.655 201.054 163.626 187.06 150.236C187.021 150.19 186.974 150.148 186.922 150.103C182.055 145.459 176.988 141.614 172.286 138.511L170.81 145.625L168.869 136.344C160.752 131.381 154.258 128.787 152.668 128.184C152.42 128.09 152.293 128.046 152.293 128.046Z" fill="#9AADE5"/>
<path d="M152.101 128.179L152.364 128.558L168.693 151.975L168.986 152.388L173.437 158.774L173.588 158.987L187.782 179.341L187.803 179.368L210.933 212.541L211.282 213.038L211.833 213.826L212.35 213.765L211.803 212.977L210.999 211.826L188.172 179.091L187.747 178.484L152.668 128.185L152.475 127.909L152.101 128.179Z" fill="white"/>
<path d="M156.951 151.051L156.783 151.417L173.47 159.239L173.638 158.872L156.951 151.051Z" fill="white"/>
<path d="M156.009 146.029L155.84 146.395L168.92 152.526L169.089 152.159L156.009 146.029Z" fill="white"/>
<path d="M187.048 150.085L186.648 150.101L187.776 179.357L188.176 179.341L187.048 150.085Z" fill="white"/>
<path d="M213.927 218.173C213.927 218.173 201.129 227.188 179.337 218.659L185.239 214.487L174.834 216.703C166.193 212.569 156.319 205.704 145.416 194.695L147.669 193.105L144.515 193.775C142.672 191.89 140.799 189.884 138.899 187.752C138.899 187.752 144.624 186.238 153.096 185.787L158.339 190.888L156.222 185.68C173.649 185.376 199.891 190.133 213.927 218.173Z" fill="#BAC8F3"/>
<path d="M138.975 187.541L138.815 187.967L214.68 216.892L214.839 216.465L138.975 187.541Z" fill="white"/>
<path d="M158.625 195.232L148.916 197.951L149.028 198.359L158.737 195.64L158.625 195.232Z" fill="white"/>
<path d="M163.799 197.15L152.622 201.195L152.763 201.594L163.941 197.549L163.799 197.15Z" fill="white"/>
<path d="M193.366 195.339L193.647 194.886C186.98 190.679 179.246 187.831 170.659 186.422L170.574 186.95C179.091 188.347 186.76 191.169 193.366 195.339Z" fill="#2E4882"/>
<path d="M216.74 231.235H202.462C197.813 231.235 193.993 227.583 193.801 222.959L185.747 81.1077C185.544 76.2039 189.479 72.1202 194.407 72.1202H210.873L216.74 231.235Z" fill="#446BD0"/>
<path d="M287.261 81.1077L283.043 222.959C282.851 227.584 279.031 231.235 274.383 231.235H211.252C206.603 231.235 201.128 227.583 200.936 222.959L196.724 81.1077C196.521 76.2039 200.456 72.1202 205.385 72.1202H278.6C283.529 72.1202 287.464 76.2039 287.261 81.1077Z" fill="#DCE8FF"/>
<path d="M214.153 81.9268H210.771C210.303 81.9268 209.884 82.1163 209.58 82.4279C209.271 82.74 209.083 83.1633 209.083 83.6364C209.083 84.5777 209.84 85.3405 210.771 85.3405H214.153H269.364H272.746C273.215 85.3405 273.634 85.151 273.938 84.8394C274.247 84.5333 274.434 84.11 274.434 83.6364C274.434 82.6951 273.678 81.9263 272.746 81.9263H269.364L214.153 81.9268Z" fill="#3F5A9F"/>
<path d="M272.051 137.754H211.934C210.786 137.754 209.844 136.839 209.8 135.68L208.308 96.1966C208.261 94.9746 209.23 93.9581 210.442 93.9581H273.543C274.754 93.9581 275.723 94.9741 275.677 96.1966L274.185 135.68C274.141 136.839 273.198 137.754 272.051 137.754Z" fill="white"/>
<path d="M226.918 164.416H217.622C215.988 164.416 214.664 163.079 214.664 161.43V157.164C214.664 155.515 215.988 154.178 217.622 154.178H226.918C228.552 154.178 229.876 155.515 229.876 157.164V161.43C229.876 163.079 228.552 164.416 226.918 164.416Z" fill="#647CE2"/>
<path d="M226.918 181.125H217.622C215.988 181.125 214.664 179.788 214.664 178.138V173.873C214.664 172.223 215.988 170.887 217.622 170.887H226.918C228.552 170.887 229.876 172.224 229.876 173.873V178.138C229.876 179.788 228.552 181.125 226.918 181.125Z" fill="#647CE2"/>
<path d="M226.918 197.833H217.622C215.988 197.833 214.664 196.496 214.664 194.846V190.581C214.664 188.932 215.988 187.594 217.622 187.594H226.918C228.552 187.594 229.876 188.932 229.876 190.581V194.846C229.876 196.496 228.552 197.833 226.918 197.833Z" fill="#647CE2"/>
<path d="M226.918 214.541H217.622C215.988 214.541 214.664 213.203 214.664 211.554V207.289C214.664 205.639 215.988 204.302 217.622 204.302H226.918C228.552 204.302 229.876 205.639 229.876 207.289V211.554C229.876 213.204 228.552 214.541 226.918 214.541Z" fill="#3F5A9F"/>
<path d="M246.227 164.416H236.931C235.297 164.416 233.973 163.079 233.973 161.43V157.164C233.973 155.515 235.297 154.178 236.931 154.178H246.227C247.861 154.178 249.185 155.515 249.185 157.164V161.43C249.185 163.079 247.861 164.416 246.227 164.416Z" fill="#647CE2"/>
<path d="M246.227 181.125H236.931C235.297 181.125 233.973 179.788 233.973 178.138V173.873C233.973 172.223 235.297 170.887 236.931 170.887H246.227C247.861 170.887 249.185 172.224 249.185 173.873V178.138C249.185 179.788 247.861 181.125 246.227 181.125Z" fill="#647CE2"/>
<path d="M246.227 197.833H236.931C235.297 197.833 233.973 196.496 233.973 194.846V190.581C233.973 188.932 235.297 187.594 236.931 187.594H246.227C247.861 187.594 249.185 188.932 249.185 190.581V194.846C249.185 196.496 247.861 197.833 246.227 197.833Z" fill="#647CE2"/>
<path d="M246.227 214.541H236.931C235.297 214.541 233.973 213.203 233.973 211.554V207.289C233.973 205.639 235.297 204.302 236.931 204.302H246.227C247.861 204.302 249.185 205.639 249.185 207.289V211.554C249.185 213.204 247.861 214.541 246.227 214.541Z" fill="#647CE2"/>
<path d="M265.535 164.416H256.239C254.606 164.416 253.281 163.079 253.281 161.43V157.164C253.281 155.515 254.606 154.178 256.239 154.178H265.535C267.169 154.178 268.494 155.515 268.494 157.164V161.43C268.493 163.079 267.169 164.416 265.535 164.416Z" fill="#647CE2"/>
<path d="M265.535 181.125H256.239C254.606 181.125 253.281 179.788 253.281 178.138V173.873C253.281 172.223 254.606 170.887 256.239 170.887H265.535C267.169 170.887 268.494 172.224 268.494 173.873V178.138C268.493 179.788 267.169 181.125 265.535 181.125Z" fill="#647CE2"/>
<path d="M265.535 197.833H256.239C254.606 197.833 253.281 196.496 253.281 194.846V190.581C253.281 188.932 254.606 187.594 256.239 187.594H265.535C267.169 187.594 268.494 188.932 268.494 190.581V194.846C268.493 196.496 267.169 197.833 265.535 197.833Z" fill="#647CE2"/>
<path d="M265.535 214.541H256.239C254.606 214.541 253.281 213.203 253.281 211.554V207.289C253.281 205.639 254.606 204.302 256.239 204.302H265.535C267.169 204.302 268.494 205.639 268.494 207.289V211.554C268.493 213.204 267.169 214.541 265.535 214.541Z" fill="#3F5A9F"/>
<path d="M229.677 164.416H220.381C218.747 164.416 217.423 163.079 217.423 161.43V157.164C217.423 155.515 218.747 154.178 220.381 154.178H229.677C231.31 154.178 232.635 155.515 232.635 157.164V161.43C232.634 163.079 231.31 164.416 229.677 164.416Z" fill="#6D92F0"/>
<path d="M229.677 181.125H220.381C218.747 181.125 217.423 179.788 217.423 178.138V173.873C217.423 172.223 218.747 170.887 220.381 170.887H229.677C231.31 170.887 232.635 172.224 232.635 173.873V178.138C232.634 179.788 231.31 181.125 229.677 181.125Z" fill="#6D92F0"/>
<path d="M229.677 197.833H220.381C218.747 197.833 217.423 196.496 217.423 194.846V190.581C217.423 188.932 218.747 187.594 220.381 187.594H229.677C231.31 187.594 232.635 188.932 232.635 190.581V194.846C232.634 196.496 231.31 197.833 229.677 197.833Z" fill="#6D92F0"/>
<path d="M229.677 214.541H220.381C218.747 214.541 217.423 213.203 217.423 211.554V207.289C217.423 205.639 218.747 204.302 220.381 204.302H229.677C231.31 204.302 232.635 205.639 232.635 207.289V211.554C232.634 213.204 231.31 214.541 229.677 214.541Z" fill="#3F5A9F"/>
<path d="M248.985 164.416H239.689C238.055 164.416 236.731 163.079 236.731 161.43V157.164C236.731 155.515 238.055 154.178 239.689 154.178H248.985C250.619 154.178 251.943 155.515 251.943 157.164V161.43C251.943 163.079 250.619 164.416 248.985 164.416Z" fill="#6D92F0"/>
<path d="M248.985 181.125H239.689C238.055 181.125 236.731 179.788 236.731 178.138V173.873C236.731 172.223 238.055 170.887 239.689 170.887H248.985C250.619 170.887 251.943 172.224 251.943 173.873V178.138C251.943 179.788 250.619 181.125 248.985 181.125Z" fill="#6D92F0"/>
<path d="M248.985 197.833H239.689C238.055 197.833 236.731 196.496 236.731 194.846V190.581C236.731 188.932 238.055 187.594 239.689 187.594H248.985C250.619 187.594 251.943 188.932 251.943 190.581V194.846C251.943 196.496 250.619 197.833 248.985 197.833Z" fill="#6D92F0"/>
<path d="M248.985 214.541H239.689C238.055 214.541 236.731 213.203 236.731 211.554V207.289C236.731 205.639 238.055 204.302 239.689 204.302H248.985C250.619 204.302 251.943 205.639 251.943 207.289V211.554C251.943 213.204 250.619 214.541 248.985 214.541Z" fill="#6D92F0"/>
<path d="M268.294 164.416H258.997C257.364 164.416 256.039 163.079 256.039 161.43V157.164C256.039 155.515 257.364 154.178 258.997 154.178H268.294C269.927 154.178 271.252 155.515 271.252 157.164V161.43C271.252 163.079 269.927 164.416 268.294 164.416Z" fill="#6D92F0"/>
<path d="M268.294 181.125H258.997C257.364 181.125 256.039 179.788 256.039 178.138V173.873C256.039 172.223 257.364 170.887 258.997 170.887H268.294C269.927 170.887 271.252 172.224 271.252 173.873V178.138C271.252 179.788 269.927 181.125 268.294 181.125Z" fill="#6D92F0"/>
<path d="M268.294 197.833H258.997C257.364 197.833 256.039 196.496 256.039 194.846V190.581C256.039 188.932 257.364 187.594 258.997 187.594H268.294C269.927 187.594 271.252 188.932 271.252 190.581V194.846C271.252 196.496 269.927 197.833 268.294 197.833Z" fill="#6D92F0"/>
<path d="M268.294 214.541H258.997C257.364 214.541 256.039 213.203 256.039 211.554V207.289C256.039 205.639 257.364 204.302 258.997 204.302H268.294C269.927 204.302 271.252 205.639 271.252 207.289V211.554C271.252 213.204 269.927 214.541 268.294 214.541Z" fill="#3F5A9F"/>
<path d="M229.677 164.695H220.38C218.597 164.695 217.147 163.23 217.147 161.43V157.164C217.147 155.364 218.597 153.899 220.38 153.899H229.677C231.46 153.899 232.911 155.364 232.911 157.164V161.43C232.91 163.231 231.46 164.695 229.677 164.695ZM220.38 154.457C218.901 154.457 217.698 155.671 217.698 157.164V161.43C217.698 162.923 218.901 164.138 220.38 164.138H229.677C231.156 164.138 232.358 162.923 232.358 161.43V157.164C232.358 155.671 231.155 154.457 229.677 154.457H220.38Z" fill="white"/>
<path d="M229.677 181.403H220.38C218.597 181.403 217.147 179.939 217.147 178.138V173.872C217.147 172.072 218.597 170.608 220.38 170.608H229.677C231.46 170.608 232.911 172.072 232.911 173.872V178.138C232.91 179.939 231.46 181.403 229.677 181.403ZM220.38 171.165C218.901 171.165 217.698 172.379 217.698 173.873V178.139C217.698 179.631 218.901 180.846 220.38 180.846H229.677C231.156 180.846 232.358 179.631 232.358 178.139V173.873C232.358 172.379 231.155 171.165 229.677 171.165H220.38Z" fill="white"/>
<path d="M229.677 198.111H220.38C218.597 198.111 217.147 196.647 217.147 194.846V190.58C217.147 188.78 218.597 187.316 220.38 187.316H229.677C231.46 187.316 232.911 188.78 232.911 190.58V194.846C232.91 196.647 231.46 198.111 229.677 198.111ZM220.38 187.873C218.901 187.873 217.698 189.088 217.698 190.581V194.847C217.698 196.34 218.901 197.554 220.38 197.554H229.677C231.156 197.554 232.358 196.34 232.358 194.847V190.581C232.358 189.088 231.155 187.873 229.677 187.873H220.38Z" fill="white"/>
<path d="M229.677 214.819H220.38C218.597 214.819 217.147 213.355 217.147 211.555V207.289C217.147 205.488 218.597 204.024 220.38 204.024H229.677C231.46 204.024 232.911 205.488 232.911 207.289V211.555C232.91 213.355 231.46 214.819 229.677 214.819ZM220.38 204.581C218.901 204.581 217.698 205.795 217.698 207.289V211.555C217.698 213.048 218.901 214.262 220.38 214.262H229.677C231.156 214.262 232.358 213.048 232.358 211.555V207.289C232.358 205.795 231.155 204.581 229.677 204.581H220.38Z" fill="white"/>
<path d="M248.985 164.695H239.689C237.905 164.695 236.455 163.23 236.455 161.43V157.164C236.455 155.364 237.905 153.899 239.689 153.899H248.985C250.768 153.899 252.219 155.364 252.219 157.164V161.43C252.219 163.231 250.768 164.695 248.985 164.695ZM239.689 154.457C238.21 154.457 237.007 155.671 237.007 157.164V161.43C237.007 162.923 238.21 164.138 239.689 164.138H248.985C250.464 164.138 251.667 162.923 251.667 161.43V157.164C251.667 155.671 250.464 154.457 248.985 154.457H239.689Z" fill="white"/>
<path d="M248.985 181.403H239.689C237.905 181.403 236.455 179.939 236.455 178.138V173.872C236.455 172.072 237.905 170.608 239.689 170.608H248.985C250.768 170.608 252.219 172.072 252.219 173.872V178.138C252.219 179.939 250.768 181.403 248.985 181.403ZM239.689 171.165C238.21 171.165 237.007 172.379 237.007 173.873V178.139C237.007 179.631 238.21 180.846 239.689 180.846H248.985C250.464 180.846 251.667 179.631 251.667 178.139V173.873C251.667 172.379 250.464 171.165 248.985 171.165H239.689Z" fill="white"/>
<path d="M248.985 198.111H239.689C237.905 198.111 236.455 196.647 236.455 194.846V190.58C236.455 188.78 237.905 187.316 239.689 187.316H248.985C250.768 187.316 252.219 188.78 252.219 190.58V194.846C252.219 196.647 250.768 198.111 248.985 198.111ZM239.689 187.873C238.21 187.873 237.007 189.088 237.007 190.581V194.847C237.007 196.34 238.21 197.554 239.689 197.554H248.985C250.464 197.554 251.667 196.34 251.667 194.847V190.581C251.667 189.088 250.464 187.873 248.985 187.873H239.689Z" fill="white"/>
<path d="M248.985 214.819H239.689C237.905 214.819 236.455 213.355 236.455 211.555V207.289C236.455 205.488 237.905 204.024 239.689 204.024H248.985C250.768 204.024 252.219 205.488 252.219 207.289V211.555C252.219 213.355 250.768 214.819 248.985 214.819ZM239.689 204.581C238.21 204.581 237.007 205.795 237.007 207.289V211.555C237.007 213.048 238.21 214.262 239.689 214.262H248.985C250.464 214.262 251.667 213.048 251.667 211.555V207.289C251.667 205.795 250.464 204.581 248.985 204.581H239.689Z" fill="white"/>
<path d="M268.294 164.695H258.997C257.214 164.695 255.763 163.23 255.763 161.43V157.164C255.763 155.364 257.214 153.899 258.997 153.899H268.294C270.077 153.899 271.527 155.364 271.527 157.164V161.43C271.527 163.231 270.077 164.695 268.294 164.695ZM258.997 154.457C257.518 154.457 256.315 155.671 256.315 157.164V161.43C256.315 162.923 257.518 164.138 258.997 164.138H268.294C269.773 164.138 270.975 162.923 270.975 161.43V157.164C270.975 155.671 269.772 154.457 268.294 154.457H258.997Z" fill="white"/>
<path d="M268.294 181.403H258.997C257.214 181.403 255.763 179.939 255.763 178.138V173.872C255.763 172.072 257.214 170.608 258.997 170.608H268.294C270.077 170.608 271.527 172.072 271.527 173.872V178.138C271.527 179.939 270.077 181.403 268.294 181.403ZM258.997 171.165C257.518 171.165 256.315 172.379 256.315 173.873V178.139C256.315 179.631 257.518 180.846 258.997 180.846H268.294C269.773 180.846 270.975 179.631 270.975 178.139V173.873C270.975 172.379 269.772 171.165 268.294 171.165H258.997Z" fill="white"/>
<path d="M268.294 198.111H258.997C257.214 198.111 255.763 196.647 255.763 194.846V190.58C255.763 188.78 257.214 187.316 258.997 187.316H268.294C270.077 187.316 271.527 188.78 271.527 190.58V194.846C271.527 196.647 270.077 198.111 268.294 198.111ZM258.997 187.873C257.518 187.873 256.315 189.088 256.315 190.581V194.847C256.315 196.34 257.518 197.554 258.997 197.554H268.294C269.773 197.554 270.975 196.34 270.975 194.847V190.581C270.975 189.088 269.772 187.873 268.294 187.873H258.997Z" fill="white"/>
<path d="M268.294 214.819H258.997C257.214 214.819 255.763 213.355 255.763 211.555V207.289C255.763 205.488 257.214 204.024 258.997 204.024H268.294C270.077 204.024 271.527 205.488 271.527 207.289V211.555C271.527 213.355 270.077 214.819 268.294 214.819ZM258.997 204.581C257.518 204.581 256.315 205.795 256.315 207.289V211.555C256.315 213.048 257.518 214.262 258.997 214.262H268.294C269.773 214.262 270.975 213.048 270.975 211.555V207.289C270.975 205.795 269.772 204.581 268.294 204.581H258.997Z" fill="white"/>
<path d="M266.714 231.609H211.252C206.476 231.609 200.768 227.838 200.566 222.975L196.354 81.1192C196.252 78.6727 197.128 76.342 198.82 74.5616C200.544 72.7464 202.876 71.7468 205.385 71.7468H278.6C281.109 71.7468 283.44 72.7464 285.164 74.5616C286.856 76.342 287.732 78.6727 287.63 81.1237L287.4 88.8633L286.66 88.8409L286.89 81.0967C286.983 78.8467 286.181 76.7114 284.63 75.0791C283.047 73.4124 280.905 72.4946 278.6 72.4946H205.385C203.079 72.4946 200.938 73.4124 199.354 75.0791C197.804 76.7109 197.001 78.8467 197.094 81.0923L201.306 222.948C201.491 227.403 206.804 230.861 211.251 230.861H266.714V231.609Z" fill="#3F5A9F"/>
<path d="M286.011 110.601L283.567 193.084L284.308 193.107L286.752 110.623L286.011 110.601Z" fill="#3F5A9F"/>
<path d="M269.341 54.6407V85.339H214.224V54.6407C214.092 52.5243 213.132 50.6308 211.681 49.2662C210.224 47.9017 208.266 47.0661 206.142 47.0661H261.259C263.389 47.0661 265.342 47.9017 266.798 49.2662C268.255 50.6308 269.209 52.5243 269.341 54.6407Z" fill="white"/>
<path d="M214.224 54.6407H198.054C198.187 52.5243 199.147 50.6308 200.603 49.2662C202.06 47.9017 204.018 47.0661 206.142 47.0661C208.266 47.0661 210.225 47.9017 211.681 49.2662C213.132 50.6308 214.092 52.5243 214.224 54.6407Z" fill="#2E4882"/>
<path d="M269.588 85.5883H213.977V54.6407C213.854 52.6769 212.978 50.8272 211.512 49.4482C210.045 48.0732 208.137 47.3154 206.142 47.3154V46.8168H261.259C263.379 46.8168 265.406 47.6215 266.966 49.0828C268.524 50.543 269.455 52.5108 269.588 54.6242L269.588 54.6402V85.5883ZM214.471 85.0897H269.095V54.6487C268.968 52.6659 268.094 50.8197 266.63 49.4487C265.162 48.0732 263.254 47.3154 261.26 47.3154H208.978C210.031 47.6983 211.008 48.2955 211.849 49.0828C213.408 50.549 214.339 52.5173 214.47 54.6242L214.471 85.0897Z" fill="#2E4882"/>
<path d="M272.746 85.5903H210.772C209.705 85.5903 208.837 84.7138 208.837 83.6369C208.837 83.1144 209.039 82.6223 209.405 82.2519C209.765 81.882 210.251 81.6776 210.772 81.6776H214.154V82.1761H210.772C210.385 82.1761 210.024 82.3277 209.757 82.6024C209.482 82.8806 209.331 83.247 209.331 83.6364C209.331 84.4386 209.977 85.0912 210.772 85.0912H272.747C273.134 85.0912 273.495 84.9396 273.763 84.6644C274.038 84.3912 274.189 84.0268 274.189 83.6359C274.189 82.8307 273.542 82.1751 272.747 82.1751H269.365V81.6766H272.747C273.814 81.6766 274.682 82.5555 274.682 83.6359C274.682 84.1614 274.48 84.652 274.112 85.0169C273.753 85.3858 273.267 85.5903 272.746 85.5903Z" fill="#2E4882"/>
<path d="M275.094 233.395C275.094 234.774 285.127 235.896 297.5 235.896C309.873 235.896 319.906 234.774 319.906 233.395C319.906 233.368 319.901 233.347 319.896 233.32V226.558H275.109V233.304C275.099 233.336 275.094 233.362 275.094 233.395Z" fill="#F49B51"/>
<path d="M297.501 229.121C309.875 229.121 319.907 228.002 319.907 226.62C319.907 225.239 309.875 224.119 297.501 224.119C285.127 224.119 275.096 225.239 275.096 226.62C275.096 228.002 285.127 229.121 297.501 229.121Z" fill="#FCC659"/>
<path d="M269.799 225.237C269.799 226.616 279.832 227.738 292.206 227.738C304.579 227.738 314.612 226.616 314.612 225.237C314.612 225.21 314.606 225.189 314.601 225.162V218.4H269.815V225.146C269.804 225.178 269.799 225.205 269.799 225.237Z" fill="#F49B51"/>
<path d="M292.207 220.963C304.581 220.963 314.612 219.844 314.612 218.462C314.612 217.081 304.581 215.961 292.207 215.961C279.833 215.961 269.802 217.081 269.802 218.462C269.802 219.844 279.833 220.963 292.207 220.963Z" fill="#FCC659"/>
<path d="M275.094 217.079C275.094 218.458 285.127 219.58 297.5 219.58C309.873 219.58 319.906 218.458 319.906 217.079C319.906 217.052 319.901 217.03 319.896 217.004V210.242H275.109V216.988C275.099 217.02 275.094 217.047 275.094 217.079Z" fill="#F49B51"/>
<path d="M297.501 212.806C309.875 212.806 319.907 211.686 319.907 210.304C319.907 208.923 309.875 207.803 297.501 207.803C285.127 207.803 275.096 208.923 275.096 210.304C275.096 211.686 285.127 212.806 297.501 212.806Z" fill="#FCC659"/>
<path d="M297.498 236.162C306.611 236.162 320.169 235.424 320.169 233.393H319.64C319.64 234.172 312.035 235.627 297.498 235.627C296.969 235.627 296.445 235.625 295.926 235.621L295.922 236.155C296.442 236.16 296.968 236.162 297.498 236.162Z" fill="#2E4882"/>
<path d="M288.615 235.957L288.64 235.424C286.371 235.314 284.291 235.164 282.456 234.977L282.403 235.509C284.247 235.696 286.336 235.847 288.615 235.957Z" fill="#2E4882"/>
<path d="M306.341 227.402C314.762 226.629 314.761 225.557 314.761 225.205H314.232C314.232 225.465 312.806 226.272 306.294 226.87L306.341 227.402Z" fill="#2E4882"/>
<path d="M292.09 227.973C294.609 227.973 297.083 227.927 299.443 227.836L299.422 227.301C295.207 227.465 290.547 227.484 286.204 227.352L286.189 227.886C288.112 227.944 290.097 227.973 292.09 227.973Z" fill="#2E4882"/>
<path d="M280.627 227.622L280.662 227.088C278.273 226.93 276.189 226.724 274.468 226.479L274.394 227.008C276.127 227.255 278.225 227.462 280.627 227.622Z" fill="#2E4882"/>
<path d="M312.566 212.435C320.033 211.666 320.033 210.695 320.033 210.33H319.504C319.504 210.338 319.314 211.203 312.512 211.904L312.566 212.435Z" fill="#2E4882"/>
<path d="M297.362 213.098C299.938 213.098 302.458 213.05 304.85 212.955L304.829 212.421C302.444 212.515 299.931 212.564 297.362 212.564C292.764 212.564 288.348 212.409 284.591 212.117L284.551 212.65C288.321 212.943 292.751 213.098 297.362 213.098Z" fill="#2E4882"/>
<path d="M267.152 208.921C267.152 210.3 277.185 211.422 289.558 211.422C301.931 211.422 311.964 210.3 311.964 208.921C311.964 208.894 311.959 208.873 311.954 208.846V202.085H267.168V208.83C267.157 208.862 267.152 208.889 267.152 208.921Z" fill="#F49B51"/>
<path d="M289.559 204.648C301.933 204.648 311.965 203.528 311.965 202.146C311.965 200.765 301.933 199.645 289.559 199.645C277.185 199.645 267.154 200.765 267.154 202.146C267.154 203.528 277.185 204.648 289.559 204.648Z" fill="#FCC659"/>
<path d="M271.31 202.146C271.31 203.076 279.48 203.829 289.559 203.829C299.638 203.829 307.809 203.075 307.809 202.146C307.809 201.217 299.638 200.464 289.559 200.464C279.48 200.464 271.31 201.218 271.31 202.146Z" fill="#F49B51"/>
<path d="M263.453 60.5601H251.475V62.0558H263.453V60.5601Z" fill="#E1EAFF"/>
<path d="M245.927 60.5601H221.844V62.0558H245.927V60.5601Z" fill="#E1EAFF"/>
<path d="M263.453 67.0414H235.714V68.537H263.453V67.0414Z" fill="#E1EAFF"/>
<path d="M232.309 67.0414H221.844V68.537H232.309V67.0414Z" fill="#E1EAFF"/>
<path d="M258.283 74.0212H246.935V75.5169H258.283V74.0212Z" fill="#E1EAFF"/>
<path d="M242.144 74.0212H221.844V75.5169H242.144V74.0212Z" fill="#E1EAFF"/>
<path d="M241.301 137.381H226.281V138.129H241.301V137.381Z" fill="#3F5A9F"/>
<path d="M272.051 138.129H247.128V137.381H272.051C273.004 137.381 273.779 136.628 273.815 135.667L275.121 101.106L275.861 101.135L274.556 135.695C274.504 137.06 273.403 138.129 272.051 138.129Z" fill="#3F5A9F"/>
<path d="M133.141 85.3704C124.916 83.7147 116.92 89.1056 115.279 97.4126C113.639 105.716 118.978 113.792 127.207 115.445C135.432 117.101 143.433 111.711 145.07 103.403C146.71 95.0998 141.37 87.0266 133.141 85.3704ZM142.164 102.82C141.526 106.052 139.679 108.841 136.961 110.671C134.247 112.502 130.99 113.157 127.785 112.512C121.177 111.182 116.869 104.672 118.187 97.9964C118.825 94.7642 120.67 91.9753 123.387 90.1451C126.007 88.3792 129.134 87.7076 132.229 88.2426C132.341 88.262 132.451 88.284 132.563 88.3069C139.067 89.6131 143.335 95.9338 142.224 102.488C142.205 102.599 142.186 102.71 142.164 102.82Z" fill="#FCC659"/>
<path d="M142.224 102.488C142.205 102.599 142.187 102.71 142.165 102.82C141.527 106.052 139.679 108.841 136.962 110.671C134.248 112.502 130.99 113.158 127.785 112.513C121.176 111.182 116.868 104.672 118.187 97.9964C118.825 94.7642 120.67 91.9753 123.387 90.1446C126.007 88.3787 129.135 87.7071 132.229 88.2421C132.342 88.2615 132.452 88.284 132.564 88.3064C139.067 89.6121 143.335 95.9338 142.224 102.488Z" fill="#F49B51"/>
<path d="M127.835 109.58L128.223 107.292C126.924 107.044 125.647 106.403 124.957 105.701L125.753 104.276C126.47 104.959 127.563 105.591 128.821 105.809C130.415 106.084 131.649 105.341 131.869 104.049C132.08 102.803 131.335 101.881 129.789 100.914C127.653 99.6122 126.416 98.3254 126.75 96.3536C127.069 94.4731 128.635 93.2735 130.758 93.291L131.146 91.0021L132.537 91.2424L132.165 93.4406C133.504 93.7183 134.363 94.2403 134.948 94.7378L134.134 96.1363C133.708 95.7828 132.872 95.1257 131.436 94.8774C129.707 94.5788 128.88 95.5086 128.725 96.4155C128.525 97.5941 129.256 98.3264 131.071 99.4801C133.222 100.831 134.189 102.212 133.848 104.228C133.544 106.019 132.025 107.482 129.648 107.469L129.248 109.825L127.835 109.58Z" fill="#FCC659"/>
<path d="M142.245 99.3605C142.237 99.2573 142.225 99.1541 142.214 99.0509C141.824 95.5505 139.96 92.4031 137.099 90.3954L137.288 90.1201C140.228 92.1832 142.142 95.4169 142.541 98.9925C142.555 99.1196 142.566 99.2258 142.575 99.3325L142.245 99.3605Z" fill="#2E4882"/>
<path d="M137.099 90.3954C134.799 88.7805 131.996 88.0242 129.206 88.264L129.178 87.931C132.045 87.6837 134.925 88.4619 137.289 90.1207L137.099 90.3954Z" fill="#2E4882"/>
<path d="M139.699 108.456L139.446 108.24C140.48 107.003 141.248 105.604 141.727 104.083L142.043 104.185C141.55 105.747 140.761 107.185 139.699 108.456Z" fill="#2E4882"/>
<path d="M141.823 90.852C140.84 89.6291 139.681 88.5731 138.38 87.7146L138.574 87.414C139.907 88.2929 141.092 89.3738 142.099 90.6257L141.823 90.852Z" fill="#2E4882"/>
<path d="M136.472 114.56L136.327 114.233C140.747 112.224 143.95 108.163 144.895 103.37C145.483 100.392 145.181 97.3438 144.021 94.5558L144.348 94.4167C145.535 97.271 145.845 100.391 145.244 103.441C144.275 108.346 140.997 112.503 136.472 114.56Z" fill="#2E4882"/>
<path d="M241.346 129.852C249.127 129.539 255.183 122.918 254.873 115.064C254.563 107.209 248.004 101.095 240.224 101.408C232.444 101.721 226.388 108.342 226.698 116.197C227.007 124.051 233.566 130.165 241.346 129.852Z" fill="#6D92F0"/>
<path d="M240.265 122.878L233.798 116.162L234.506 115.467L239.989 121.161L247.042 106.403L247.932 106.836L240.265 122.878Z" fill="white"/>
<path d="M120.325 92.0421C121.711 92.7531 122.665 93.8439 123.317 95.2105C123.969 93.8439 124.926 92.7471 126.312 92.0361C124.926 91.3252 123.969 90.2343 123.317 88.8678C122.665 90.2338 121.711 91.3312 120.325 92.0421Z" fill="#FFE6A6"/>
<path d="M132.481 111.549C133.286 111.963 133.84 112.596 134.219 113.39C134.598 112.596 135.155 111.959 135.96 111.546C135.155 111.132 134.598 110.499 134.219 109.705C133.841 110.499 133.287 111.136 132.481 111.549Z" fill="#FFE6A6"/>
</svg>
