<svg width="4040" height="1129" viewBox="0 0 4040 1129" fill="none" xmlns="http://www.w3.org/2000/svg">
<g clip-path="url(#clip0_2002_2)">
<path d="M558.737 2.04928C553.715 4.74947 550.731 8.37642 546.664 17.2893C544.994 20.8019 534.465 42.1288 523.106 64.7486C504.673 101.361 484.018 142.917 436.428 238.202C428.422 254.22 403.02 304.894 380.233 350.717C357.446 396.54 333.369 444.469 327.033 457.363C320.697 470.258 287.692 536.126 253.857 603.814C220.023 671.502 183.792 744.155 173.274 765.242C162.756 786.329 153.909 803.685 153.425 803.685C150.683 803.685 127.724 759.624 119.233 738.057C98.186 684.728 89.1081 630.587 90.6634 568.723C92.0918 509.777 100.824 467.352 121.768 416.368C164.807 311.827 233.202 230.376 321.676 178.225C346.779 163.454 381.339 148.1 406.199 140.949C412.536 139.073 417.086 137.082 417.72 135.915C418.353 134.748 423.215 118.924 428.71 100.515C440.23 61.7281 445.218 44.8519 446.647 40.7444C448.951 34.4172 449.285 30.1953 447.603 30.1953C446.773 30.1953 438.755 32.0717 429.908 34.4172C290.514 70.4007 168.666 157.482 87.3686 279.128C45.1013 342.159 13.4209 432.638 2.24642 522.408C-0.748808 546.675 -0.748808 613.94 2.24642 639.02C15.5752 749.075 61.4829 850.332 139.198 941.395C150.199 954.29 183.435 987.687 185.347 987.687C186.073 987.687 197.063 965.949 209.862 939.29C222.661 912.631 237.003 882.918 241.784 873.067C246.565 863.216 250.517 854.898 250.517 854.669C250.517 854.44 254.099 847.049 258.408 838.021C262.716 828.994 268.085 818.102 270.239 813.651C272.393 809.2 276.575 800.402 279.455 794.315C282.335 788.228 289.017 774.51 294.166 763.835C307.196 736.65 311.377 727.863 319.752 710.632C323.819 702.428 327.045 695.392 327.045 695.277C327.045 695.163 330.628 687.657 334.936 678.641C339.245 669.626 344.613 658.71 346.767 654.26C348.921 649.809 352.988 641.251 355.741 635.507C358.495 629.763 362.55 621.205 364.704 616.754C366.858 612.304 372.238 601.286 376.535 592.258C380.832 583.231 384.426 575.966 384.426 575.737C384.426 575.508 388.735 566.584 394 555.932C399.264 545.28 403.561 536.126 403.561 535.886C403.561 535.646 407.144 528.266 411.453 519.25C415.761 510.234 422.811 495.692 427.12 486.665C431.429 477.637 438.709 462.638 443.133 453.382C447.557 444.125 451.381 436.391 451.381 436.219C451.381 436.048 455.206 428.016 459.872 418.405C464.537 408.794 470.032 397.661 471.945 393.451C477.567 381.609 482.232 371.769 489.283 357.113C492.877 349.733 499.328 336.255 503.637 327.228C507.945 318.2 515.226 303.201 519.65 293.944C524.073 284.688 527.91 276.954 527.91 276.839C527.91 276.725 531.734 268.636 536.388 259.025C541.042 249.414 546.561 238.282 548.473 234.06C558.507 212.721 560.419 209.209 561.26 210.147C561.859 210.731 565.684 217.527 569.751 225.273C573.817 233.019 579.796 244.014 582.907 249.883C586.017 255.753 592.215 267.274 596.685 275.741C601.154 284.208 607.571 296.256 611.039 302.697C614.506 309.139 621.2 321.804 626.015 330.82C630.83 339.836 636.775 350.866 639.159 355.442C641.544 360.019 647.776 371.461 652.914 381.22C658.052 390.98 664.515 402.959 667.257 408.176C669.999 413.394 675.989 424.354 680.413 432.787C702.416 474.274 705.4 479.903 707.312 483.129C708.464 485.006 715.204 497.66 722.289 511.253C729.373 524.845 735.56 536.332 736.044 537.042C736.527 537.751 742.138 548.174 748.601 560.474C755.063 572.773 761.745 585.325 763.577 588.608C765.408 591.892 770.155 600.794 774.336 608.643L781.871 622.83L811.282 623.528C855.634 624.672 891.508 624.58 891.508 623.173C891.508 622.475 876.082 590.954 857.316 553.094C824.437 487.111 817.618 473.278 785.453 408.703C777.562 392.879 764.061 365.694 755.443 348.349C746.826 331.003 704.847 247.137 662.522 162.024C576.674 -10.4906 583.125 0.756393 569.981 0.0584629C564.832 -0.181808 562.124 0.287293 558.737 2.04928Z" fill="white"/>
<path d="M688.466 34.1654C688.823 34.9778 695.159 53.8562 702.451 76.007C709.743 98.1577 717.876 122.059 720.261 129.095L724.558 141.75L737.714 146.2C755.524 152.184 763.415 155.468 783.795 165.422C889.088 217.229 967.517 306.061 1006.26 417.753C1012.02 434.16 1017.02 454.549 1021.56 479.285C1030.41 527.454 1031.72 542.339 1031.72 588.631C1031.72 636.091 1029.69 653.55 1020.2 691.296L1016.49 706.055L1022.83 717.073C1026.28 723.172 1030.47 730.437 1032.16 733.366C1033.84 736.295 1036.45 740.631 1038.01 742.977C1039.04 744.554 1039.96 746.198 1040.76 747.897C1040.76 748.137 1044.47 754.579 1048.9 762.199C1053.32 769.819 1060.48 782.118 1064.79 789.51L1072.47 802.862L1075.58 795.997C1083.58 778.423 1097.22 735.357 1104.16 705.174C1124.24 618.436 1126.39 527.03 1110.01 448.622C1101.16 405.957 1084.78 359.79 1065.3 322.159C1039.47 272.595 1019.51 243.053 987.344 207.195C915.988 127.574 819.38 68.6501 709.87 37.678C689.998 32.0373 687.509 31.7055 688.466 34.1654Z" fill="white"/>
<path d="M547.379 408.966C540.685 422.695 515.813 473.77 492.024 522.408C468.235 571.046 445.875 616.697 442.407 623.791C438.94 630.885 410.727 688.596 379.634 752.119C348.541 815.642 317.345 879.394 310.294 893.924C303.244 908.455 293.705 927.906 289.097 937.288C247.729 1021.55 243.19 1031.29 244.503 1032.81C248.685 1037.85 287.542 1060.27 313.244 1072.65C373.021 1101.26 431.97 1118.49 499.167 1126.8C523.555 1129.73 594.093 1129.73 616.926 1126.8C710.665 1114.62 787.665 1085.62 869.804 1031.84C886.301 1021.05 916.426 999.14 916.426 997.973C916.426 997.504 910.666 997.035 903.638 997.035C870.23 997.035 828.758 990.353 794.716 979.69L783.599 976.166L769.014 983.557C714.489 1011.33 647.776 1029.85 585.245 1034.41C565.765 1035.94 528.935 1035.12 509.443 1032.78C469.38 1028.13 430.269 1017.42 393.47 1001.02C384.38 996.909 376.616 993.397 376.374 993.008C375.902 992.664 382.353 979.415 411.879 920.228C419.943 904.062 431.855 880.183 438.375 866.911C463.132 817.335 503.418 736.478 540.006 662.978C547.298 648.447 558.184 626.537 564.279 614.34C570.373 602.144 582.711 577.304 591.777 559.261C616.764 509.102 617.72 507.225 617.248 504.765C616.649 500.772 561.882 384.161 560.696 384.046C560.051 384.115 554.06 395.373 547.379 408.966Z" fill="white"/>
<path d="M567.343 676.41C567.343 676.639 574.647 691.525 583.609 709.465C592.572 727.405 604.058 750.563 609.196 760.86C624.621 792.038 639.148 821.34 655.818 854.68C664.55 872.025 673.996 891.293 676.865 897.105L682.245 908.009H948.624L950.422 904.725C953.405 899.004 996.571 797.839 996.571 796.546C996.571 795.253 986.652 777.919 943.728 704.076L927.704 676.536L747.529 676.193C648.41 676.056 567.343 676.193 567.343 676.41Z" fill="white"/>
</g>
<path d="M1339.83 565H1235.93L1370.89 165H1499.6L1634.56 565H1530.66L1436.71 265.781H1433.58L1339.83 565ZM1325.97 407.578H1543.16V481.016H1325.97V407.578ZM1856.81 165V565H1760.13V165H1856.81ZM2000 565V165H2165.24C2195.18 165 2221.03 170.404 2242.77 181.211C2264.65 191.888 2281.51 207.253 2293.36 227.305C2305.21 247.227 2311.13 270.859 2311.13 298.203C2311.13 325.937 2305.08 349.505 2292.97 368.906C2280.86 388.177 2263.67 402.891 2241.41 413.047C2219.14 423.073 2192.77 428.086 2162.31 428.086H2057.81V351.914H2144.34C2158.92 351.914 2171.09 350.026 2180.86 346.25C2190.76 342.344 2198.24 336.484 2203.32 328.672C2208.4 320.729 2210.94 310.573 2210.94 298.203C2210.94 285.833 2208.4 275.612 2203.32 267.539C2198.24 259.336 2190.76 253.216 2180.86 249.18C2170.96 245.013 2158.79 242.93 2144.34 242.93H2096.68V565H2000ZM2225.2 382.187L2324.81 565H2219.34L2121.68 382.187H2225.2ZM2824.2 365C2824.2 409.01 2815.74 446.315 2798.81 476.914C2781.88 507.513 2758.97 530.755 2730.06 546.641C2701.28 562.526 2668.99 570.469 2633.18 570.469C2597.25 570.469 2564.89 562.461 2536.11 546.445C2507.34 530.43 2484.49 507.187 2467.56 476.719C2450.76 446.12 2442.36 408.88 2442.36 365C2442.36 320.99 2450.76 283.685 2467.56 253.086C2484.49 222.487 2507.34 199.245 2536.11 183.359C2564.89 167.474 2597.25 159.531 2633.18 159.531C2668.99 159.531 2701.28 167.474 2730.06 183.359C2758.97 199.245 2781.88 222.487 2798.81 253.086C2815.74 283.685 2824.2 320.99 2824.2 365ZM2725.37 365C2725.37 338.958 2721.66 316.953 2714.24 298.984C2706.95 281.016 2696.4 267.409 2682.6 258.164C2668.93 248.919 2652.46 244.297 2633.18 244.297C2614.04 244.297 2597.57 248.919 2583.77 258.164C2569.97 267.409 2559.36 281.016 2551.93 298.984C2544.64 316.953 2541 338.958 2541 365C2541 391.042 2544.64 413.047 2551.93 431.016C2559.36 448.984 2569.97 462.591 2583.77 471.836C2597.57 481.081 2614.04 485.703 2633.18 485.703C2652.46 485.703 2668.93 481.081 2682.6 471.836C2696.4 462.591 2706.95 448.984 2714.24 431.016C2721.66 413.047 2725.37 391.042 2725.37 365ZM3038.44 165L3111.49 291.367H3114.61L3188.44 165H3296.64L3175.94 365L3300.55 565H3189.61L3114.61 437.266H3111.49L3036.49 565H2926.33L3050.35 365L2929.45 165H3038.44ZM3525.82 165V565H3429.14V165H3525.82ZM4009.44 165V565H3927.41L3768.23 334.141H3765.69V565H3669.01V165H3752.22L3909.64 395.469H3912.96V165H4009.44Z" fill="white"/>
<path d="M1365.58 701.909V891H1325.6V701.909H1365.58ZM1600.84 701.909V891H1566.3L1484.04 771.987H1482.65V891H1442.67V701.909H1477.76L1559.38 820.83H1561.04V701.909H1600.84ZM1670.86 734.871V701.909H1826.16V734.871H1768.27V891H1728.76V734.871H1670.86ZM1895.94 891V701.909H2023.35V734.871H1935.92V779.928H2016.8V812.889H1935.92V858.038H2023.72V891H1895.94ZM2099.34 891V701.909H2173.94C2188.22 701.909 2200.41 704.464 2210.5 709.572C2220.66 714.62 2228.38 721.791 2233.68 731.085C2239.03 740.318 2241.71 751.182 2241.71 763.678C2241.71 776.234 2239 787.037 2233.58 796.085C2228.17 805.072 2220.32 811.966 2210.04 816.767C2199.82 821.568 2187.45 823.969 2172.92 823.969H2122.97V791.838H2166.46C2174.09 791.838 2180.43 790.792 2185.48 788.699C2190.53 786.606 2194.28 783.467 2196.75 779.281C2199.27 775.096 2200.53 769.894 2200.53 763.678C2200.53 757.399 2199.27 752.106 2196.75 747.797C2194.28 743.488 2190.5 740.226 2185.39 738.01C2180.34 735.732 2173.97 734.594 2166.28 734.594H2139.32V891H2099.34ZM2201.45 804.949L2248.45 891H2204.32L2158.34 804.949H2201.45ZM2472.32 701.909V891H2437.79L2355.53 771.987H2354.14V891H2314.16V701.909H2349.25L2430.87 820.83H2432.53V701.909H2472.32ZM2582.15 891H2539.31L2604.58 701.909H2656.1L2721.29 891H2678.45L2631.08 745.119H2629.6L2582.15 891ZM2579.47 816.675H2680.66V847.882H2579.47V816.675ZM2757.94 734.871V701.909H2913.24V734.871H2855.35V891H2815.83V734.871H2757.94ZM3022.99 701.909V891H2983.01V701.909H3022.99ZM3273.85 796.455C3273.85 817.075 3269.94 834.617 3262.12 849.082C3254.37 863.547 3243.78 874.596 3230.36 882.229C3217 889.8 3201.98 893.585 3185.3 893.585C3168.5 893.585 3153.42 889.769 3140.06 882.136C3126.71 874.504 3116.15 863.455 3108.39 848.99C3100.64 834.525 3096.76 817.013 3096.76 796.455C3096.76 775.834 3100.64 758.292 3108.39 743.827C3116.15 729.362 3126.71 718.344 3140.06 710.773C3153.42 703.14 3168.5 699.324 3185.3 699.324C3201.98 699.324 3217 703.14 3230.36 710.773C3243.78 718.344 3254.37 729.362 3262.12 743.827C3269.94 758.292 3273.85 775.834 3273.85 796.455ZM3233.32 796.455C3233.32 783.098 3231.31 771.833 3227.31 762.662C3223.37 753.491 3217.8 746.535 3210.6 741.795C3203.4 737.056 3194.97 734.686 3185.3 734.686C3175.64 734.686 3167.21 737.056 3160.01 741.795C3152.8 746.535 3147.2 753.491 3143.2 762.662C3139.26 771.833 3137.29 783.098 3137.29 796.455C3137.29 809.812 3139.26 821.076 3143.2 830.247C3147.2 839.419 3152.8 846.374 3160.01 851.114C3167.21 855.853 3175.64 858.223 3185.3 858.223C3194.97 858.223 3203.4 855.853 3210.6 851.114C3217.8 846.374 3223.37 839.419 3227.31 830.247C3231.31 821.076 3233.32 809.812 3233.32 796.455ZM3505.82 701.909V891H3471.29L3389.03 771.987H3387.64V891H3347.66V701.909H3382.75L3464.37 820.83H3466.03V701.909H3505.82ZM3615.65 891H3572.81L3638.08 701.909H3689.6L3754.79 891H3711.95L3664.58 745.119H3663.1L3615.65 891ZM3612.97 816.675H3714.16V847.882H3612.97V816.675ZM3821.75 891V701.909H3861.72V858.038H3942.79V891H3821.75Z" fill="white"/>
<defs>
<clipPath id="clip0_2002_2">
<rect width="1121" height="1129" fill="white"/>
</clipPath>
</defs>
</svg>
