<svg width="4340" height="4368" viewBox="0 0 4340 4368" fill="none" xmlns="http://www.w3.org/2000/svg">
<g clip-path="url(#clip0_2003_2)">
<path d="M2163.18 7.92766C2143.73 18.3734 2132.18 32.4043 2116.43 66.884C2109.97 80.4723 2069.2 162.976 2025.23 250.481C1953.87 392.117 1873.9 552.875 1689.65 921.485C1658.65 983.451 1560.31 1179.49 1472.09 1356.75C1383.87 1534.02 1290.65 1719.43 1266.12 1769.31C1241.59 1819.2 1113.81 2074.01 982.82 2335.86C851.828 2597.71 711.559 2878.77 670.838 2960.35C630.118 3041.92 595.865 3109.06 593.991 3109.06C583.376 3109.06 494.487 2938.61 461.617 2855.18C380.131 2648.88 344.986 2439.43 351.007 2200.11C356.538 1972.08 390.345 1807.95 471.429 1610.72C638.057 1206.31 902.851 891.21 1245.38 689.466C1342.57 632.325 1476.37 572.926 1572.62 545.262C1597.15 538.003 1614.77 530.302 1617.22 525.787C1619.67 521.272 1638.49 460.059 1659.77 388.842C1704.37 238.796 1723.68 173.51 1729.21 157.62C1738.13 133.143 1739.43 116.811 1732.91 116.811C1729.7 116.811 1698.66 124.07 1664.41 133.143C1124.74 272.346 652.998 609.22 338.251 1079.81C174.612 1323.64 51.9597 1673.66 8.69713 2020.94C-2.89904 2114.82 -2.89904 2375.03 8.69713 2472.05C60.3001 2897.8 238.034 3289.52 538.91 3641.8C581.503 3691.68 710.176 3820.88 717.58 3820.88C720.39 3820.88 762.939 3736.78 812.49 3633.65C862.041 3530.52 917.569 3415.58 936.078 3377.47C954.588 3339.36 969.886 3307.18 969.886 3306.29C969.886 3305.41 983.756 3276.82 1000.44 3241.89C1017.12 3206.97 1037.9 3164.83 1046.24 3147.62C1054.58 3130.4 1070.77 3096.36 1081.92 3072.81C1093.07 3049.27 1118.94 2996.2 1138.88 2954.9C1189.32 2849.74 1205.51 2815.74 1237.94 2749.09C1253.68 2717.35 1266.17 2690.13 1266.17 2689.69C1266.17 2689.24 1280.04 2660.21 1296.72 2625.33C1313.4 2590.45 1334.18 2548.23 1342.52 2531.01C1350.86 2513.79 1366.61 2480.68 1377.27 2458.47C1387.93 2436.25 1403.63 2403.14 1411.97 2385.92C1420.31 2368.7 1441.14 2326.08 1457.77 2291.16C1474.41 2256.23 1488.32 2228.13 1488.32 2227.24C1488.32 2226.36 1505 2191.83 1525.39 2150.63C1545.77 2109.42 1562.41 2074.01 1562.41 2073.08C1562.41 2072.15 1576.28 2043.6 1592.96 2008.72C1609.64 1973.85 1636.93 1917.59 1653.61 1882.67C1670.29 1847.75 1698.48 1789.72 1715.61 1753.91C1732.74 1718.1 1747.54 1688.18 1747.54 1687.52C1747.54 1686.85 1762.35 1655.78 1780.41 1618.6C1798.48 1581.42 1819.75 1538.36 1827.15 1522.07C1848.92 1476.26 1866.98 1438.19 1894.28 1381.49C1908.19 1352.95 1933.17 1300.81 1949.85 1265.88C1966.53 1230.96 1994.72 1172.93 2011.85 1137.13C2028.97 1101.32 2043.82 1071.4 2043.82 1070.96C2043.82 1070.51 2058.63 1039.22 2076.65 1002.04C2094.67 964.861 2116.03 921.795 2123.44 905.462C2162.28 822.915 2169.69 809.326 2172.94 812.956C2175.26 815.213 2190.07 841.504 2205.81 871.469C2221.56 901.434 2244.71 943.97 2256.75 966.676C2268.79 989.382 2292.79 1033.95 2310.09 1066.71C2327.4 1099.46 2352.24 1146.07 2365.66 1170.99C2379.09 1195.91 2405 1244.9 2423.64 1279.78C2442.29 1314.66 2465.3 1357.33 2474.53 1375.03C2483.77 1392.74 2507.89 1437 2527.79 1474.75C2547.68 1512.51 2572.7 1558.85 2583.31 1579.03C2593.93 1599.22 2617.12 1641.62 2634.25 1674.24C2719.44 1834.73 2730.99 1856.51 2738.39 1868.99C2742.85 1876.25 2768.94 1925.2 2796.37 1977.79C2823.8 2030.37 2847.75 2074.81 2849.62 2077.55C2851.5 2080.3 2873.22 2120.62 2898.24 2168.2C2923.26 2215.78 2949.13 2264.33 2956.22 2277.04C2963.31 2289.74 2981.69 2324.18 2997.88 2354.54L3027.05 2409.42L3140.91 2412.12C3312.62 2416.55 3451.51 2416.2 3451.51 2410.75C3451.51 2408.05 3391.79 2286.11 3319.14 2139.65C3191.85 1884.39 3165.44 1830.88 3040.92 1581.07C3010.37 1519.86 2958.09 1414.69 2924.73 1347.59C2891.37 1280.49 2728.85 956.053 2564.98 626.792C2232.62 -40.5829 2257.6 2.92612 2206.71 0.226164C2186.77 -0.703327 2176.29 1.11139 2163.18 7.92766Z" fill="white"/>
<path d="M2665.42 132.17C2666.81 135.312 2691.34 208.344 2719.57 294.034C2747.8 379.724 2779.29 472.187 2788.52 499.408L2805.16 548.361L2856.09 565.578C2925.04 588.727 2955.6 601.43 3034.49 639.938C3442.14 840.354 3745.79 1184 3895.78 1616.08C3918.08 1679.55 3937.43 1758.43 3955.01 1854.12C3989.26 2040.46 3994.35 2098.04 3994.35 2277.13C3994.35 2460.72 3986.5 2528.27 3949.74 2674.28L3935.38 2731.38L3959.91 2774.01C3973.29 2797.6 3989.53 2825.7 3996.04 2837.03C4002.55 2848.37 4012.68 2865.14 4018.7 2874.21C4022.67 2880.32 4026.23 2886.67 4029.36 2893.25C4029.36 2894.18 4043.72 2919.1 4060.84 2948.57C4077.97 2978.05 4105.71 3025.63 4122.39 3054.23L4152.1 3105.88L4164.14 3079.32C4195.14 3011.34 4247.94 2844.74 4274.79 2727.97C4352.53 2392.43 4360.87 2038.82 4297.45 1735.5C4263.2 1570.45 4199.78 1391.85 4124.36 1246.28C4024.36 1054.54 3947.07 940.252 3822.54 801.537C3546.29 493.521 3172.27 265.574 2748.29 145.758C2671.36 123.937 2661.72 122.654 2665.42 132.17Z" fill="white"/>
<path d="M2119.2 1582.09C2093.29 1635.2 1996.99 1832.79 1904.89 2020.94C1812.79 2209.1 1726.22 2385.7 1712.8 2413.14C1699.37 2440.58 1590.15 2663.84 1469.77 2909.58C1349.39 3155.32 1228.61 3401.94 1201.32 3458.16C1174.02 3514.37 1137.09 3589.61 1119.25 3625.91C959.092 3951.89 941.52 3989.56 946.604 3995.45C962.794 4014.92 1113.23 4101.67 1212.74 4149.56C1444.17 4260.22 1672.39 4326.88 1932.55 4359.05C2026.97 4370.39 2300.06 4370.39 2388.45 4359.05C2751.37 4311.92 3049.48 4199.71 3367.48 3991.68C3431.35 3949.95 3547.98 3865.18 3547.98 3860.67C3547.98 3858.85 3525.68 3857.04 3498.47 3857.04C3369.13 3857.04 3208.57 3831.19 3076.78 3789.94L3033.74 3776.31L2977.27 3804.9C2766.18 3912.32 2507.89 3983.98 2265.8 4001.64C2190.38 4007.53 2047.79 4004.39 1972.33 3995.31C1817.22 3977.33 1665.81 3935.9 1523.34 3872.44C1488.15 3856.55 1458.08 3842.97 1457.15 3841.46C1455.32 3840.13 1480.3 3788.88 1594.61 3559.91C1625.83 3497.37 1671.94 3405 1697.19 3353.65C1793.04 3161.87 1949 2849.07 2090.66 2564.74C2118.89 2508.53 2161.04 2423.76 2184.63 2376.58C2208.22 2329.4 2255.99 2233.31 2291.09 2163.51C2387.83 1969.46 2391.53 1962.21 2389.7 1952.69C2387.38 1937.24 2175.35 1486.13 2170.76 1485.69C2168.26 1485.95 2145.07 1529.51 2119.2 1582.09Z" fill="white"/>
<path d="M2196.49 2616.7C2196.49 2617.59 2224.77 2675.17 2259.47 2744.57C2294.17 2813.97 2338.64 2903.56 2358.53 2943.39C2418.25 3064.01 2474.49 3177.36 2539.03 3306.34C2572.83 3373.44 2609.41 3447.98 2620.51 3470.46L2641.34 3512.64H3672.64L3679.6 3499.94C3691.15 3477.81 3858.27 3086.45 3858.27 3081.45C3858.27 3076.44 3819.87 3009.39 3653.69 2723.72L3591.65 2617.19L2894.09 2615.86C2510.35 2615.33 2196.49 2615.86 2196.49 2616.7Z" fill="white"/>
</g>
<defs>
<clipPath id="clip0_2003_2">
<rect width="4340" height="4367.55" fill="white"/>
</clipPath>
</defs>
</svg>
