<svg width="2817" height="2683" viewBox="0 0 2817 2683" fill="none" xmlns="http://www.w3.org/2000/svg">
<g clip-path="url(#clip0_2_24)">
<path d="M1405.78 3.16559C1398.01 7.33665 1393.4 12.9393 1387.11 26.7074C1384.53 32.1333 1368.25 65.0776 1350.69 100.019C1322.2 156.576 1290.26 220.768 1216.69 367.957C1204.31 392.701 1165.05 470.979 1129.82 541.763C1094.59 612.548 1057.37 686.584 1047.57 706.503C1037.78 726.421 986.755 828.17 934.449 932.73C882.142 1037.29 826.132 1149.52 809.872 1182.09C793.612 1214.67 779.934 1241.48 779.186 1241.48C774.947 1241.48 739.453 1173.41 726.328 1140.1C693.79 1057.72 679.756 974.087 682.16 878.524C684.369 787.467 697.868 721.932 730.246 643.177C796.782 481.689 902.516 355.868 1039.29 275.31C1078.1 252.493 1131.53 228.774 1169.96 217.728C1179.76 214.829 1186.79 211.754 1187.77 209.951C1188.75 208.149 1196.27 183.706 1204.76 155.268C1222.57 95.3532 1230.28 69.284 1232.49 62.9391C1236.05 53.1653 1236.57 46.6436 1233.97 46.6436C1232.69 46.6436 1220.29 49.5422 1206.61 53.1653C991.118 108.75 802.748 243.267 677.067 431.177C611.724 528.543 562.748 668.309 545.473 806.979C540.842 844.466 540.842 948.371 545.473 987.113C566.078 1157.12 637.049 1313.53 757.191 1454.2C774.199 1474.12 825.58 1525.71 828.536 1525.71C829.658 1525.71 846.648 1492.13 866.434 1450.95C886.221 1409.77 908.393 1363.87 915.784 1348.65C923.175 1333.43 929.284 1320.59 929.284 1320.23C929.284 1319.88 934.823 1308.46 941.483 1294.52C948.144 1280.57 956.443 1263.75 959.774 1256.87C963.104 1250 969.569 1236.4 974.021 1227C978.473 1217.6 988.803 1196.41 996.764 1179.92C1016.91 1137.92 1023.37 1124.35 1036.32 1097.73C1042.61 1085.06 1047.59 1074.19 1047.59 1074.02C1047.59 1073.84 1053.13 1062.24 1059.79 1048.32C1066.45 1034.39 1074.75 1017.53 1078.08 1010.65C1081.41 1003.78 1087.7 990.559 1091.96 981.687C1096.21 972.814 1102.48 959.594 1105.81 952.719C1109.14 945.844 1117.46 928.824 1124.1 914.879C1130.74 900.934 1136.3 889.711 1136.3 889.358C1136.3 889.004 1142.96 875.219 1151.1 858.764C1159.24 842.31 1165.88 828.17 1165.88 827.799C1165.88 827.428 1171.42 816.028 1178.08 802.101C1184.74 788.174 1195.64 765.71 1202.3 751.766C1208.96 737.821 1220.22 714.65 1227.06 700.352C1233.9 686.054 1239.81 674.106 1239.81 673.841C1239.81 673.576 1245.72 661.169 1252.93 646.323C1260.15 631.476 1268.64 614.28 1271.6 607.776C1280.29 589.483 1287.5 574.283 1298.4 551.643C1303.96 540.243 1313.93 519.423 1320.59 505.478C1327.25 491.534 1338.51 468.363 1345.35 454.065C1352.19 439.767 1358.12 427.819 1358.12 427.642C1358.12 427.465 1364.03 414.97 1371.22 400.124C1378.42 385.278 1386.95 368.081 1389.91 361.559C1405.42 328.597 1408.38 323.171 1409.68 324.62C1410.6 325.522 1416.51 336.02 1422.8 347.985C1429.09 359.951 1438.33 376.935 1443.14 386.002C1447.95 395.069 1457.53 412.867 1464.44 425.945C1471.35 439.024 1481.27 457.635 1486.63 467.585C1491.99 477.536 1502.34 497.101 1509.78 511.028C1517.23 524.955 1526.42 541.993 1530.1 549.063C1533.79 556.132 1543.42 573.806 1551.37 588.882C1559.31 603.958 1569.3 622.463 1573.54 630.522C1577.78 638.581 1587.04 655.513 1593.88 668.539C1627.89 732.625 1632.51 741.32 1635.46 746.304C1637.24 749.203 1647.66 768.75 1658.62 789.747C1669.57 810.744 1679.13 828.489 1679.88 829.584C1680.63 830.68 1689.3 846.781 1699.29 865.781C1709.28 884.78 1719.61 904.169 1722.44 909.241C1725.28 914.314 1732.61 928.064 1739.08 940.188L1750.73 962.104L1796.19 963.182C1864.76 964.949 1920.22 964.808 1920.22 962.634C1920.22 961.556 1896.37 912.864 1867.36 854.381C1816.53 752.455 1805.99 731.087 1756.26 631.335C1744.07 606.892 1723.19 564.898 1709.87 538.105C1696.55 511.311 1631.65 381.76 1566.22 250.284C1433.5 -16.2051 1443.48 1.16842 1423.16 0.0903094C1415.2 -0.280845 1411.01 0.44379 1405.78 3.16559Z" fill="white"/>
<path d="M1606.33 52.7765C1606.88 54.0313 1616.67 83.1934 1627.95 117.41C1639.22 151.627 1651.79 188.548 1655.48 199.418L1662.12 218.965L1682.46 225.84C1710 235.084 1722.2 240.156 1753.7 255.533C1916.48 335.561 2037.73 472.781 2097.62 645.315C2106.52 670.66 2114.25 702.155 2121.27 740.366C2134.95 814.773 2136.98 837.767 2136.98 909.276C2136.98 982.588 2133.84 1009.56 2119.17 1067.87L2113.43 1090.66L2123.23 1107.68C2128.57 1117.1 2135.05 1128.33 2137.65 1132.85C2140.25 1137.38 2144.3 1144.08 2146.7 1147.7C2148.29 1150.14 2149.71 1152.67 2150.96 1155.3C2150.96 1155.67 2156.69 1165.62 2163.53 1177.39C2170.37 1189.16 2181.45 1208.16 2188.11 1219.58L2199.97 1240.2L2204.78 1229.6C2217.16 1202.45 2238.24 1135.93 2248.96 1089.3C2280 955.317 2283.33 814.12 2258.01 693C2244.33 627.093 2219.01 555.779 2188.89 497.649C2148.96 421.085 2118.1 375.451 2068.38 320.06C1958.06 197.067 1808.71 106.046 1639.42 58.2024C1608.7 49.4891 1604.85 48.9765 1606.33 52.7765Z" fill="white"/>
<path d="M1388.21 631.742C1377.87 652.95 1339.42 731.847 1302.64 806.979C1265.86 882.111 1231.3 952.631 1225.94 963.589C1220.57 974.547 1176.96 1063.69 1128.89 1161.82C1080.82 1259.95 1032.6 1358.43 1021.7 1380.87C1010.8 1403.32 996.051 1433.36 988.928 1447.86C924.974 1578.03 917.957 1593.07 919.987 1595.42C926.452 1603.19 986.523 1637.83 1026.26 1656.96C1118.67 1701.14 1209.8 1727.76 1313.68 1740.61C1351.39 1745.13 1460.43 1745.13 1495.73 1740.61C1640.65 1721.79 1759.68 1676.98 1886.67 1593.91C1912.17 1577.25 1958.74 1543.4 1958.74 1541.6C1958.74 1540.87 1949.84 1540.15 1938.97 1540.15C1887.32 1540.15 1823.21 1529.83 1770.58 1513.36L1753.4 1507.91L1730.85 1519.33C1646.56 1562.22 1543.42 1590.84 1446.75 1597.89C1416.64 1600.24 1359.7 1598.99 1329.57 1595.36C1267.63 1588.18 1207.17 1571.64 1150.28 1546.3C1136.23 1539.96 1124.23 1534.53 1123.85 1533.93C1123.12 1533.4 1133.09 1512.93 1178.74 1421.5C1191.21 1396.53 1209.62 1359.65 1219.7 1339.14C1257.97 1262.56 1320.25 1137.66 1376.82 1024.12C1388.09 1001.68 1404.92 967.83 1414.34 948.99C1423.76 930.149 1442.84 891.779 1456.85 863.907C1495.48 786.424 1496.96 783.526 1496.23 779.726C1495.3 773.558 1410.64 593.424 1408.8 593.248C1407.81 593.354 1398.54 610.745 1388.21 631.742Z" fill="white"/>
<path d="M1419.08 1044.87C1419.08 1045.22 1430.37 1068.22 1444.23 1095.93C1458.08 1123.64 1475.84 1159.42 1483.78 1175.32C1507.63 1223.48 1530.09 1268.75 1555.86 1320.25C1569.35 1347.04 1583.96 1376.81 1588.39 1385.79L1596.71 1402.63H2008.52L2011.3 1397.56C2015.91 1388.72 2082.64 1232.45 2082.64 1230.45C2082.64 1228.45 2067.31 1201.68 2000.95 1087.61L1976.18 1045.07L1697.64 1044.54C1544.4 1044.32 1419.08 1044.54 1419.08 1044.87Z" fill="white"/>
</g>
<path d="M116.835 2294H12.9287L147.89 1894H276.601L411.562 2294H307.655L213.71 1994.78H210.585L116.835 2294ZM102.968 2136.58H320.155V2210.02H102.968V2136.58ZM633.808 1894V2294H537.128V1894H633.808ZM777.001 2294V1894H942.235C972.183 1894 998.03 1899.4 1019.77 1910.21C1041.65 1920.89 1058.51 1936.25 1070.36 1956.3C1082.21 1976.23 1088.13 1999.86 1088.13 2027.2C1088.13 2054.94 1082.08 2078.51 1069.97 2097.91C1057.86 2117.18 1040.67 2131.89 1018.41 2142.05C996.142 2152.07 969.774 2157.09 939.306 2157.09H834.813V2080.91H921.337C935.92 2080.91 948.095 2079.03 957.86 2075.25C967.756 2071.34 975.243 2065.48 980.321 2057.67C985.399 2049.73 987.938 2039.57 987.938 2027.2C987.938 2014.83 985.399 2004.61 980.321 1996.54C975.243 1988.34 967.756 1982.22 957.86 1978.18C947.965 1974.01 935.79 1971.93 921.337 1971.93H873.681V2294H777.001ZM1002.2 2111.19L1101.81 2294H996.337L898.681 2111.19H1002.2ZM1601.2 2094C1601.2 2138.01 1592.74 2175.32 1575.81 2205.91C1558.88 2236.51 1535.97 2259.76 1507.06 2275.64C1478.28 2291.53 1445.99 2299.47 1410.18 2299.47C1374.25 2299.47 1341.89 2291.46 1313.11 2275.45C1284.34 2259.43 1261.49 2236.19 1244.56 2205.72C1227.76 2175.12 1219.36 2137.88 1219.36 2094C1219.36 2049.99 1227.76 2012.68 1244.56 1982.09C1261.49 1951.49 1284.34 1928.24 1313.11 1912.36C1341.89 1896.47 1374.25 1888.53 1410.18 1888.53C1445.99 1888.53 1478.28 1896.47 1507.06 1912.36C1535.97 1928.24 1558.88 1951.49 1575.81 1982.09C1592.74 2012.68 1601.2 2049.99 1601.2 2094ZM1502.37 2094C1502.37 2067.96 1498.66 2045.95 1491.24 2027.98C1483.95 2010.02 1473.4 1996.41 1459.6 1987.16C1445.93 1977.92 1429.46 1973.3 1410.18 1973.3C1391.04 1973.3 1374.57 1977.92 1360.77 1987.16C1346.97 1996.41 1336.36 2010.02 1328.93 2027.98C1321.64 2045.95 1318 2067.96 1318 2094C1318 2120.04 1321.64 2142.05 1328.93 2160.02C1336.36 2177.98 1346.97 2191.59 1360.77 2200.84C1374.57 2210.08 1391.04 2214.7 1410.18 2214.7C1429.46 2214.7 1445.93 2210.08 1459.6 2200.84C1473.4 2191.59 1483.95 2177.98 1491.24 2160.02C1498.66 2142.05 1502.37 2120.04 1502.37 2094ZM1815.44 1894L1888.49 2020.37H1891.61L1965.44 1894H2073.64L1952.94 2094L2077.55 2294H1966.61L1891.61 2166.27H1888.49L1813.49 2294H1703.33L1827.35 2094L1706.45 1894H1815.44ZM2302.82 1894V2294H2206.14V1894H2302.82ZM2786.44 1894V2294H2704.41L2545.23 2063.14H2542.69V2294H2446.01V1894H2529.22L2686.64 2124.47H2689.96V1894H2786.44Z" fill="white"/>
<path d="M142.583 2430.91V2620H102.604V2430.91H142.583ZM377.835 2430.91V2620H343.304L261.039 2500.99H259.654V2620H219.675V2430.91H254.76L336.379 2549.83H338.041V2430.91H377.835ZM447.865 2463.87V2430.91H603.163V2463.87H545.272V2620H505.755V2463.87H447.865ZM672.938 2620V2430.91H800.353V2463.87H712.917V2508.93H793.798V2541.89H712.917V2587.04H800.722V2620H672.938ZM876.337 2620V2430.91H950.94C965.22 2430.91 977.408 2433.46 987.502 2438.57C997.658 2443.62 1005.38 2450.79 1010.68 2460.09C1016.03 2469.32 1018.71 2480.18 1018.71 2492.68C1018.71 2505.23 1016 2516.04 1010.58 2525.09C1005.17 2534.07 997.32 2540.97 987.041 2545.77C976.823 2550.57 964.451 2552.97 949.924 2552.97H899.974V2520.84H943.461C951.094 2520.84 957.434 2519.79 962.481 2517.7C967.528 2515.61 971.283 2512.47 973.745 2508.28C976.269 2504.1 977.531 2498.89 977.531 2492.68C977.531 2486.4 976.269 2481.11 973.745 2476.8C971.283 2472.49 967.497 2469.23 962.389 2467.01C957.341 2464.73 950.97 2463.59 943.276 2463.59H916.316V2620H876.337ZM978.454 2533.95L1025.45 2620H981.316L935.336 2533.95H978.454ZM1249.32 2430.91V2620H1214.79L1132.53 2500.99H1131.14V2620H1091.16V2430.91H1126.25L1207.87 2549.83H1209.53V2430.91H1249.32ZM1359.15 2620H1316.31L1381.58 2430.91H1433.1L1498.29 2620H1455.45L1408.08 2474.12H1406.6L1359.15 2620ZM1356.47 2545.67H1457.66V2576.88H1356.47V2545.67ZM1534.94 2463.87V2430.91H1690.24V2463.87H1632.35V2620H1592.83V2463.87H1534.94ZM1799.99 2430.91V2620H1760.01V2430.91H1799.99ZM2050.85 2525.45C2050.85 2546.07 2046.94 2563.62 2039.12 2578.08C2031.37 2592.55 2020.78 2603.6 2007.36 2611.23C1994 2618.8 1978.98 2622.59 1962.3 2622.59C1945.5 2622.59 1930.42 2618.77 1917.06 2611.14C1903.71 2603.5 1893.15 2592.46 1885.39 2577.99C1877.64 2563.53 1873.76 2546.01 1873.76 2525.45C1873.76 2504.83 1877.64 2487.29 1885.39 2472.83C1893.15 2458.36 1903.71 2447.34 1917.06 2439.77C1930.42 2432.14 1945.5 2428.32 1962.3 2428.32C1978.98 2428.32 1994 2432.14 2007.36 2439.77C2020.78 2447.34 2031.37 2458.36 2039.12 2472.83C2046.94 2487.29 2050.85 2504.83 2050.85 2525.45ZM2010.32 2525.45C2010.32 2512.1 2008.31 2500.83 2004.31 2491.66C2000.37 2482.49 1994.8 2475.54 1987.6 2470.8C1980.4 2466.06 1971.97 2463.69 1962.3 2463.69C1952.64 2463.69 1944.21 2466.06 1937.01 2470.8C1929.8 2475.54 1924.2 2482.49 1920.2 2491.66C1916.26 2500.83 1914.29 2512.1 1914.29 2525.45C1914.29 2538.81 1916.26 2550.08 1920.2 2559.25C1924.2 2568.42 1929.8 2575.37 1937.01 2580.11C1944.21 2584.85 1952.64 2587.22 1962.3 2587.22C1971.97 2587.22 1980.4 2584.85 1987.6 2580.11C1994.8 2575.37 2000.37 2568.42 2004.31 2559.25C2008.31 2550.08 2010.32 2538.81 2010.32 2525.45ZM2282.82 2430.91V2620H2248.29L2166.03 2500.99H2164.64V2620H2124.66V2430.91H2159.75L2241.37 2549.83H2243.03V2430.91H2282.82ZM2392.65 2620H2349.81L2415.08 2430.91H2466.6L2531.79 2620H2488.95L2441.58 2474.12H2440.1L2392.65 2620ZM2389.97 2545.67H2491.16V2576.88H2389.97V2545.67ZM2598.75 2620V2430.91H2638.72V2587.04H2719.79V2620H2598.75Z" fill="white"/>
<defs>
<clipPath id="clip0_2_24">
<rect width="1733" height="1744" fill="white" transform="translate(542)"/>
</clipPath>
</defs>
</svg>
