<svg width="32768" height="21846" viewBox="0 0 32768 21846" fill="none" xmlns="http://www.w3.org/2000/svg">
<g clip-path="url(#clip0_2_498)">
<path d="M32768 21845.5H0V0.00217645H32768V21845.5Z" fill="white"/>
<path d="M28037.6 17325.3C27770.9 17419.1 27671.8 17110.5 27790.8 17549.5C27837.4 17748.6 28237.5 17486.1 28037.6 17325.3Z" fill="#93DBD5"/>
<path d="M28397.6 15751.5C28300 15641.8 28235.9 15609.4 28213.7 15487H28139C28011 15274.9 27837.3 14953.9 27679.2 14717.6C27536.8 14077.5 27498 14691.8 27483.1 14897.2C27473.6 15224.4 26840.4 14865.5 27121.9 14531.3C26630.2 14469.3 26665.3 14672.3 26490 14791.8C26159.3 14538.1 25943.7 15249 25723.4 15280.4C24962.9 15263.8 25318.2 16583.4 25538.3 16736.2C26123.8 16611.3 26740.7 16041.5 27035.6 16731.3C27311 16115.8 27110.4 17029.3 27650.5 17098C27713.8 17008.3 27819.5 17022.2 27863.2 17122.1C28241.3 17109 28593.6 15998.2 28397.6 15751.5Z" fill="#93DBD5"/>
<path d="M27967.7 14051.2C27906.6 13800.7 27063.7 13350.8 26996.9 13838.5C27090.9 13907.6 27247.4 13911.3 27256 14092.4C27355.9 14149.5 27495.6 14371.7 27677.5 14240.6C27546.6 13900.2 28026.6 14369.1 28232.8 14402C28277.2 14253.1 27879.1 14249 27967.7 14051.2Z" fill="#93DBD5"/>
<path d="M26670.5 13536.2C26714.7 13595.2 26761.6 13695.2 26932.2 13670.9C26934.7 13614.5 26695 13353 26670.5 13536.2Z" fill="#93DBD5"/>
<path d="M25657.1 13715.5C25711.6 13845.2 25747.4 14209.2 25799.2 13718.9C25999.9 13993.4 25912.2 13771 25986.2 13538.5C25840.8 13592.1 25842.3 13545.7 25719.6 13500.7C25718.2 13562.9 25728.1 13628.1 25657.1 13715.5Z" fill="#93DBD5"/>
<path d="M25766.1 13404.8C25705.1 13440.4 26077 13428.9 26154 13375.3C26121.7 13348.5 25863.4 13316.1 25766.1 13404.8Z" fill="#93DBD5"/>
<path d="M24872.4 13307.1C24822.9 13437 24970 13526 24991.8 13700.9C25222.2 13741.7 25509.9 13919.5 25588.8 13360.4C25609.2 13359.7 25629.6 13359.1 25649.9 13358.4C25495 13118.3 25598.4 13203.5 25668.7 12950.4C25522 12858 25509.1 12734.1 25420.1 12971.3C25246.7 13050.5 25037 13380.9 24872.4 13307.1Z" fill="#93DBD5"/>
<path d="M25312.5 14212.6C25336.2 14202.8 25304.8 14255.3 25410 14227.2C24953.3 13861.8 23926 14038.6 25312.5 14212.6Z" fill="#93DBD5"/>
<path d="M24617.5 13710.7C24589.9 13754 23924.5 12803 23767 13010.1C23917.9 13079.3 24632.9 14456.5 24617.5 13710.7Z" fill="#93DBD5"/>
<path d="M24059.9 12744.7C24246.6 12879.5 24220.6 13252.7 24500.1 13324C24537.9 13173.7 23854.4 12211.9 24059.9 12744.7Z" fill="#93DBD5"/>
<path d="M26308.2 12804.9C26317.3 12420 25888.7 12765.3 26228.8 12959.3C26202.6 12904.1 26199.6 12837.3 26220.6 12779.6C26240.5 12806.5 26278 12817.4 26308.2 12804.9Z" fill="#93DBD5"/>
<path d="M25958.2 12787.9C25983.6 12762.4 26013.7 12742.2 26046.4 12728.5C26076.9 12621.1 25929.8 12705.9 25958.2 12787.9Z" fill="#93DBD5"/>
<path d="M26128.4 12315.1L26126.6 12334.2C25943.6 12394.5 26355 12704.5 26128.4 12315.1Z" fill="#93DBD5"/>
<path d="M31246.3 6312C31185 6312 31100.7 6255.9 31100.7 6255.9L31093 6376.09C30632.6 5880.42 29562.6 5591.71 29905.3 6007.43C29842.4 6025.65 29662.5 5974.31 29614.1 5895.23C28535.3 5959.15 29450.6 5623.47 28327 5676.47C28008.5 5395.45 28168.9 5505.46 27767 5537.01C27904.7 5307.54 27273 5347.3 27353.5 5598.65L27261.6 5574.62C27180.8 5625.57 27026.4 5564.71 26924.5 5630.72C26708.8 5428.61 26765.7 5744.49 26546.6 5626.66C26446.5 5383.69 26235 5023.42 26035.6 5310.12C25507.9 5356.6 25147.3 5048.28 24610.3 5334.15C25138.1 5042.25 25701.7 4601.58 24648.6 4709.02L24732.9 4651.69C24740.5 4592.62 24551.3 4565.75 24503 4580.78C24667.8 4309.24 24132.8 4747.86 23699.7 4830.04C23362 4865.74 23144.6 4817.68 23078.8 5147.46C21951.9 5280.63 23021.3 5443.81 22656.3 5542.55L22441.7 5446.39C22387.2 5457.71 22281.6 5499.91 22219.5 5534.51L22342.1 5622.68L22181.2 5630.72C22066.5 5524.9 22296.8 5403.31 22089.2 5334.15V5462.38C21781.4 5683.15 22511.8 6613.6 21629.4 6360.1C21951.7 6280.58 22053.1 6161.26 21913.9 5933.59C21917 5827.55 21973.4 5650.38 21882.3 5590.61C22052.9 5037.05 21217.8 5470.33 21605.9 6097.43C21285.9 6042.38 21061.7 5588.39 20877.8 6074.89C20732.8 5919.3 20300.2 6226.36 20426.4 6001.4C20263.5 6019.88 20116 6153 19949.4 6205.78C19977.3 6414.41 19534.1 6230.12 19811.4 6175.72C19876.3 6080.83 19669.2 6031.5 19621.8 6037.49C19636.6 6104.68 19590 6232 19656.3 6314.01C19649.4 6385.83 19593.9 6427.6 19524.1 6368.1C18995.9 6492.79 19621.8 6742.57 19070.1 6596.51V6662.66C19227.9 6776.74 18964.1 6733.75 18893.9 6677.73C18849.1 6554.13 18830.4 6363.6 18667.8 6253.89C19913.1 6716.71 19301.8 5877.36 18455.1 5851.06C18405.8 5233.35 16881.9 6360.67 16938 6740.78C16835.8 6894.05 16245.8 6903.4 16564.4 7287.84C16451.4 7680.71 16689.5 7532.68 16914.9 7353.85C17052.3 7405.41 17080.5 8214.39 17282.7 7714.57C17454 7734.1 17406.8 7437.17 17587.3 7281.81L17460.9 7203.64C17632.5 6645.75 18269.4 5877.88 17821.2 7214.22C17974.8 7312.65 18450.3 7058.15 18369 7341.92C18277.9 7357.26 18095 7372.81 17995.4 7371.94L17978.1 7486.15L18047.1 7570.34L17989.6 7666.51C17795.3 7439.01 17723.6 7667.99 17776 7816.8C17739.7 7865.26 17677.3 7973.65 17610.3 8009.13C17548.8 7889.59 17344.5 8028.4 17294.3 8045.22C17145.7 7980.69 17107.4 8013.11 16959.9 8036.31C16761.4 7915.02 17017.6 7514.99 16742.5 7768.7C16894.4 8051.25 16177.2 8528.44 15926.4 8604.25C15952.2 8714.48 15869 8712.34 15702.3 8716.92C15720.7 8786.7 15812.9 8837.38 15886.2 8862.72C16309.6 9739.78 15024.1 8687.87 15363.2 9866.61C15309.6 9943.81 15432.5 9967.19 15495.4 9944.73L15558.6 10040.9C15615.8 10022.5 15836.8 9948.27 15920.7 9974.79C15957.9 9930.62 16049.4 9824.89 16081.6 9782.42C15941.9 9636.71 16216.3 9531.76 16311.5 9461.86C16236 9279.01 16424.2 9266.73 16564.4 9325.58C16771.3 9025.12 17395.7 9670.66 17338.3 9854.55L17437.9 9750.39C17432.3 9682.23 17426.9 9605.95 17522.2 9662.18V9622.12C16424.4 8602.24 17595.5 9148.07 17868.8 10015.9C17964.2 9795.79 17853 9464.3 18234.8 9551.03C18171.2 10379.3 18866.4 9802.04 18954.6 10121.1C18829.7 11084.4 17883 10251.5 17720.9 10417C17581.6 10910 17204.6 10360.2 16892.9 10231.7C17079 9559.2 15841.4 10299.2 15621.9 10111C15536.3 10212 15341.9 10366 15269.4 10463.7C15351.5 10810.9 14816.9 11020.6 14689.3 11374.6C14578.9 12066.1 14883.5 13135.1 15652.5 12957.7C15908.4 13192.1 16223.2 12768.9 16487.7 12952C17168.2 13284.8 16546.3 13401.3 17115.4 14130.4C17013.7 15557 17213.2 15483.4 17526.5 16588.9C18010.9 16924.2 18673.4 16337.9 18748.2 15793.6C19140.1 15627.7 18786.7 15412.9 18932.7 15214C19426.4 14783.4 19338 14875.2 19338.3 14383C18734.6 13788.4 21034.3 12239.9 19873 12496.2C19177 12357.3 18791.5 10978.3 18817.7 10865.4C19003.5 10721.6 19254.5 11556.3 19265.7 11533.9C19476.6 11815.4 19519.6 11940.4 19571.2 12257.9C19970.8 12340.6 20806.5 11777 20855.5 11385.4C20466.4 11030.1 20697 11007.8 20311.5 11281.2C19871.3 10846.5 19780.8 10321.3 20415.7 10991.6C20563.1 10994.3 20625.7 10816.5 20686.9 11072.8C20851.7 11127.3 21226.7 11172.1 21445.6 11120.9C21459.9 11184.2 21573.5 11317 21644.8 11361.4C21707.9 11717.7 21897.4 11457.7 21946.4 11453.1C21969.9 12016.6 22252.9 12815.8 22372.8 12729.2C22435.8 12530.2 22591.4 12361.2 22513.8 12136.3C22655 11831 23010.4 11727.8 23162 11465.6C23219.9 11454.7 23344.3 11432.7 23407.2 11401.4V11337.3C23530.9 11503.5 23737.8 11735.6 23698.4 11978.5L23765.1 12010.6C23815.7 11988.2 23898.5 11943.5 23943.9 11890.3C23965.5 12091.5 24108.8 12323.6 24073.9 12536.5L24150.5 12424.2C24031.8 11910.5 24495.4 12557.3 24556.7 12662.2C24589.9 12635.3 24646.2 12599 24663.9 12536.5C25418.2 12216.6 24073.2 11561.5 24909.1 11489.6L24947.5 11577.8C25528 11324 26239.5 10849.3 25706.1 10183.2C25727.3 10041.2 25905.1 9982.96 25988 9950.72C25856.2 9837.38 25701.9 10043.6 25679.4 9870.59C25388.8 9838.21 26129.7 9325.63 25893.8 9714.3L25947.4 9726.32C25979.3 9695.82 26137.8 9615.96 26188.8 9710.33C26156.1 9810.16 26168 9903.66 26307.6 9886.62C26185.7 10352.3 26543.2 10207.9 26524.1 10066.5C26536.7 9806.62 26256.3 9781.19 26529.2 9564.88C27707.5 8806.36 27579.8 7813.09 27242.4 8107.31L27127.5 8091.27L27108.4 7991.09L27004.9 7959.06C27948.3 6986.76 27543.6 7630.81 28211.8 7321.87C28269.7 7352.28 28360.1 7393.09 28418.7 7450.1L28549 7377.97L28587.3 7249.74C28695.9 7149.38 29027.1 6826.28 28993.4 7201.63L29200.3 7105.47C29299.1 6774.42 29328.9 6998.25 29319.7 7169.56C29153.6 7205.61 28973.1 7389.11 28901.5 7530.28C28551.2 7568.2 28679.9 8212.86 28709.8 8403.88C28944.2 8247.99 29096.6 7947.26 29246.3 7698.57C29014.8 7440.71 29587.4 7030.28 29821 7305.84C30550.6 6643.39 30621.5 7174.54 30487.7 6736.76C30012.7 6485.71 30688.6 6751.31 30625.6 6440.23C30716.8 6354.64 30738 6420.96 30778.9 6504.32C30917.9 6462.34 31214.4 6840.88 31224.8 6496.33C31256.1 6550.29 31382.3 6474.88 31430.2 6440.23C31430.2 6440.23 31307.6 6312 31246.3 6312Z" fill="#93DBD5"/>
<path d="M15662.1 7967.06H15748.3C15789 8006.47 15823.5 8047.27 15823 8129.37L15742.5 8159.38C15727.5 8205.3 15694.9 8279.67 15662.1 8333.76L15771.3 8351.76L15794.2 8381.82C15733.3 8392.13 15671.9 8443.51 15633.3 8514.07C15789.9 8427.95 16007.2 8481.47 16156.3 8417.9L16116.1 8363.82L16196.5 8249.56L16093.1 8165.41C16090.3 8080.65 16022.8 7964.22 15932.2 7924.98L15903.4 7840.83L15840.2 7798.76C15853.2 7744.45 15869.8 7688.22 15926.4 7636.45C15894.7 7609.4 15822.3 7582.23 15759.7 7564.31L15805.8 7462.12L15719.5 7438.09L15610.3 7588.34C15609.9 7731.61 15594.3 7684.9 15685 7858.88L15662.1 7967.06Z" fill="#93DBD5"/>
<path d="M15506.9 8267.61C15587.8 8195.3 15529.8 8063 15610.3 7976.1L15506.9 7912.97L15409.2 7949.01L15397.7 8006.12L15277 8033.16V8093.28L15322.8 8153.4C15292.6 8200.45 15267.7 8248.65 15277 8327.73C15338.2 8341.05 15443.7 8313.18 15506.9 8267.61Z" fill="#93DBD5"/>
<path d="M14926.4 6536.4C14911.3 6487.51 14820.8 6415.37 14765.5 6380.11C14652.2 6443.9 14467.9 6429.7 14346 6494.32C14326 6456.09 14303.1 6397.55 14242.5 6380.11L14254 6446.26C14032 6346.6 14510.7 7166.55 14926.4 6536.4Z" fill="#93DBD5"/>
<path d="M25037.3 11662.3C25014.4 11598.3 24873.7 11649.5 24831.2 11726.5C24864.5 11888.5 24972.1 11751.6 25037.3 11662.3Z" fill="#93DBD5"/>
<path d="M25822.1 11418.7C25856.7 11384.8 25953.7 11207 25897.8 11136.4C25797.6 11176.5 25737.6 11286.9 25822.1 11418.7Z" fill="#93DBD5"/>
<path d="M26537.8 10378.5L26527.7 10364C26679.1 10826.3 26859 10147.7 26537.8 10378.5Z" fill="#93DBD5"/>
<path d="M27149.5 9989.86C27114.2 10162 26724.7 10088.8 26679.1 10275.9C26810.9 10285.4 26849.6 10194.9 27023.9 10217.3C27020 10247.7 27015.9 10278.1 27011.9 10308.5C27099 10229.7 27219.7 10194.6 27396.8 10162.4C27381.2 9972.3 27707.1 9680.44 27415 9531.63C27421 9720.46 27312.3 9908.03 27149.5 9989.86Z" fill="#93DBD5"/>
<path d="M27439.1 9303.56C27284.2 9519.09 27727.6 9423.8 27799.3 9279.1C27552 9279.45 27668.3 8939.09 27439.1 9303.56Z" fill="#93DBD5"/>
<path d="M27537.9 8926.9C27670.5 8959.5 27506.6 8754.59 27736.2 8605.82C27531.1 7741.83 27553.2 8402.79 27537.9 8926.9Z" fill="#93DBD5"/>
<path d="M20291.5 5540.42C20594.5 5708.1 20625.3 5900.12 20590.6 5318.82C20569.1 5177.52 20131.5 5469.07 20291.5 5540.42Z" fill="#93DBD5"/>
<path d="M20677.4 5251.48C20681.6 4889.59 21667 4864.56 21600.5 4599.4C21447.1 4615.39 20000.6 5082.84 20677.4 5251.48Z" fill="#93DBD5"/>
<path d="M17049.8 4291.33C17065.1 4343.63 17179.7 4494.49 17209 4319.34C17242 4307.32 17277.8 4303.83 17312.3 4309.2C17360.6 4419.48 16980.5 4474.53 17404.2 4659.86C17479.1 4614.12 17651.6 4113.33 17769.3 4407.72C17694.2 4665.41 18497 4526 17356.9 4039.1C17372.2 4096.03 17387.5 4152.96 17402.9 4209.89C17352.3 4246.37 17253.4 3934.46 17231 4146.01C17087.4 4033.29 16754.2 4031.54 17049.8 4291.33Z" fill="#93DBD5"/>
<path d="M17690.3 4054.88C17708 4073.4 17701 4003.06 17788.4 4082.79C17759.4 4081.44 17730.2 4086.2 17703.1 4096.73C18093.1 4314.23 18591.3 3782.55 17829.5 4010.14C17754.8 3871.68 17376.4 4064.14 17690.3 4054.88Z" fill="#93DBD5"/>
<path d="M20073.5 14593.4C20016.7 14440.9 19897.7 14922.2 19647.9 14986.8C19774.8 15199.9 19264.8 15941.2 19861.4 15742.4C19916.4 15486.7 20037.5 15206 20091.5 14886.5C20176.4 14855.9 20155.9 14774.4 20073.5 14593.4Z" fill="#93DBD5"/>
<path d="M22644.6 12709.9C22553.7 12369 22432.3 12891 22606.2 12914.8C22667.8 12902.9 22733.2 12797.1 22644.6 12709.9Z" fill="#93DBD5"/>
<path d="M11483.7 14261.6L11483.5 14260.4L11483.9 14260.7L11483.7 14261.6ZM8188.55 11766.5L8273.96 11815C8257.58 11812.1 8219.87 11793.8 8188.55 11766.5ZM13093.1 13914.1C12936.2 13724.4 12704.2 13626 12468.6 13685.7C12394.6 13501 12140 13513.3 11970.5 13469.3L11959 13593.5L11909.2 13577.5C11926.7 13474.6 12056 12859.8 11426.5 12900.3C11364.7 12815 11232.3 12672.3 11116.1 12662.2L11070.1 12547.5C10976.9 12491.1 10671.7 12488.9 10541.4 12499.5C10511.1 12458.7 10449.6 12408 10386.2 12391.3L10294.3 12469.4V12595.6L10225.3 12529.5C10324.6 12170.6 10154.2 12493.5 9955.18 12469.4C9937.88 12502 9847.96 12674.9 9811.53 12727.9C9811.18 12704.5 9714.97 12604.5 9690.85 12577.6C9529.81 12691.7 9381.92 12590.6 9288.55 12469.4C9297.07 12415.1 9278.15 12201 9311.53 12132.8L9225.33 12024.6C9145.68 12013 8976.6 11979 8891.97 12024.6C9035.89 11432.1 9110.25 11475.3 8777.06 11483.6C8309.44 12566.6 7608.21 10459.5 8805.77 10720.2L8777.06 10672.1C8847.84 10636.9 9012.25 10630.8 9098.89 10636C9146.25 10734.1 9213.97 10704.8 9277.01 10636C9628.51 11456.2 9476.42 10949.4 9535.58 10425.6C10162.6 10008.7 9698.89 9892.91 9884.97 9770.4L9943.69 9884.61C9962.61 9805.27 10078.9 9654.8 10104.6 9548.02C10251.6 9580.09 10388 9475.75 10346 9307.54C10447.5 9194.77 10662.3 9116.44 10817.2 9055.05C10776.3 9086.9 10721.4 9151.83 10696.6 9217.36L10771.3 9283.51L10857.5 9175.29C10919.5 9170.05 11035.1 9128.23 11104.6 9091.14V9006.99C11038.9 9014.11 10947.4 9002.84 10874.7 8964.92L10811.5 8826.63L10863.2 8676.38L10754.1 8616.26C10591.4 8650.95 10445.3 8787.18 10334.5 8910.83C10277.1 8733.44 10553.9 8599.88 10639.1 8514.07C11617.5 8484.05 11797.3 8278.36 11018.3 7708.71C10881.1 7109.49 10803.4 7325.32 10639.1 7504.19C10376.3 7432.41 10461.8 7373.78 10421.8 7174.37C10083 6891.08 9908.91 7019.36 9777.05 6969.2C9759.58 7101.58 9799.47 7323.79 9702.34 7462.12L9863.26 7594.37V7792.73C9817.03 7835.24 9690.63 7958.06 9645.2 7991.09L9696.58 8291.68C9610.24 8511.23 9471.83 8208.71 9391.96 8135.4L9403.5 7919C8993.9 7870.32 8688.46 7697.61 8409.23 7432.06C8300.83 6851.63 9150.44 6698.93 9058.65 6380.11C9250.58 6353.42 9380.91 6424.55 9478.17 6205.78C9438.76 6175.9 9398.87 6115.78 9391.96 6049.5C9435.65 5705.7 9147.08 5879.33 9029.9 6223.83C8748.88 5672.19 8781.82 6280.93 8696.58 5941.28C8485.73 5902.26 8398.83 6158.73 8110.39 6181.75C7599.51 6270.27 7517.85 5920.7 7351.78 6175.73L7397.75 6289.93L7369 6332.01C7176.32 6079.34 6910.38 6230.34 6742.56 6175.73V6097.61L6823.04 6049.5C6546.35 5988.82 6130.67 5783.42 6006.94 5923.28C5996.5 5891.12 5978.72 5848.7 5943.72 5803.04L5891.99 5899.2C5696.04 5627.14 5361.89 5924.5 5096.47 5997.64C4444.87 5741.35 3846.98 5797.23 3438 5604.68C2541.25 5911.09 3020.63 6051.77 2656.38 5983.35L2604.66 6037.49C2682.34 6134.31 2857.2 6318.64 2972.49 6271.89L3110.42 6349.66C2962.6 6549.72 2606.18 6202.46 2535.7 6518.35C2567.22 6542.55 2629.41 6601.45 2673.61 6650.6C3004.3 6660.65 3084.1 6498.08 3052.96 6806.89C2978.58 6858.97 2761.83 6772.63 2742.59 6921.14C2718.74 6911.88 2635.76 7056.23 2644.91 7095.42C2679.67 7092.32 2756.98 7135.66 2725.36 7209.67C2789.99 7332.88 2874.01 7257.43 2926.51 7209.67C2951.02 7542.42 3135.47 7433.07 3340.29 7420.05L3346.06 7522.24C3212.1 7746.15 2944.72 7786.61 2828.8 7955.04C3696.74 7631.42 3542.29 7295.74 3834.54 7095.42H3943.75C3862.32 7118.62 3815.97 7237.59 3777.08 7323.84C3820.19 7459.63 3975.68 7288.05 4052.93 7227.67V7137.5C4689.93 7260.09 5646.84 7690.89 5729.2 8464C6246.11 8865.3 5949.45 9292.69 6036.22 9665.63C6194.2 10135.5 6654.61 10390.6 6824.96 10876.4C6603.45 10896.5 7038.3 11022.2 6982.03 11161C7023.41 11212.1 7115.29 11296.4 7185.11 11329.3L7192.75 11277.2C7048.88 11040.2 6687.38 10561.9 6802.07 10503.7C7412.69 11101.2 7625.46 12116.9 8486.43 12016.4C8682.69 12342.8 9072.8 12185.5 9127.64 12555.6C9305.46 12693.2 9484.33 12818 9713.83 12758C9976.28 13052.2 9555.63 13382.8 9524.17 13665.6L9610.37 13671.7C9569.74 13753 9453.09 13869.5 9483.93 13990.3C9696.4 14164.3 9800.6 14534.8 9903.45 14789.8C10960 15162.7 9889.78 17245.1 10064.4 17590.9C10088 17557.4 10120.8 17505.1 10139.1 17434.6C10179.8 17565.1 10114.3 17771.6 10087.4 17909.5L9966.71 17945.6L9935.35 18011.7H10035.7L10058.6 18089.9C9798.72 18512.3 10354.4 19111.5 10771.3 18975.5C10575.3 18874.2 10455.7 18669.6 10449.5 18470.6C10529.1 18362.8 10585.5 18204.3 10710 18117.9V18037.8C10550 18053.2 10787.2 17230.8 10993.5 17357.4L11024.2 17148.1C11126.1 17124.3 11529.7 17082.6 11422.6 16875.6L11443.1 16771.4L11338.3 16683.3C11748.7 16924.5 12180.8 15993.4 12135.3 15800.6C12209.9 15661.3 12419.5 15661.2 12495.4 15529.1H12625.7C13024 15155.2 12827.6 14760.8 12893.9 14663.5C13018.5 14487.9 13478.6 14067.3 13093.1 13914.1Z" fill="#93DBD5"/>
<path d="M11459 8448.53C11381.8 8543.56 11318.1 8617.62 11261.8 8801.64C11407.9 8751.22 11895.7 8950.98 11741.2 8725.01C11783.6 8576.55 11449.1 8686.56 11546.3 8386.84C11509.8 8385.97 11481.7 8418.65 11459 8448.53Z" fill="#93DBD5"/>
<path d="M5924.98 5502.32C5967.88 5495.59 6120.49 5731.74 6164.05 5577.34C7424.92 5073.93 5881.38 4794.35 5924.98 5502.32Z" fill="#93DBD5"/>
<path d="M6573.61 5583.36C6430.3 5791.11 6791.32 5617.7 6976.92 5790.72C5853.76 5799.02 7542.84 6107.61 7733.51 5905.59C7964.37 5877.45 7499.02 5331.62 7340.34 5284.08C7345.14 5329.52 7524.97 5740.83 7220.01 5363.16C6991.77 5522.5 7057.62 5293.61 6839.38 5381.69C6828.98 5357.44 6825.27 5330.04 6828.94 5303.74C6692.32 5278.05 6094.5 5552.34 6573.61 5583.36Z" fill="#93DBD5"/>
<path d="M8942.82 5659.25C8574.91 5792.21 9564.89 5793.69 9715.8 5785.96C9841.93 5920.75 10149.3 6010.57 10207.1 6216.45C10124.6 6313.75 10015.6 6355.03 10109.1 6510.62C9922.72 6520.97 9493.37 6680.44 10087.4 6644.01C10223.3 6795.22 11022.6 7311.39 10578.3 6801.99C11167.8 6955.22 10552.8 6562.26 10647 6391.69C10986.7 6726.76 11252.2 6369.54 10535.7 5993.18C10937.4 5984.01 9677.79 5074.62 9548.86 5214.79C9552.18 5350.1 9971.3 5574.23 9498.05 5464.52C9515 5202.2 9176.53 5019.97 9195.05 5656.63C9076.56 5571.57 9010.98 5347.61 9155.95 5194.25C8956.59 5098.74 8590.81 5586.95 8942.82 5659.25Z" fill="#93DBD5"/>
<path d="M10475.1 4157.38C10618.9 4578.82 11355.1 4542.73 11481.5 4565.71L11771.9 4900.82C11899.9 5657.72 11932.1 6741.74 12797 6997.73C12822.5 6103.15 13887.3 5997.51 14406.1 5484.8C14351.2 4978.85 14769.1 4452.33 14657.3 3914.32C14827.2 3841.18 15137.2 3657.03 15275 3501.92C15047.2 3366.09 14719.1 3336.2 14452.1 3357.66L14061.3 3093.19C11302.3 2965.79 11277.8 3761.05 10590 3851.41L10475.1 4157.38Z" fill="#93DBD5"/>
<path d="M10253.8 7734.49C10027.7 7734.49 9844.25 7551.12 9844.25 7324.89C9844.25 7098.66 10027.7 6915.28 10253.8 6915.28C10480.1 6915.28 10663.4 7098.66 10663.4 7324.89C10663.4 7551.12 10480.1 7734.49 10253.8 7734.49ZM10253.8 6797.58C9947.1 6797.58 9698.45 7046.27 9698.45 7353.02C9698.45 7424.63 9712.13 7492.97 9736.81 7555.84L10253.8 8435.99L10770.9 7555.84C10795.6 7492.97 10809.3 7424.63 10809.3 7353.02C10809.3 7046.27 10560.6 6797.58 10253.8 6797.58Z" fill="#E73949"/>
<path d="M15634.6 9873.21C15408.4 9873.21 15225 9689.79 15225 9463.6C15225 9237.37 15408.4 9054 15634.6 9054C15860.8 9054 16044.2 9237.37 16044.2 9463.6C16044.2 9689.79 15860.8 9873.21 15634.6 9873.21ZM15634.6 8936.34C15327.9 8936.34 15079.2 9184.99 15079.2 9491.74C15079.2 9563.35 15092.9 9631.68 15117.6 9694.55L15634.6 10574.7L16151.7 9694.55C16176.3 9631.68 16190.1 9563.35 16190.1 9491.74C16190.1 9184.99 15941.4 8936.34 15634.6 8936.34Z" fill="#E73949"/>
<path d="M12174.8 13221.1C11948.6 13221.1 11765.2 13037.7 11765.2 12811.5C11765.2 12585.3 11948.6 12401.9 12174.8 12401.9C12401 12401.9 12584.4 12585.3 12584.4 12811.5C12584.4 13037.7 12401 13221.1 12174.8 13221.1ZM12174.8 12284.2C11868.1 12284.2 11619.4 12532.9 11619.4 12839.6C11619.4 12911.2 11633.1 12979.6 11657.8 13042.4L12174.8 13922.6L12691.9 13042.4C12716.5 12979.6 12730.2 12911.2 12730.2 12839.6C12730.2 12532.9 12481.5 12284.2 12174.8 12284.2Z" fill="#E73949"/>
<path d="M12008.2 9380.42H11978.5V9222.3H12008.2V9380.42Z" fill="#282627"/>
<path d="M12702.9 10270H11398.2V9428.43H12702.9V10270Z" fill="#4870C0"/>
<path d="M11832.1 10270H11798.3V9428.43H11832.1V10270Z" fill="#282627"/>
<path d="M12250.5 10312.2H12216.7V9428.43H12250.5V10312.2Z" fill="#282627"/>
<path d="M13053 9972.47H12878V9153.57H13053V9972.47Z" fill="#A5A8A6"/>
<path d="M13386.3 10027.1H13053V9354.99H13386.3V10027.1Z" fill="#A5A8A6"/>
<path d="M11262.7 10162.7H11180.3V9179.92H11262.7V10162.7Z" fill="#F8A542"/>
<path d="M13691.3 9914.02C13691.3 9914.02 13527.4 10145.6 13346.7 10315.1C13230.5 10423.9 13154 10514.2 13108.2 10591.8C13082.7 10635 13066.6 10674.1 13058.7 10710.4H11042.3C11042.3 10710.4 11009.2 10651.7 10966.7 10591.8C10937 10550.2 10903.2 10507.7 10872.9 10484.5C10799.5 10428.1 10703.5 10312.2 10703.5 10312.2L10658.3 10032.8H12493.9L12561.6 9914.02H13691.3Z" fill="#282627"/>
<path d="M12087.2 9264.64H11180.3V9179.92H12087.2V9264.64Z" fill="#F8A542"/>
<path d="M13108.2 10591.8C13082.7 10635 13066.6 10674.1 13058.7 10710.4H11042.3C11042.3 10710.4 11009.2 10651.7 10966.7 10591.8H13108.2Z" fill="#865EB5"/>
<path d="M13069.9 9914.06H13036.2V9354.99H13069.9V9914.06Z" fill="#282627"/>
<path d="M12702.9 9651.39H11398.2V9617.62H12702.9V9651.39Z" fill="#282627"/>
<path d="M12702.9 9866.09H11415.1V9832.31H12702.9V9866.09Z" fill="#282627"/>
<path d="M13262.5 9544.65H13163.6V9445.82H13262.5V9544.65Z" fill="#282627"/>
<path d="M13262.5 9699.49H13163.6V9600.66H13262.5V9699.49Z" fill="#282627"/>
<path d="M13262.5 9854.38H13163.6V9755.55H13262.5V9854.38Z" fill="#282627"/>
<path d="M17431.6 4794.13C17431.6 5252.67 17229.7 5664.24 16909.6 5944.6C16640.5 6180.14 16288 6322.92 15902.8 6322.92C15058.6 6322.92 14374 5638.33 14374 4794.13C14374 4771.23 14374.4 4748.38 14375.7 4725.97C14407.7 3998.21 14947.7 3403.31 15649.6 3286.44C15732 3272.63 15816.5 3265.29 15902.8 3265.29C16326 3265.29 16708.6 3437 16985.6 3714.79C17033 3762.67 17077.4 3813.57 17118.4 3867.09C17314.7 4124.17 17431.6 4445.56 17431.6 4794.13Z" fill="#865EB5"/>
<path d="M15902.8 3265.29V4794.13L14375.7 4725.97C14407.7 3998.21 14947.7 3403.31 15649.6 3286.44C15732 3272.63 15816.5 3265.29 15902.8 3265.29Z" fill="#E73949"/>
<path d="M17431.6 4794.13C17431.6 5252.67 17229.7 5664.24 16909.6 5944.6L15902.8 4794.13L16985.6 3714.79C17033 3762.67 17077.4 3813.57 17118.4 3867.09C17314.7 4124.17 17431.6 4445.56 17431.6 4794.13Z" fill="#4870C0"/>
<path d="M17118.4 3867.09L15902.8 4794.13L15649.6 3286.44C15732 3272.63 15816.5 3265.29 15902.8 3265.29C16326 3265.29 16708.6 3437 16985.6 3714.79C17033 3762.67 17077.4 3813.57 17118.4 3867.09Z" fill="#F8A542"/>
<path d="M21648.6 5976.93C21549 5917.07 21457.6 5863.55 21338.1 5794.74C21313.6 5780.67 21085.1 5673.5 21001.2 5751.18C20946 5802.25 21035.4 5898.77 21089.6 5950.89C21130.3 5989.99 21178.8 6019.44 21228.7 6046.22C21184.7 6037.92 21134 6057.02 21115 6098.57C21096.9 6138.19 21112.9 6186.65 21144.8 6215.18C21098.2 6208.97 21047.1 6228.55 21023.3 6269.75C20997.8 6313.88 21009 6372.95 21042.7 6410.13C21023.5 6408.42 21002.7 6414.98 20989.8 6429.61C20964.1 6458.93 20967.2 6505.37 20986.8 6539.1C21006.3 6572.79 21038.9 6596.6 21070.8 6618.97C21200.6 6709.76 21335.7 6793.03 21475.1 6868.23C21519.9 6892.39 21570.3 6916.42 21619.7 6904.32C21652.7 6896.23 21679.7 6873.03 21705.3 6850.58C21876.8 6700.19 22048.3 6549.85 22219.8 6399.47C22047.2 6241.13 21849.4 6097.65 21648.6 5976.93Z" fill="#F8A542"/>
<path d="M29125.4 17808.5L29395.3 18860.4L27822 19363.4C27822 19363.4 27748.9 19034.1 27954.7 18842.1C28160.5 18649.9 28297.7 18444.2 28297.7 18444.2L28134.1 17758.2L29043.5 17480.4L29125.4 17808.5Z" fill="#282627"/>
<path d="M26555.3 18265.8V19281.1L24804.1 19335.9C24804.1 19335.9 24804.1 19107.3 24934.9 18979.2C25065.8 18851.2 25604.4 18691.9 25604.4 18691.9L25679.7 18201.8L26555.3 18265.8Z" fill="#282627"/>
<path d="M25365 9431.67C25365 9431.67 25291.1 10254.6 25225.4 13467.7C25200.2 14702.2 25178.1 18307.5 25178.1 18307.5L26844 18290.9C26844 18290.9 26821.2 14268.4 27026.3 12509.2C27231.4 10749.9 27445.6 9402.22 27445.6 9402.22L25365 9431.67Z" fill="#3B5BB2"/>
<path d="M27969.1 9693.77C27969.1 9693.77 28485.9 12774.5 28580.8 13440.4C28675.8 14106.4 29196.3 17702.5 29291 17942.2L27778.3 18237.7C27778.3 18237.7 27034.6 15260.3 26675.2 12625.3L26502.1 11376.9L26395.6 9413.76L27969.1 9693.77Z" fill="#3B5BB2"/>
<path d="M25567.4 7728.94C25565.2 7731.08 25383.4 8600.62 25434.8 9983.57L28134.1 9855.51C27971.3 7853.59 27885.9 7324.8 26945.5 6717.54L26052.2 6806.32L25567.4 7728.94Z" fill="#44A294"/>
<path d="M26102.5 9814.36C26102.5 9814.36 25713.8 9832.66 25581.1 9814.36C25448.5 9796.05 25407.3 9919.56 25434.8 9983.57C25462.2 10047.6 25637.1 10079.6 25764.6 10084.2C25892.1 10088.7 26180.3 10056.8 26180.3 10056.8L26102.5 9814.36Z" fill="#F8A542"/>
<path d="M25405.5 8715.44L26064.8 10842.5C26099.9 10955.8 26017.7 11071.6 25899.1 11075.8L24716.2 11117.5C24635.4 11120.3 24562.7 11069.1 24538.3 10992L23849.3 8823.31C23812.3 8707.18 23899 8588.74 24020.9 8588.74H25233.5C25312.4 8588.74 25382.1 8640.07 25405.5 8715.44Z" fill="#282627"/>
<path d="M26893.7 6704.52C26893.7 6704.52 26052.2 6546.75 25594.9 6610.76C25137.6 6674.76 23866.2 7024.64 23536.9 6988.07C23207.7 6951.46 22357 6265.47 22247.2 6183.15L21533.8 6992.31C21533.8 6992.31 22649.7 8094.77 23509.5 8122.25C24369.3 8149.69 25980.6 7770.1 25980.6 7770.1L26893.7 6704.52Z" fill="#44A294"/>
<path d="M26172.4 9958.89C26075 9908.9 25954.8 9940.49 25853.5 9958.58C25679 9989.78 25503.8 10016.2 25328.6 10043C25288.2 10049.2 25246.4 10055.9 25212.3 10078.4C25178.2 10100.9 25154 10144 25166.5 10182.9C25181.9 10231.3 25240.8 10248.3 25291.1 10254.6C25426.7 10271.8 25565.1 10265.7 25698.6 10236.9C25633.6 10249 25564.9 10274 25431.6 10296.5C25331.9 10313.3 25157.7 10311.2 25151.3 10412C25141.9 10560.9 25422.8 10543.7 25571.8 10539.4C25499.9 10551.4 25428.1 10563.5 25356.2 10575.6C25328 10580.3 25295.8 10587.8 25282.7 10613.3C25257.9 10661.5 25283.1 10724.3 25336 10736.2C25422.6 10755.9 25552 10746.7 25640.8 10748.1C25620.1 10749.5 25599.4 10750.9 25578.7 10752.3C25547.2 10754.4 25454.9 10757.6 25432.9 10780.2C25395.6 10818.7 25429.8 10882.7 25477.7 10906.9C25525.7 10931 25633.3 10920.2 25687 10921.1C26006.5 10926.7 26197.6 10839.1 26453 10798.1C26541.1 10783.9 26297 10022.8 26172.4 9958.89Z" fill="#F8A542"/>
<path d="M26764.5 6610.76C26764.5 6610.76 27941 6910.3 28242.8 7349.35C28544.6 7788.41 28608.4 8117.57 28645 8693.81C28681.6 9270.05 28476 9768.61 28174.2 10097.9C27872.3 10427.2 26756.5 10719.9 26280.9 10884.5C26280.9 10884.5 26108.7 9978.98 25980.6 9805.18C25980.6 9805.18 27049.2 9567.42 27479 9137.5C27662.2 8954.34 27698.6 8469.81 27625.4 8140.51C27552.2 7811.26 26493.5 6957.18 26493.5 6957.18L26764.5 6610.76Z" fill="#44A294"/>
<path d="M25983.7 9821.83L25977.5 9788.62C26666.9 9659.6 27142.6 9399.29 27431.9 8992.75C27686.9 8634.48 27609.6 8148.2 27608.7 8143.31L27642 8137.76C27642.9 8142.78 27722.5 8642.83 27459.5 9012.36C27164.8 9426.34 26682.1 9691.15 25983.7 9821.83Z" fill="#282627"/>
<path d="M25541.5 7872.12L25508.4 7865.34L25624 7295.66L25657.1 7302.43L25541.5 7872.12Z" fill="#282627"/>
<path d="M25479 10558.6L25473.1 10525.3L25808.4 10465.4L25814.4 10498.7L25479 10558.6Z" fill="#282627"/>
<path d="M25476.9 10774.2L25475.2 10740.4L25868.5 10721.3L25870.1 10755L25476.9 10774.2Z" fill="#282627"/>
<path d="M25581.4 10272.9L25575.9 10239.6L25696 10220.2L25701.4 10253.5L25581.4 10272.9Z" fill="#282627"/>
<path d="M26910.6 14219.6L26379.1 11697.4L26412.1 11690.5L26943.6 14212.6L26910.6 14219.6Z" fill="#282627"/>
<path d="M26460.3 7226.23L26383 6838.08L26039.8 6986.5L26118 6607.35L26151 6614.16L26086 6929.74L26408.1 6790.46L26483.1 7167.69L27114.6 6705.65L27134.6 6732.92L26460.3 7226.23Z" fill="#282627"/>
<path d="M25959.3 9458.89L25925.6 9456.4C26025.2 8089.39 26375.8 6822.35 26379.3 6809.73L26411.8 6818.81C26408.3 6831.4 26058.6 8095.33 25959.3 9458.89Z" fill="#282627"/>
<path d="M21588.7 6479.64C21580.3 6475.97 21381.6 6388.46 21303 6328.82C21214.5 6261.75 21218.7 6202.03 21255.9 6121.46C21294.7 6037.14 21657.3 6128.32 21767.4 6158.25L21758.6 6190.84C21545 6132.82 21304.4 6096.73 21286.5 6135.66C21253.8 6206.53 21251.4 6247.33 21323.4 6301.9C21398.9 6359.14 21600.3 6447.83 21602.3 6448.71L21588.7 6479.64Z" fill="#282627"/>
<path d="M21201.9 6699.32C21176.7 6699.32 21152.2 6690.36 21134.7 6672.75L21158.7 6648.94C21179.3 6669.65 21217.4 6671.18 21243.6 6652.26C21268.5 6634.31 21282.9 6599.97 21280.2 6564.71C21277.4 6524.77 21255.6 6490.96 21237.8 6469.64L21142.3 6355.08L21261 6445.39C21286.4 6464.79 21311.3 6476.28 21334.7 6479.64C21361.4 6483.35 21388.1 6475.62 21404 6459.32C21420.5 6442.5 21424.5 6414.67 21412.9 6397.33L21441 6378.54C21461.7 6409.47 21456.2 6454.39 21428.2 6482.96C21404.5 6507.17 21367.7 6518.44 21330 6513.06C21320 6511.67 21309.8 6509.09 21299.6 6505.42C21307.7 6524.25 21312.6 6543.34 21314 6562.26C21317.4 6609.62 21298.1 6654.62 21263.4 6679.66C21245.1 6692.85 21223.3 6699.32 21201.9 6699.32Z" fill="#282627"/>
<path d="M26682.6 10690.2L26409.8 9698.23L26442.4 9689.27L26715.2 10681.2L26682.6 10690.2Z" fill="#282627"/>
<path d="M21929 7308.9L21901.6 7289.19L22514.3 6436.52L22541.8 6456.26L21929 7308.9Z" fill="#282627"/>
<path d="M27060.2 5789.76C27094.4 5890.55 27098.5 6000.04 27082.2 6105.21C27068 6196.61 27037.8 6287.14 26981.9 6360.8C26926 6434.51 26842.5 6489.95 26750.4 6499.17C26717.5 6502.49 26680 6498.08 26658.6 6472.74C26643.8 6455.13 26639.9 6431.05 26636.5 6408.25C26627.5 6348.17 26618.5 6288.14 26609.5 6228.07C26589.4 6093.59 26569.5 5954.78 26603.2 5823.05C26631.7 5711.64 26706.8 5606.47 26816.5 5564.05C26937.4 5517.21 27027.3 5692.59 27060.2 5789.76Z" fill="#282627"/>
<path d="M26876.7 6260.31C26846.9 6225.88 26796.6 6228.11 26750.1 6238.86C26775.5 6156.41 26794.9 6071.43 26806.9 5992C26830.9 5740.52 26575.5 5541.38 26312.3 5541.03C26102 5565.58 25961.7 5913.84 25943.7 6097.17C25897.6 6567.2 26162.6 6867.18 26568.1 6606.3C26607.3 6561.17 26643.2 6501.66 26675 6434.51C26677.8 6434.51 26680.7 6434.64 26683.4 6434.59C26738.3 6433.76 26796.6 6431.97 26842.5 6401.78C26888.5 6371.59 26912.7 6301.86 26876.7 6260.31Z" fill="#F8A542"/>
<path d="M26688.6 6280.23L26808.5 6667.9C26808.5 6667.9 26555.3 6805.18 26373.5 6805.18L26286.9 6594.33L26688.6 6280.23Z" fill="#F8A542"/>
<path d="M26343.7 5459.72C26342.2 5459.72 26340.6 5459.72 26339.1 5459.72C26267.8 5459.72 26199.7 5469.77 26137 5503.67C26093.4 5527.22 26047.4 5553.13 26024.2 5596.91C25986.3 5668.39 26028 5761.97 26096 5805.71C26164.1 5849.4 26249.7 5854.34 26330.5 5850.45C26411.3 5846.56 26493.1 5835.24 26572.4 5851.36C26558.1 5898.68 26581.1 5949.36 26610.5 5989.03C26640.1 6028.71 26677 6063.7 26697.2 6108.83C26717.5 6153.97 26714.9 6215.05 26674.7 6243.8C26779.4 6236.24 26849.8 6134.92 26894.4 6039.89C26933.6 5956.31 26966 5865.74 26958.4 5773.72C26947.4 5638.76 26847.6 5520.62 26723.5 5466.36C26599.4 5412.05 26479.2 5459.72 26343.7 5459.72Z" fill="#282627"/>
<path d="M8305.73 5776.91V5008.08H7519.56V5776.91H7108.3V6563.09H7885.25H7894.47H8671.42V5776.91H8305.73Z" fill="#F8A542"/>
<path d="M8305.73 5793.82H7519.56V5760.05H8305.73V5793.82Z" fill="#282627"/>
<path d="M7929.51 6563.09H7895.73V5776.91H7929.51V6563.09Z" fill="#282627"/>
<path d="M17348.2 11958.6V11189.8H16562.1V11958.6H16150.8V12744.8H16927.8H16937H17713.9V11958.6H17348.2Z" fill="#F8A542"/>
<path d="M17348.2 11975.5H16562.1V11941.7H17348.2V11975.5Z" fill="#282627"/>
<path d="M16972 12744.8H16938.3V11958.6H16972V12744.8Z" fill="#282627"/>
<path d="M11068.8 14384.2V13615.3H10282.6V14384.2H9871.38V15170.3H10648.3H10657.6H11434.5V14384.2H11068.8Z" fill="#F8A542"/>
<path d="M11068.8 14401H10282.6V14367.3H11068.8V14401Z" fill="#282627"/>
<path d="M10692.6 15170.3H10658.8V14384.1H10692.6V15170.3Z" fill="#282627"/>
<path d="M17342 14551.6C17115.8 14551.6 16932.4 14368.2 16932.4 14142C16932.4 13915.8 17115.8 13732.4 17342 13732.4C17568.2 13732.4 17751.6 13915.8 17751.6 14142C17751.6 14368.2 17568.2 14551.6 17342 14551.6ZM17342 13614.7C17035.2 13614.7 16786.6 13863.4 16786.6 14170.1C16786.6 14241.7 16800.2 14310 16824.9 14372.9L17342 15253.1L17859 14372.9C17883.7 14310 17897.4 14241.7 17897.4 14170.1C17897.4 13863.4 17648.7 13614.7 17342 13614.7Z" fill="#E73949"/>
<path d="M17897.4 7671.23C17671.2 7671.23 17487.8 7487.85 17487.8 7261.67C17487.8 7035.43 17671.2 6852.06 17897.4 6852.06C18123.6 6852.06 18307 7035.43 18307 7261.67C18307 7487.85 18123.6 7671.23 17897.4 7671.23ZM17897.4 6734.36C17590.6 6734.36 17342 6983.05 17342 7289.8C17342 7361.37 17355.7 7429.75 17380.4 7492.57L17897.4 8372.77L18414.4 7492.57C18439.1 7429.75 18452.8 7361.37 18452.8 7289.8C18452.8 6983.05 18204.1 6734.36 17897.4 6734.36Z" fill="#E73949"/>
<path d="M23778.6 5613.33C23552.4 5613.33 23369 5429.92 23369 5203.73C23369 4977.5 23552.4 4794.13 23778.6 4794.13C24004.8 4794.13 24188.2 4977.5 24188.2 5203.73C24188.2 5429.92 24004.8 5613.33 23778.6 5613.33ZM23778.6 4676.42C23471.8 4676.42 23223.2 4925.11 23223.2 5231.87C23223.2 5303.43 23236.9 5371.81 23261.5 5434.64L23778.6 6314.84L24295.6 5434.64C24320.3 5371.81 24334 5303.43 24334 5231.87C24334 4925.11 24085.3 4676.42 23778.6 4676.42Z" fill="#E73949"/>
<path d="M14834 15450.4H14863.7V15292.3H14834V15450.4Z" fill="#282627"/>
<path d="M14139.3 16340H15444V15498.4H14139.3V16340Z" fill="#4870C0"/>
<path d="M15043.9 16339.9H15010.1V15498.4H15043.9V16339.9Z" fill="#282627"/>
<path d="M14625.5 16382.2H14591.7V15498.4H14625.5V16382.2Z" fill="#282627"/>
<path d="M13789.2 16042.5H13964.3V15223.5H13789.2V16042.5Z" fill="#A5A8A6"/>
<path d="M13456 16097.1H13789.2V15425H13456V16097.1Z" fill="#A5A8A6"/>
<path d="M15579.6 16232.6H15661.9V15249.9H15579.6V16232.6Z" fill="#F8A542"/>
<path d="M13150.9 15984.1C13150.9 15984.1 13314.8 16215.7 13495.6 16385C13611.7 16493.9 13688.2 16584.1 13734 16661.8C13759.5 16705 13775.6 16744.1 13783.6 16780.4H15799.9C15799.9 16780.4 15833.1 16721.8 15875.5 16661.8C15905.2 16620.2 15939 16577.8 15969.3 16554.5C16042.7 16498.1 16138.8 16382.2 16138.8 16382.2L16183.9 16102.8H14348.3L14280.6 15984.1H13150.9Z" fill="#282627"/>
<path d="M14754.9 15334.6H15661.9V15249.9H14754.9V15334.6Z" fill="#F8A542"/>
<path d="M13734 16661.8C13759.5 16705 13775.6 16744.1 13783.6 16780.4H15799.9C15799.9 16780.4 15833.1 16721.8 15875.5 16661.8H13734Z" fill="#865EB5"/>
<path d="M13806.1 15984.1H13772.3V15425H13806.1V15984.1Z" fill="#282627"/>
<path d="M15444 15721.4H14139.3V15687.7H15444V15721.4Z" fill="#282627"/>
<path d="M15427.1 15936.1H14139.3V15902.3H15427.1V15936.1Z" fill="#282627"/>
<path d="M13579.8 15614.7H13678.6V15515.8H13579.8V15614.7Z" fill="#282627"/>
<path d="M13579.8 15769.5H13678.6V15670.7H13579.8V15769.5Z" fill="#282627"/>
<path d="M13579.8 15924.4H13678.6V15825.5H13579.8V15924.4Z" fill="#282627"/>
<path d="M22168.5 14012.1H22138.8V13854H22168.5V14012.1Z" fill="#282627"/>
<path d="M22863.2 14901.7H21558.5V14060.2H22863.2V14901.7Z" fill="#4870C0"/>
<path d="M21992.4 14901.7H21958.6V14060.2H21992.4V14901.7Z" fill="#282627"/>
<path d="M22410.8 14943.9H22377.1V14060.2H22410.8V14943.9Z" fill="#282627"/>
<path d="M23213.3 14604.2H23038.3V13785.3H23213.3V14604.2Z" fill="#A5A8A6"/>
<path d="M23546.5 14658.9H23213.3V13986.8H23546.5V14658.9Z" fill="#A5A8A6"/>
<path d="M21423 14794.4H21340.6V13811.6H21423V14794.4Z" fill="#F8A542"/>
<path d="M23851.6 14545.8C23851.6 14545.8 23687.7 14777.4 23506.9 14946.8C23390.8 15055.7 23314.3 15145.9 23268.5 15223.5C23243 15266.7 23226.9 15305.8 23218.9 15342.1H21202.6C21202.6 15342.1 21169.4 15283.5 21127 15223.5C21097.3 15181.9 21063.5 15139.5 21033.2 15116.3C20959.7 15059.9 20863.7 14943.9 20863.7 14943.9L20818.6 14664.6H22654.2L22721.9 14545.8H23851.6Z" fill="#282627"/>
<path d="M22247.5 13896.4H21340.6V13811.6H22247.5V13896.4Z" fill="#F8A542"/>
<path d="M23268.5 15223.5C23243 15266.7 23226.9 15305.8 23218.9 15342.1H21202.6C21202.6 15342.1 21169.4 15283.5 21127 15223.5H23268.5Z" fill="#865EB5"/>
<path d="M23230.2 14545.8H23196.5V13986.7H23230.2V14545.8Z" fill="#282627"/>
<path d="M22863.2 14283.1H21558.5V14249.4H22863.2V14283.1Z" fill="#282627"/>
<path d="M22863.2 14497.8H21575.5V14464H22863.2V14497.8Z" fill="#282627"/>
<path d="M23422.7 14176.4H23324V14077.6H23422.7V14176.4Z" fill="#282627"/>
<path d="M23422.7 14331.3H23324V14232.4H23422.7V14331.3Z" fill="#282627"/>
<path d="M23422.7 14486.1H23324V14387.3H23422.7V14486.1Z" fill="#282627"/>
<path d="M23103.7 11109V10340.1H22317.5V11109H21906.3V11895.1H22683.2H22692.4H23469.4V11109H23103.7Z" fill="#F8A542"/>
<path d="M23103.7 11125.8H22317.5V11092.1H23103.7V11125.8Z" fill="#282627"/>
<path d="M22727.4 11895.1H22693.7V11109H22727.4V11895.1Z" fill="#282627"/>
<path d="M9874.18 11384.3C9926.17 11380.7 9978.99 11335.7 9971.17 11283.5C9967.72 11260.5 9923.9 11174.2 9909.57 11156C9833.15 11059.2 9567.34 10914.7 9513.08 10845.6C9629.77 10853 9676.22 10855.9 9792.87 10863.2C9811.31 10864.4 9830.4 10865.4 9847.7 10858.9C9884.58 10844.8 9901.57 10798.2 9893.31 10759.2C9885.01 10720.2 9857.4 10688.3 9827.12 10662.8C9683.51 10541.5 9445.49 10529.1 9251.63 10449C9059.57 10369.6 8957.85 10336.9 8784.62 10225.9C8780.34 10223.1 8775.58 10220.2 8770.51 10220.7C8764.35 10221.2 8759.67 10226.4 8755.65 10231.1C8628.51 10382.6 8501.42 10534 8374.28 10685.5C8341.2 10724.9 8306.95 10765.3 8261.77 10789.5C8390.14 10939.6 9257.44 11677.6 9414.73 11727.1C9491.8 11751.4 9576.73 11749.2 9652.45 11720.9C9686.83 11708.1 9723.97 11682.5 9723.1 11645.4C9722.53 11622.4 9706.8 11602.6 9690.07 11586.9C9674.38 11572.3 9657.34 11559.6 9639.3 11548.3C9647.51 11551.4 9655.72 11554.5 9663.94 11557.5C9708.55 11573.6 9755.3 11589 9802.35 11583.7C9849.45 11578.2 9896.9 11546 9904.67 11498.6C9912.5 11450.9 9881.3 11412.3 9840.49 11382.6C9851.59 11384.3 9862.82 11385.1 9874.18 11384.3Z" fill="#4870C0"/>
<path d="M4381.96 17875.9L4348.01 18426.9C4348.01 18426.9 4700.72 18552.6 4844.64 18649.3C4988.51 18746 5079.96 18987.7 5085.2 19036H3137.86L3324.72 17788.8L4381.96 17875.9Z" fill="#282627"/>
<path d="M6073.74 17729.5V18819.9H7902.16C7902.16 18819.9 7849.64 18616 7753.34 18518.5C7657.05 18421 7070.59 18208.2 7070.59 18208.2L7013.66 17614.2L6073.74 17729.5Z" fill="#282627"/>
<path d="M6854.72 9914.89C6854.72 9914.89 7139.05 11852.8 7236.09 14019.7C7333.08 16186.6 7318.06 17743.1 7318.06 17743.1L5932.28 17849.9L5538.67 12207.1L4590.93 17910.9H3129.43L4093.7 9914.89H6854.72Z" fill="#865EB5"/>
<path d="M5069.56 12626.9C5082.27 12703.7 5058.11 12784.5 5014.12 12846.2C4970.08 12907.8 4907.77 12951.7 4841.54 12981.7C4814.41 12994 4779.67 13002.7 4758.48 12980.6C4748.08 12969.7 4743.8 12953.8 4740 12938.7C4703.78 12794.8 4673.33 12649 4656.81 12500.9C4647.55 12418.1 4642.92 12332.1 4666.47 12252.7C4686.96 12183.5 4791.07 12030.5 4875.18 12090.2C4926.65 12126.8 5055.4 12541.8 5069.56 12626.9Z" fill="#4870C0"/>
<path d="M4379.46 12535.4C3977.4 12535.4 3651.26 12865.6 3651.26 13273C3651.26 13284.6 3651.48 13296.3 3652.06 13307.6H3908.76C3907.77 13296.3 3907.4 13284.8 3907.4 13273C3907.4 13008.8 4118.85 12794.7 4379.46 12794.7C4640.3 12794.7 4851.76 13008.8 4851.76 13273C4851.76 13284.8 4851.41 13296.3 4850.41 13307.6H5107.09C5107.7 13296.3 5107.88 13284.6 5107.88 13273C5107.88 12865.6 4781.72 12535.4 4379.46 12535.4Z" fill="#3746A3"/>
<path d="M5849.96 13307.6H3070.72C2914.51 13307.6 2787.91 13434.2 2787.91 13590.4V15512.1C2787.91 15668.3 2914.51 15794.9 3070.72 15794.9H5849.96C6006.16 15794.9 6132.77 15668.3 6132.77 15512.1V13590.4C6132.77 13434.2 6006.16 13307.6 5849.96 13307.6Z" fill="#3746A3"/>
<path d="M5664.41 15005.6H3238.66C3123.42 15005.6 3029.68 14919.3 3029.68 14813.3V13307.6H3063.45V14813.3C3063.45 14900.7 3142.04 14971.8 3238.66 14971.8H5664.41C5761.05 14971.8 5839.65 14900.7 5839.65 14813.3V13307.6H5873.42V14813.3C5873.42 14919.3 5779.66 15005.6 5664.41 15005.6Z" fill="#282627"/>
<path d="M4241.65 15152.7H4207.86V14993.5H4241.65V15152.7Z" fill="#282627"/>
<path d="M4451.55 15536.2C4324.38 15536.2 4220.06 15439.7 4208.81 15311.6L4242.45 15308.7C4252.16 15419.1 4342.03 15502.4 4451.55 15502.4C4561.52 15502.4 4653.54 15415.3 4660.96 15304.2L4694.69 15306.4C4686.04 15435.2 4579.26 15536.2 4451.55 15536.2Z" fill="#282627"/>
<path d="M4695.22 15156.5H4661.44V14993.5H4695.22V15156.5Z" fill="#282627"/>
<path d="M4072.93 15288.4H4818.86V15169.6H4072.93V15288.4ZM4852.64 15322.2H4039.15V15135.9H4852.64V15322.2Z" fill="#282627"/>
<path d="M4781.55 12805C4790.46 12888.4 4809.47 13024 4766.7 13089.9C4735.19 13138.3 4624.7 13186.7 4576.82 13166.5C4528.97 13146.1 4515.47 13139.6 4488.39 13184.2C4483.06 13193 4475.23 13199.1 4467.28 13204.2C4413.41 13238.9 4344.78 13236.9 4292.42 13198.9C4240.03 13161 4255.83 13168.3 4214.75 13225.1C4150.77 13313.7 3979.52 13270.8 3915.45 13165.9C3883.18 13113 3878.6 13043 3876.45 12977.1C3867.89 12715.7 3803.15 12382.6 3832.52 12123.4C4075.11 12059.7 4395.28 12080 4641.57 12043.2C4793.26 12020.5 4723.53 12194.9 4718.81 12311.1C4711.25 12499 4761.58 12618.5 4781.55 12805Z" fill="#4870C0"/>
<path d="M5186.83 6862.94C5186.83 6862.94 4455.31 6847.69 3988.24 7381.77C3521.16 7915.85 3334.06 9151.91 3337.22 9945.39C3340.36 10738.9 3710.52 12414 3710.52 12414L4956.93 12151.2C4956.93 12151.2 4545.71 9991.17 4636.1 9335.02C4726.5 8678.87 4983.53 8205.78 4983.53 8205.78L5186.83 6862.94Z" fill="#D9E6E2"/>
<path d="M5434.59 6862.9C5434.59 6862.9 5916.81 6862.94 6172.97 6969.76C6429.08 7076.59 6656.01 7137.63 7144.78 7809.03C7633.55 8480.47 7717.21 8953.51 8056.3 9296.88C8395.38 9640.25 9280.38 10404.1 9280.38 10404.1L8421.64 11214.4C8421.64 11214.4 7848.29 10754.8 7385.78 10296.4C6854.72 9769.92 6368.79 9038.62 6368.79 9038.62L5434.59 6862.9Z" fill="#D9E6E2"/>
<path d="M6579.77 7885.36C6732.69 8447.05 6854.72 9914.89 6854.72 9914.89L4379.99 10174.3L4809.38 7084.5L5186.82 6862.94L5434.59 6862.9C5434.59 6862.9 6478.28 7512.71 6579.77 7885.36Z" fill="#D9E6E2"/>
<path d="M5054.18 5746.07C4884.14 5873.65 4760.32 6106.69 4828.43 6315.62C4868.28 6437.87 4964.35 6528.18 5056.58 6612.68C5077.9 6632.17 5099.18 6651.69 5120.5 6671.18C5125.13 6675.46 5130.03 6679.83 5136.06 6681.14C5144.14 6682.89 5152.22 6678.61 5159.34 6674.2C5260.14 6611.72 5318.81 6495.28 5404.1 6410.74C5559.24 6256.9 5908.99 6080.39 5773.68 5782.07C5640.38 5488.07 5263.15 5589.22 5054.18 5746.07Z" fill="#282627"/>
<path d="M5818.85 5893.96C5913.66 6004.46 5926.64 6203.6 5931.84 6341.66C5935.81 6447.57 5914.1 6557.02 5848.56 6646.1C5782.98 6735.14 5688.22 6800.51 5567.15 6798.23C5438.92 6795.79 5324.19 6719.29 5256.21 6624.08C5188.18 6528.88 5159.26 6416.72 5135.31 6306.45C5111.37 6196.17 5091.58 6080.52 5129.24 5973.26C5239.95 5658.2 5642.43 5688.22 5818.85 5893.96Z" fill="#4870C0"/>
<path d="M5590.35 6626.44V6947.31C5590.35 6947.31 5350.14 7006.73 5028.71 6887.54L5120.5 6231.82L5590.35 6626.44Z" fill="#4870C0"/>
<path d="M5185.73 6344.15L5174.68 6337.69C5161.7 6292.51 5108.75 6265.42 5063.75 6277.13C5018.75 6288.84 4986.07 6334.19 4983.71 6381.16C4981.35 6428.13 5006.64 6474.31 5044.35 6501.79C5082.05 6529.27 5130.64 6539.15 5176.86 6534.3C5185.69 6471.38 5188.66 6407.64 5185.73 6344.15Z" fill="#4870C0"/>
<path d="M5234.97 6059.73C5346.25 6127.32 5488.29 6098.3 5612.72 6060.99C5655.32 6048.19 5698.62 6034.21 5734.27 6007.34C5769.88 5980.43 5797.05 5937.92 5794.43 5893C5821.91 5919 5844.94 5949.89 5862.15 5983.75C5867.04 5961.42 5858.57 5938.44 5848.61 5917.95C5780.97 5779.32 5632.6 5687.43 5480.08 5681.32C5327.51 5675.2 5175.86 5751.4 5081.57 5872.99C5016.39 5957.05 4978.16 6077.16 5029.23 6170.7C5064.05 6234.53 5128.41 6285.21 5172.54 6341.84C5218.54 6276 5220.25 6141.56 5234.97 6059.73Z" fill="#282627"/>
<path d="M4632.52 10148.4C4624.44 10090.2 4436.39 8717.71 4633.61 8230.43L4664.9 8243.05C4471.04 8722.08 4664.02 10129.6 4665.99 10143.7L4632.52 10148.4Z" fill="#282627"/>
<path d="M6838.03 9640.9L6621.45 8150.43L6654.83 8145.62L6871.41 9636.05L6838.03 9640.9Z" fill="#282627"/>
<path d="M5106.87 7503.67L4779.1 6963.26L4807.98 6945.74L5109.54 7442.98L5428.08 7009.44L5891.82 7236.32L5698.75 6884.96L5728.33 6868.66L5972.78 7313.57L5438.61 7052.17L5106.87 7503.67Z" fill="#282627"/>
<path d="M5885.79 10016.3C5884.74 10005.4 5782.9 8927.52 5726.89 8573.45C5575.58 7617.66 5418.65 7040.98 5417.07 7035.26L5449.67 7026.35C5451.24 7032.07 5608.66 7610.54 5760.22 8568.2C5816.41 8923.24 5918.34 10002.3 5919.39 10013.1L5885.79 10016.3Z" fill="#282627"/>
<path d="M3654.79 11983.8L3647.74 11950.8L4857.57 11694.1L4864.61 11727.1L3654.79 11983.8Z" fill="#282627"/>
<path d="M8080.02 10931.7L8056.34 10907.5L8905.34 10074.8L8928.97 10098.9L8080.02 10931.7Z" fill="#282627"/>
<path d="M5555.22 12210.5L5522.11 12203.8L5704.34 11300.2L5737.5 11306.8L5555.22 12210.5Z" fill="#282627"/>
<path d="M6980.94 11020.3L6372.2 10438.3L6395.53 10413.9L7004.31 10995.9L6980.94 11020.3Z" fill="#282627"/>
<path d="M4773.77 10994L4749.44 10970.6L5249.26 10452.5L5273.55 10475.9L4773.77 10994Z" fill="#282627"/>
<path d="M5932.28 6392.43C5932.28 6392.43 6008.47 6640.47 5939.83 6836.55C5904.88 6936.39 5572.79 7003.84 5412.05 6901.61C5251.36 6799.41 5123.3 6174.98 5123.3 6174.98C5123.3 6174.98 5319.29 6510.84 5360.58 6507.78C5535.08 6495.02 5628.01 6393.74 5743.53 6384.61C5859.05 6375.52 5852.71 6384.66 5895.49 6392.78C5907.11 6394.97 5932.28 6392.43 5932.28 6392.43Z" fill="#282627"/>
<path d="M5826.41 6530.98C5825.15 6525.91 5679.26 6551.34 5679.26 6551.34C5679.26 6551.34 5717.14 6598.39 5761.1 6597.13C5805.05 6595.86 5826.41 6530.98 5826.41 6530.98Z" fill="#4870C0"/>
<path d="M9630.3 11562.7L9242.58 11317.8L9260.63 11289.2L9648.34 11534.1L9630.3 11562.7Z" fill="#282627"/>
<path d="M9810.56 11379.1L9403.76 11140L9420.89 11110.9L9827.69 11350L9810.56 11379.1Z" fill="#282627"/>
<path d="M19507.3 9306.01C19595.4 9170.22 19912.5 8969.16 19912.5 8969.16L19945.8 7834.11L20272.8 7688.31L20539.6 8616.83C20861.9 8473.57 21153.6 8396.93 21153.6 8396.93C21153.6 8396.93 21427.9 8341.88 21458 8379.98C21491.9 8423.06 21277.5 8625.66 21277.5 8625.66C21277.5 8625.66 21054.1 8828.25 20758 9019.97L21390.2 9750.52L21089.5 9944.82L20120.4 9352.89C20120.4 9352.89 19778.2 9503.63 19616.5 9507.43C19487.9 9510.49 19416.6 9446.09 19507.3 9306.01Z" fill="white"/>
<path d="M21149.2 8482L21222.7 8058.46L21385.9 7949.8L21458 8379.98L21149.2 8482Z" fill="white"/>
<path d="M21202.8 8581L21597.7 8750.74L21778 8673.28L21456.9 8378.06L21202.8 8581Z" fill="white"/>
<path d="M20429.6 9696L20588.8 9609.71L20502.5 9450.45L20343.3 9536.74L20429.6 9696Z" fill="white"/>
<path d="M20678.1 9860.23L20837.4 9773.94L20751.1 9614.69L20591.8 9700.98L20678.1 9860.23Z" fill="white"/>
<path d="M19877.8 8383.21L20037.1 8296.92L19950.8 8137.71L19791.5 8223.96L19877.8 8383.21Z" fill="white"/>
<path d="M19859.2 8688.18L20018.5 8601.89L19932.2 8442.63L19773 8528.92L19859.2 8688.18Z" fill="white"/>
<path d="M19921.9 8983.22L19903.2 8955.08C19907 8952.55 20284.8 8702.11 20533.3 8601.19L20546 8632.47C20300.7 8732.13 19925.6 8980.69 19921.9 8983.22Z" fill="#282627"/>
<path d="M20127.6 9368.23L20113.3 9337.6C20118 9335.42 20579.8 9121.5 20748.5 9006.03L20767.6 9033.9C20596.5 9151 20146.6 9359.4 20127.6 9368.23Z" fill="#282627"/>
<path d="M20809.7 9798.45L20375.8 9528.62L20393.6 9499.96L20827.5 9769.75L20809.7 9798.45Z" fill="#282627"/>
<path d="M19938.6 8654.8L19904.9 8653.79L19919.8 8144.79L19953.6 8145.8L19938.6 8654.8Z" fill="#282627"/>
<path d="M19578.1 9266.12C19578.1 9266.12 19588.1 9371.29 19684.7 9462.86L19736.5 9424.24C19736.5 9424.24 19668.8 9341.23 19638.1 9242.7L19578.1 9266.12Z" fill="#282627"/>
</g>
<defs>
<clipPath id="clip0_2_498">
<rect width="125204" height="83470" fill="white" transform="scale(0.261717)"/>
</clipPath>
</defs>
</svg>
